<svg width="139" height="134" viewBox="0 0 139 134" fill="none" xmlns="http://www.w3.org/2000/svg">
<path d="M54.3237 40.6543C54.3237 38.4212 54.5948 36.6427 55.1371 35.3188C55.6795 33.995 56.6684 32.695 58.1039 31.4189C59.5554 30.127 60.5204 29.0822 60.999 28.2847C61.4775 27.4712 61.7167 26.6178 61.7167 25.7246C61.7167 23.029 60.4726 21.6812 57.9843 21.6812C56.804 21.6812 55.8549 22.048 55.1371 22.7817C54.4353 23.4995 54.0685 24.4964 54.0366 25.7725H47.0981C47.13 22.7259 48.1109 20.3413 50.0409 18.6187C51.9869 16.896 54.6347 16.0347 57.9843 16.0347C61.3658 16.0347 63.9897 16.8561 65.8559 18.499C67.7221 20.126 68.6552 22.4308 68.6552 25.4136C68.6552 26.7694 68.3521 28.0534 67.746 29.2656C67.1399 30.4619 66.0792 31.7938 64.5639 33.2612L62.6259 35.1035C61.4137 36.2679 60.7198 37.6317 60.5444 39.1948L60.4487 40.6543H54.3237ZM53.6298 47.9995C53.6298 46.9308 53.9887 46.0535 54.7065 45.3677C55.4402 44.6659 56.3733 44.3149 57.5058 44.3149C58.6383 44.3149 59.5634 44.6659 60.2812 45.3677C61.0149 46.0535 61.3818 46.9308 61.3818 47.9995C61.3818 49.0522 61.0229 49.9215 60.3051 50.6074C59.6033 51.2933 58.6702 51.6362 57.5058 51.6362C56.3414 51.6362 55.4003 51.2933 54.6826 50.6074C53.9807 49.9215 53.6298 49.0522 53.6298 47.9995Z" fill="url(#paint0_linear)"/>
<path d="M101.184 0H18.397C8.25107 0 0 8.36982 0 18.6618V74.6472C0 84.9392 8.25107 93.309 18.397 93.309V116.636C18.397 118.456 19.4457 120.117 21.0738 120.873C21.6901 121.162 22.3432 121.302 22.9963 121.302C24.0725 121.302 25.1395 120.919 25.9858 120.173L56.8928 93.309H101.184C111.33 93.309 119.581 84.9392 119.581 74.6472V18.6618C119.581 8.36982 111.33 0 101.184 0ZM110.382 74.6472C110.382 79.7886 106.252 83.9781 101.184 83.9781H55.1911C54.0965 83.9781 53.0295 84.37 52.2016 85.1072L27.5956 106.494V88.6436C27.5956 86.0682 25.5351 83.9781 22.9963 83.9781H18.397C13.3287 83.9781 9.19852 79.7886 9.19852 74.6472V18.6618C9.19852 13.5205 13.3287 9.3309 18.397 9.3309H101.184C106.252 9.3309 110.382 13.5205 110.382 18.6618V74.6472Z" fill="url(#paint1_linear)"/>
<path d="M127.475 36.0603C125.278 35.3761 122.905 36.4252 122.142 38.417C121.388 40.4012 122.545 42.5602 124.742 43.252C128.062 44.2859 130.301 47.152 130.301 50.3753V95.9888C130.301 100.178 126.536 103.591 121.916 103.591H117.724C115.409 103.591 113.531 105.294 113.531 107.392V121.935L91.1023 104.511C90.3476 103.91 89.375 103.591 88.3772 103.591H51.2331C48.9189 103.591 47.0408 105.294 47.0408 107.392C47.0408 109.49 48.9106 111.193 51.2331 111.193H86.8261L114.999 133.08C115.77 133.688 116.743 134 117.724 134C118.319 134 118.914 133.886 119.476 133.65C120.96 133.035 121.916 131.681 121.916 130.199V111.193C131.164 111.193 138.685 104.374 138.685 95.9888V50.3753C138.685 43.9134 134.183 38.1585 127.475 36.0603Z" fill="url(#paint2_linear)"/>
<path d="M87.3861 56.2232H32.195C29.6562 56.2232 27.5957 57.9261 27.5957 60.0243C27.5957 62.1225 29.6562 63.8254 32.195 63.8254H87.3861C89.9249 63.8254 91.9853 62.1225 91.9853 60.0243C91.9853 57.9261 89.9249 56.2232 87.3861 56.2232Z" fill="url(#paint3_linear)"/>
<path d="M68.989 71.4277H32.195C29.6562 71.4277 27.5957 73.1306 27.5957 75.2288C27.5957 77.327 29.6562 79.0299 32.195 79.0299H68.989C71.5278 79.0299 73.5883 77.327 73.5883 75.2288C73.5883 73.1306 71.5278 71.4277 68.989 71.4277Z" fill="url(#paint4_linear)"/>
<defs>
<linearGradient id="paint0_linear" x1="58.2236" y1="6.34912" x2="58.2236" y2="51.1272" gradientUnits="userSpaceOnUse">
<stop stop-color="#F3F2F2"/>
<stop offset="1" stop-color="#F0E5DF"/>
</linearGradient>
<linearGradient id="paint1_linear" x1="59.7904" y1="0" x2="59.7904" y2="121.302" gradientUnits="userSpaceOnUse">
<stop stop-color="#F3F2F2"/>
<stop offset="1" stop-color="#F0E5DF"/>
</linearGradient>
<linearGradient id="paint2_linear" x1="92.863" y1="35.8512" x2="92.863" y2="134" gradientUnits="userSpaceOnUse">
<stop stop-color="#F3F2F2"/>
<stop offset="1" stop-color="#F0E5DF"/>
</linearGradient>
<linearGradient id="paint3_linear" x1="59.7905" y1="56.2232" x2="59.7905" y2="63.8254" gradientUnits="userSpaceOnUse">
<stop stop-color="#F3F2F2"/>
<stop offset="1" stop-color="#F0E5DF"/>
</linearGradient>
<linearGradient id="paint4_linear" x1="50.592" y1="71.4277" x2="50.592" y2="79.0299" gradientUnits="userSpaceOnUse">
<stop stop-color="#F3F2F2"/>
<stop offset="1" stop-color="#F0E5DF"/>
</linearGradient>
</defs>
</svg>
