<svg width="160" height="142" viewBox="0 0 160 142" fill="none" xmlns="http://www.w3.org/2000/svg">
<path d="M123.772 7.54689L106.618 24.7002C101.889 29.4294 101.889 37.1247 106.618 41.8536L114.415 49.6504C117.998 53.2332 117.997 59.063 114.417 62.6443L80.5926 96.4395C77.0015 100.031 71.1892 100.031 67.5976 96.4395C66.3417 95.1836 62.7356 91.5775 59.8007 88.6426C55.0926 83.9342 47.4213 83.8685 42.6431 88.6472L25.5482 105.796C20.8193 110.525 20.8193 118.22 25.5358 122.937C29.0345 126.466 30.1631 127.604 31.7319 129.187C48.7855 146.241 76.5339 146.241 93.587 129.188L147.162 75.6404C164.256 58.5466 164.258 30.8798 147.162 13.7847L140.925 7.54689C136.196 2.81772 128.501 2.81772 123.772 7.54689ZM31.2659 117.231C29.6896 115.655 29.6893 113.09 31.2702 111.509L48.3651 94.3603C49.9452 92.7802 52.5024 92.7802 54.0828 94.3603L56.9416 97.2194L34.0854 120.076L31.2659 117.231ZM141.445 69.9216L87.8696 123.469C74.6755 136.663 53.9577 137.389 39.8972 125.7L62.6871 102.91C69.4755 108.898 79.8197 108.648 86.3095 102.159L120.132 68.3645C120.132 68.3642 120.133 68.3636 120.133 68.3634C126.616 61.8806 126.882 51.5369 120.885 44.7402L143.676 21.9497C155.345 35.9656 154.73 56.6367 141.445 69.9216ZM135.207 13.2643L138.066 16.1234L115.195 38.9945L112.336 36.1359C110.76 34.5593 110.759 31.9945 112.336 30.4179L129.489 13.2646C131.066 11.688 133.631 11.688 135.207 13.2643Z" fill="#F0E7E2"/>
<path d="M40.5 61.8804H20C11.1634 61.8804 4 54.717 4 45.8804V20C4 11.1634 11.1634 4 20 4H75C83.8366 4 91 11.1634 91 20V45.8805C91 54.717 83.8366 61.8804 75 61.8804H62" stroke="#F2EFEE" stroke-width="8" stroke-linecap="round" stroke-linejoin="round"/>
<path d="M41.6027 58.2156C39.5787 57.3304 37.2203 58.2537 36.3351 60.2777C35.45 62.3018 36.3732 64.6601 38.3973 65.5453L41.6027 58.2156ZM70 75L68.3973 78.6649C69.9967 79.3643 71.8651 78.9458 73.0132 77.6307C74.1613 76.3157 74.324 74.408 73.4152 72.9175L70 75ZM65.4152 59.798C64.265 57.9118 61.8037 57.3152 59.9175 58.4653C58.0314 59.6154 57.4347 62.0768 58.5848 63.9629L65.4152 59.798ZM38.3973 65.5453L68.3973 78.6649L71.6027 71.3351L41.6027 58.2156L38.3973 65.5453ZM73.4152 72.9175L65.4152 59.798L58.5848 63.9629L66.5848 77.0825L73.4152 72.9175Z" fill="#F2EFEE"/>
<line x1="23" y1="29" x2="60" y2="29" stroke="#F2EFEE" stroke-width="8" stroke-linecap="round"/>
<line x1="23" y1="44" x2="60" y2="44" stroke="#F2EFEE" stroke-width="8" stroke-linecap="round"/>
</svg>
