<svg width="122" height="142" viewBox="0 0 122 142" fill="none" xmlns="http://www.w3.org/2000/svg">
<path d="M46.9909 16H12.0091C11.4518 16 11 17.5671 11 19.5C11 21.4329 11.4518 23 12.0091 23H46.9909C47.5482 23 48 21.4329 48 19.5C48 17.5671 47.5482 16 46.9909 16Z" fill="url(#paint0_linear)"/>
<path d="M58.6636 31H12.3364C11.5983 31 11 32.5671 11 34.5C11 36.4329 11.5983 38 12.3364 38H58.6636C59.4017 38 60 36.4329 60 34.5C60 32.5671 59.4017 31 58.6636 31Z" fill="url(#paint1_linear)"/>
<path d="M90.7636 51H13.2364C12.0013 51 11 52.5671 11 54.5C11 56.4329 12.0013 58 13.2364 58H90.7636C91.9987 58 93 56.4329 93 54.5C93 52.5671 91.9987 51 90.7636 51Z" fill="url(#paint2_linear)"/>
<path d="M77 3.5V21C77 26.5228 81.4772 31 87 31H105M108 62V37.1421C108 34.49 106.946 31.9464 105.071 30.0711L79.9289 4.92893C78.0536 3.05357 75.51 2 72.8579 2H12C6.47715 2 2 6.47715 2 12V130C2 135.523 6.47715 140 12 140H98C103.523 140 108 135.523 108 130V124" stroke="url(#paint3_linear)" stroke-width="4" stroke-linecap="round" stroke-linejoin="round"/>
<path d="M43.2512 82.8535C43.067 82.8568 42.884 82.8237 42.7126 82.7561C42.5411 82.6886 42.3847 82.588 42.2522 82.46C41.9845 82.2016 41.8305 81.8474 41.8239 81.4753C41.8174 81.1033 41.959 80.7439 42.2174 80.4762C42.4759 80.2086 42.8301 80.0545 43.2021 80.048C50.0851 79.9711 56.9531 79.3898 63.751 78.3086C63.8718 78.2834 63.9954 78.2749 64.1185 78.2834C65.8224 78.3735 67.4756 78.8948 68.9229 79.7983C69.1619 79.972 69.34 80.2166 69.4318 80.4975C69.5236 80.7783 69.5243 81.0809 69.434 81.3621C69.3437 81.6434 69.1668 81.889 68.9287 82.0638C68.6906 82.2387 68.4034 82.3339 68.108 82.3359C67.7776 82.3359 67.4572 82.2225 67.2004 82.0147C66.2547 81.4727 65.1956 81.159 64.1073 81.0987C57.2184 82.181 50.2606 82.7675 43.2877 82.8535H43.2512Z" fill="#F0E6E1"/>
<path d="M94.5638 116.225C93.367 116.226 92.2005 115.848 91.2322 115.145L90.9307 114.936C90.8914 114.909 90.8254 114.856 90.7637 114.796L74.252 102.904C74.0978 102.799 73.9662 102.664 73.8649 102.508C73.7635 102.351 73.6944 102.175 73.6617 101.992C73.629 101.808 73.6333 101.619 73.6743 101.437C73.7154 101.255 73.7923 101.083 73.9007 100.931C74.009 100.779 74.1466 100.651 74.3054 100.552C74.4642 100.454 74.641 100.389 74.8254 100.36C75.0097 100.331 75.198 100.339 75.3792 100.384C75.5604 100.429 75.7309 100.509 75.8806 100.621L77.0028 101.42L92.454 112.562C92.5003 112.595 92.5443 112.632 92.5859 112.67L92.8538 112.857C93.4623 113.293 94.2149 113.479 94.9564 113.376C95.6979 113.274 96.3718 112.891 96.839 112.306C97.1256 111.944 97.321 111.518 97.4087 111.065C97.4963 110.612 97.4737 110.145 97.3426 109.702C97.1851 109.145 96.8593 108.649 96.4098 108.284L74.3249 90.2909C65.8677 94.7797 59.8766 92.4708 57.0164 90.643C56.5437 90.3353 56.1599 89.9091 55.9033 89.4069C55.6467 88.9047 55.5263 88.344 55.5539 87.7807C55.5816 87.2173 55.7565 86.6711 56.0611 86.1965C56.3657 85.7218 56.7894 85.3353 57.2899 85.0755L69.9315 78.3619C70.7384 77.9398 71.6209 77.6816 72.528 77.6021C73.4352 77.5227 74.3491 77.6236 75.2171 77.899L82.6951 80.3258C84.8967 81.0499 87.2845 80.9638 89.4283 80.0831L92.6855 78.7491C92.856 78.6792 93.0386 78.6435 93.2228 78.6442C93.4071 78.6448 93.5894 78.6818 93.7594 78.7529C93.9294 78.824 94.0837 78.9279 94.2135 79.0587C94.3434 79.1894 94.4462 79.3445 94.5161 79.515C94.586 79.6855 94.6216 79.868 94.621 80.0523C94.6203 80.2366 94.5834 80.4189 94.5123 80.5889C94.4411 80.7589 94.3372 80.9132 94.2065 81.043C94.0757 81.1728 93.9207 81.2756 93.7502 81.3456L90.4958 82.6782C87.7353 83.8145 84.6595 83.9259 81.824 82.9924L74.353 80.567C73.8413 80.4063 73.3028 80.3483 72.7686 80.3965C72.2344 80.4446 71.715 80.5979 71.2403 80.8476L58.5959 87.5625C58.5255 87.5957 58.4657 87.6478 58.4231 87.7129C58.3805 87.778 58.3568 87.8537 58.3546 87.9315C58.3488 88.0018 58.3625 88.0724 58.3942 88.1355C58.4258 88.1986 58.4743 88.2518 58.5342 88.2892C61.4799 90.1717 66.5369 91.552 73.7764 87.3928C74.0227 87.2514 74.306 87.188 74.589 87.211C74.8721 87.234 75.1414 87.3424 75.3615 87.5219L98.1702 106.108C99.0647 106.83 99.7151 107.809 100.033 108.914C100.285 109.783 100.327 110.7 100.157 111.588C99.986 112.477 99.6072 113.313 99.0512 114.027C98.5215 114.712 97.8414 115.267 97.0634 115.648C96.2853 116.029 95.4301 116.227 94.5638 116.225V116.225Z" fill="#F0E6E1"/>
<path d="M88.7593 122.727C87.5706 122.728 86.411 122.359 85.4418 121.67L70.2781 110.911C69.9818 110.693 69.7829 110.368 69.7244 110.005C69.6659 109.641 69.7524 109.27 69.9652 108.97C70.178 108.67 70.5002 108.465 70.8623 108.401C71.2244 108.336 71.5974 108.416 71.9011 108.623L87.0648 119.381C87.701 119.797 88.4731 119.95 89.2199 119.81C89.9667 119.669 90.6304 119.246 91.0722 118.628C91.5141 118.009 91.6999 117.244 91.591 116.492C91.482 115.74 91.0866 115.059 90.4875 114.592L75.3743 103.7C75.0957 103.474 74.9139 103.151 74.8662 102.796C74.8185 102.441 74.9085 102.081 75.1177 101.79C75.327 101.499 75.6395 101.299 75.9914 101.232C76.3432 101.164 76.7076 101.233 77.0099 101.426L92.1273 112.32C93.1113 113.032 93.8445 114.038 94.2216 115.193C94.5988 116.347 94.6006 117.592 94.2268 118.748C93.853 119.904 93.1227 120.912 92.1407 121.627C91.1588 122.342 89.9755 122.728 88.7607 122.729L88.7593 122.727Z" fill="#F0E6E1"/>
<path d="M82.2126 128.347C81.0834 128.347 79.9815 128.001 79.055 127.356L65.4665 117.943C65.1605 117.731 64.9512 117.407 64.8847 117.04C64.8181 116.674 64.8998 116.297 65.1116 115.991C65.3235 115.685 65.6483 115.475 66.0145 115.409C66.3806 115.342 66.7583 115.424 67.0643 115.636L80.6527 125.048C80.9511 125.255 81.2872 125.4 81.6419 125.477C81.9966 125.553 82.3628 125.559 82.7198 125.494C83.0767 125.429 83.4173 125.294 83.7221 125.097C84.0269 124.9 84.29 124.645 84.4962 124.347C84.9067 123.748 85.0662 123.013 84.9403 122.298C84.8144 121.583 84.4132 120.946 83.8229 120.524L70.3004 110.932C70.1467 110.827 70.0154 110.692 69.9143 110.536C69.8131 110.38 69.7441 110.205 69.7113 110.021C69.6785 109.838 69.6826 109.65 69.7232 109.468C69.7639 109.286 69.8403 109.115 69.9481 108.963C70.0558 108.811 70.1927 108.682 70.3509 108.583C70.509 108.485 70.6851 108.419 70.869 108.389C71.0529 108.36 71.2408 108.367 71.4218 108.411C71.6029 108.455 71.7734 108.534 71.9234 108.644L85.4459 118.236C86.6362 119.087 87.4453 120.371 87.6995 121.811C87.9536 123.252 87.6325 124.735 86.8052 125.942C86.3918 126.545 85.8629 127.06 85.2491 127.457C84.6354 127.854 83.949 128.126 83.2295 128.256C82.894 128.317 82.5536 128.348 82.2126 128.347V128.347Z" fill="#F0E6E1"/>
<path d="M74.1972 132.96C73.2158 132.955 72.2528 132.693 71.4044 132.199L63.8618 127.851C63.5422 127.664 63.3097 127.357 63.2151 126.999C63.1204 126.641 63.1712 126.26 63.3564 125.939C63.5416 125.619 63.8462 125.384 64.2037 125.287C64.5612 125.19 64.9425 125.238 65.2645 125.421L72.8057 129.77C73.4432 130.13 74.1962 130.226 74.9038 130.038C75.6114 129.851 76.2177 129.394 76.5931 128.765C76.9498 128.163 77.0632 127.447 76.9102 126.764C76.7572 126.081 76.3493 125.482 75.7697 125.089L66.1328 118.413C65.9814 118.308 65.8521 118.175 65.7524 118.02C65.6526 117.865 65.5844 117.692 65.5515 117.511C65.5186 117.329 65.5217 117.143 65.5607 116.963C65.5997 116.783 65.6737 116.613 65.7786 116.461C65.8835 116.31 66.0172 116.181 66.1721 116.081C66.327 115.981 66.5 115.913 66.6812 115.88C66.8625 115.847 67.0484 115.85 67.2285 115.889C67.4085 115.928 67.5791 116.002 67.7306 116.107L77.366 122.781C78.3442 123.459 79.0806 124.43 79.468 125.555C79.8554 126.68 79.8735 127.899 79.5197 129.035C79.1659 130.171 78.4587 131.164 77.5011 131.87C76.5435 132.576 75.3855 132.958 74.1958 132.96H74.1972Z" fill="#F0E6E1"/>
<path d="M58.314 132.122C57.1664 132.124 56.0456 131.776 55.1013 131.123C54.1569 130.471 53.434 129.547 53.0291 128.473C52.6242 127.399 52.5565 126.227 52.8351 125.114C53.1137 124.001 53.7253 122.999 54.5883 122.243L58.3351 118.96C58.8918 118.471 59.5394 118.097 60.2409 117.859C60.9424 117.62 61.6839 117.522 62.4233 117.57C63.1626 117.618 63.8852 117.811 64.5499 118.139C65.2146 118.466 65.8083 118.921 66.2971 119.478C66.7858 120.035 67.16 120.682 67.3985 121.384C67.6369 122.085 67.7348 122.827 67.6866 123.566C67.6384 124.306 67.445 125.028 67.1176 125.693C66.7901 126.358 66.3349 126.951 65.778 127.44L62.0313 130.729C61.0029 131.63 59.6813 132.126 58.314 132.122V132.122ZM62.0552 120.363C61.3672 120.361 60.7023 120.611 60.1853 121.064L56.4371 124.351C56.1571 124.597 55.9283 124.895 55.7636 125.229C55.5989 125.563 55.5016 125.926 55.4773 126.298C55.453 126.67 55.5022 127.043 55.622 127.395C55.7418 127.748 55.9299 128.074 56.1755 128.354C56.6716 128.919 57.3721 129.264 58.1227 129.314C58.4944 129.338 58.8672 129.289 59.2199 129.169C59.5726 129.049 59.8983 128.861 60.1783 128.615L63.925 125.326C64.3572 124.945 64.6633 124.442 64.8026 123.884C64.9419 123.325 64.9078 122.737 64.7048 122.198C64.5018 121.66 64.1395 121.195 63.6662 120.867C63.1929 120.54 62.6309 120.364 62.0552 120.363V120.363Z" fill="#F0E6E1"/>
<path d="M49.8217 128.301C49.6969 128.301 49.5721 128.301 49.4472 128.29C48.7074 128.244 47.9841 128.051 47.3191 127.724C46.6541 127.396 46.0606 126.94 45.5728 126.382C45.0773 125.825 44.6967 125.176 44.4528 124.472C44.2089 123.767 44.1065 123.022 44.1514 122.277C44.1964 121.533 44.3878 120.806 44.7148 120.136C45.0418 119.466 45.4978 118.867 46.0568 118.374L52.3158 112.879C52.8726 112.39 53.5202 112.016 54.2217 111.778C54.9231 111.539 55.6647 111.441 56.404 111.489C57.1434 111.537 57.866 111.73 58.5307 112.058C59.1953 112.385 59.789 112.84 60.2778 113.397L59.2636 114.369L60.3171 113.443C60.8061 114 61.1806 114.647 61.4192 115.349C61.6579 116.05 61.7559 116.792 61.7079 117.531C61.6598 118.271 61.4665 118.994 61.1391 119.658C60.8116 120.323 60.3564 120.917 59.7995 121.405L53.5348 126.9C52.5098 127.805 51.1891 128.303 49.8217 128.301V128.301ZM56.0289 114.282C55.3418 114.28 54.6778 114.53 54.1618 114.983L47.9028 120.478C47.4837 120.856 47.1852 121.35 47.0443 121.896C46.9035 122.443 46.9265 123.019 47.1105 123.553C47.2946 124.087 47.6315 124.554 48.0794 124.898C48.5273 125.242 49.0664 125.446 49.6296 125.486C50.0015 125.511 50.3748 125.462 50.7277 125.342C51.0805 125.222 51.4058 125.032 51.6846 124.784L57.9437 119.29C58.2237 119.044 58.4526 118.746 58.6173 118.412C58.782 118.077 58.8792 117.714 58.9035 117.342C58.9277 116.97 58.8784 116.598 58.7585 116.245C58.6386 115.892 58.4504 115.566 58.2046 115.286L58.1639 115.24C57.9191 114.961 57.6215 114.733 57.2883 114.57C56.9551 114.406 56.5929 114.311 56.2225 114.288C56.1566 114.285 56.0906 114.283 56.0275 114.283L56.0289 114.282Z" fill="#F0E6E1"/>
<path d="M42.7434 123.152C42.62 123.152 42.4951 123.152 42.3689 123.14C41.6291 123.094 40.9058 122.902 40.2408 122.574C39.5758 122.247 38.9823 121.791 38.4945 121.233L38.3416 121.05C37.3556 119.926 36.8566 118.455 36.9542 116.963C37.0518 115.471 37.738 114.078 38.862 113.091L46.1184 106.721C46.6751 106.232 47.3227 105.858 48.0242 105.619C48.7257 105.381 49.4673 105.282 50.2067 105.33C50.9461 105.379 51.6688 105.572 52.3334 105.899C52.9981 106.227 53.5917 106.682 54.0804 107.239L54.239 107.42C55.2253 108.544 55.7246 110.015 55.627 111.507C55.5294 113 54.8429 114.393 53.7185 115.379L46.4621 121.749C45.4358 122.655 44.1128 123.154 42.7434 123.152V123.152ZM49.8315 108.125C49.1445 108.124 48.4804 108.373 47.9645 108.827L40.708 115.197C40.1421 115.693 39.7965 116.394 39.7473 117.145C39.6981 117.897 39.9493 118.637 40.4457 119.203L40.6042 119.384C41.101 119.948 41.8015 120.293 42.5519 120.341C43.3022 120.389 44.0411 120.138 44.6063 119.642L51.8627 113.272C52.1428 113.026 52.3717 112.728 52.5364 112.394C52.701 112.06 52.7983 111.696 52.8225 111.324C52.8467 110.953 52.7975 110.58 52.6776 110.227C52.5577 109.874 52.3694 109.549 52.1236 109.269L51.9679 109.09C51.7229 108.81 51.4248 108.582 51.0909 108.417C50.7569 108.253 50.3937 108.157 50.0223 108.134C49.9564 108.128 49.8946 108.125 49.8315 108.125V108.125Z" fill="#F0E6E1"/>
<path d="M36.6457 116.908C36.5222 116.908 36.396 116.908 36.2711 116.895C35.1506 116.825 34.0761 116.424 33.1836 115.742C32.291 115.061 31.6204 114.131 31.2565 113.069C30.8926 112.007 30.8517 110.86 31.1391 109.775C31.4264 108.69 32.0291 107.714 32.8709 106.971L37.4144 102.983C37.9711 102.494 38.6186 102.119 39.3201 101.881C40.0216 101.642 40.7632 101.544 41.5026 101.592C42.242 101.64 42.9647 101.833 43.6293 102.161C44.294 102.488 44.8877 102.944 45.3764 103.501L45.4255 103.557C45.9144 104.113 46.2889 104.761 46.5276 105.462C46.7662 106.164 46.8643 106.905 46.8162 107.645C46.7682 108.384 46.5749 109.107 46.2474 109.772C45.92 110.436 45.4648 111.03 44.9078 111.519L40.3643 115.507C39.3378 116.413 38.0149 116.911 36.6457 116.908ZM41.1344 104.386C40.4474 104.384 39.7834 104.633 39.2674 105.087L34.7239 109.075C34.4438 109.321 34.2149 109.619 34.0502 109.953C33.8855 110.288 33.7883 110.651 33.7641 111.023C33.7398 111.394 33.7891 111.767 33.909 112.12C34.0289 112.473 34.2172 112.799 34.463 113.078C34.7068 113.367 35.0056 113.605 35.3419 113.777C35.6783 113.95 36.0455 114.054 36.4223 114.083C36.7992 114.113 37.1781 114.067 37.5372 113.949C37.8962 113.831 38.2283 113.643 38.5141 113.396L43.0576 109.407C43.3377 109.162 43.5666 108.863 43.7313 108.529C43.896 108.195 43.9932 107.832 44.0174 107.46C44.0417 107.088 43.9924 106.715 43.8725 106.362C43.7526 106.01 43.5643 105.684 43.3185 105.404L43.2694 105.348C43.0244 105.067 42.7262 104.838 42.3919 104.674C42.0577 104.509 41.6942 104.413 41.3224 104.39C41.2537 104.388 41.1906 104.386 41.1274 104.386H41.1344Z" fill="#F0E6E1"/>
<path d="M34.1011 109.158C33.7975 109.158 33.502 109.06 33.2595 108.877L28.4663 105.23C28.3196 105.119 28.1964 104.979 28.1036 104.82C28.0108 104.661 27.9503 104.485 27.9255 104.303C27.9007 104.12 27.9121 103.934 27.959 103.756C28.0059 103.578 28.0875 103.411 28.1991 103.264C28.4243 102.968 28.758 102.774 29.1267 102.723C29.3092 102.699 29.4949 102.71 29.6731 102.757C29.8512 102.804 30.0184 102.885 30.165 102.997L34.9582 106.644C35.1943 106.821 35.3686 107.068 35.4561 107.35C35.5437 107.632 35.5402 107.934 35.446 108.214C35.3518 108.494 35.1718 108.737 34.9316 108.908C34.6914 109.079 34.4033 109.171 34.1081 109.169L34.1011 109.158Z" fill="#F0E6E1"/>
<path d="M98.6865 110.712C98.4091 110.712 98.138 110.63 97.9073 110.476C97.6767 110.321 97.497 110.102 97.3908 109.846C97.2847 109.59 97.2569 109.308 97.311 109.036C97.3651 108.764 97.4986 108.514 97.6948 108.318L105.566 100.444C105.83 100.188 106.184 100.047 106.552 100.05C106.92 100.053 107.272 100.201 107.532 100.461C107.792 100.721 107.94 101.073 107.943 101.441C107.946 101.809 107.805 102.163 107.549 102.427L99.6783 110.298C99.5483 110.429 99.3938 110.533 99.2236 110.604C99.0534 110.675 98.8709 110.712 98.6865 110.712V110.712Z" fill="#F0E6E1"/>
<mask id="path-16-inside-1" fill="white">
<rect x="87" y="76.5417" width="15.1649" height="35.7212" rx="3" transform="rotate(-38.9907 87 76.5417)"/>
</mask>
<rect x="87" y="76.5417" width="15.1649" height="35.7212" rx="3" transform="rotate(-38.9907 87 76.5417)" stroke="#F0E6E1" stroke-width="8" mask="url(#path-16-inside-1)"/>
<mask id="path-17-inside-2" fill="white">
<rect x="32.804" y="70" width="15.1649" height="35.7212" rx="3" transform="rotate(29.8951 32.804 70)"/>
</mask>
<rect x="32.804" y="70" width="15.1649" height="35.7212" rx="3" transform="rotate(29.8951 32.804 70)" stroke="#F0E6E1" stroke-width="8" mask="url(#path-17-inside-2)"/>
<defs>
<linearGradient id="paint0_linear" x1="29.5" y1="16" x2="29.5" y2="23" gradientUnits="userSpaceOnUse">
<stop stop-color="#F3F2F2"/>
<stop offset="1" stop-color="#F0E6E1"/>
</linearGradient>
<linearGradient id="paint1_linear" x1="35.5" y1="31" x2="35.5" y2="38" gradientUnits="userSpaceOnUse">
<stop stop-color="#F3F2F2"/>
<stop offset="1" stop-color="#F0E6E1"/>
</linearGradient>
<linearGradient id="paint2_linear" x1="52" y1="51" x2="52" y2="58" gradientUnits="userSpaceOnUse">
<stop stop-color="#F3F2F2"/>
<stop offset="1" stop-color="#F0E6E1"/>
</linearGradient>
<linearGradient id="paint3_linear" x1="55" y1="2" x2="55" y2="140" gradientUnits="userSpaceOnUse">
<stop stop-color="#F3F1F1"/>
<stop offset="1" stop-color="#F0E7E1"/>
</linearGradient>
</defs>
</svg>
