<svg width="235" height="201" viewBox="0 0 235 201" fill="none" xmlns="http://www.w3.org/2000/svg">
<path d="M234.656 60.6718L234.498 59.7896C234.469 59.6533 234.455 59.517 234.426 59.3843L217.946 19.5816V0H16.7814V19.5821L0.57373 59.3811C0.53793 59.539 0.516357 59.6969 0.487441 59.8506L0.336895 60.6718C0.114746 62.0955 0 63.5551 0 65.0431C0 75.6861 5.93834 84.9374 14.6875 89.6667V200.723H220.312V89.6667C229.055 84.9369 235 75.6856 235 65.0431C235 63.5551 234.878 62.0955 234.656 60.6718ZM223.59 58.75H187.617L183.293 29.6798H211.75L223.59 58.75ZM26.5779 9.78922H208.156V19.5821H26.5779V9.78922ZM179.176 68.5392L179.707 72.0927L176.809 75.9472C173.339 80.5729 168.031 83.2263 162.258 83.2263C156.485 83.2263 151.178 80.5729 147.707 75.9472L144.752 72.0101L144.58 68.5392H179.176ZM144.1 58.75L142.673 29.6798H173.389L177.721 58.75H144.1ZM134.777 68.5388L134.949 72.089L132.044 75.9472C128.573 80.5729 123.266 83.2263 117.5 83.2263C111.72 83.2263 106.42 80.5729 102.941 75.9472L99.9723 71.9848L100.144 68.5388H134.777ZM100.64 58.75L102.11 29.6798H132.876L134.296 58.75H100.64ZM57.3299 58.75L61.604 29.6798H92.3128L90.8353 58.75H57.3299ZM90.3336 68.5392L90.1542 72.1285L87.2855 75.9472C83.8073 80.5729 78.5074 83.2263 72.7343 83.2263C66.9612 83.2263 61.6613 80.5729 58.1832 75.9472L55.3576 72.1859L55.8956 68.5392H90.3336ZM23.2434 29.6798H51.7078L47.4337 58.75H11.4035L23.2434 29.6798ZM10.1261 68.5392H45.9985L45.2311 72.3437L42.5272 75.9477C39.049 80.5733 33.7491 83.2267 27.9687 83.2267C19.141 83.2267 11.7615 76.9015 10.1261 68.5392ZM190.938 190.941H151.766V156.661H156.664C159.368 156.661 161.562 154.473 161.562 151.77C161.562 149.066 159.368 146.879 156.664 146.879H151.766V112.598H190.938V190.941ZM210.517 190.941H210.516H200.727V102.816H141.977V190.941H24.4767V92.8011C25.6168 92.9443 26.7932 93.0201 27.9691 93.0201C37.1204 93.0201 45.2526 88.6239 50.352 81.8287C55.4582 88.6239 63.5836 93.0201 72.7348 93.0201C81.886 93.0201 90.0114 88.6239 95.1176 81.8287C100.216 88.6239 108.349 93.0201 117.5 93.0201C126.652 93.0201 134.77 88.6239 139.876 81.8287C144.982 88.6239 153.108 93.0201 162.259 93.0201C171.41 93.0201 179.535 88.6239 184.642 81.8287C189.748 88.6239 197.866 93.0201 207.017 93.0201C208.208 93.0201 209.369 92.9448 210.517 92.8011V190.941V190.941ZM207.016 83.2267C201.25 83.2267 195.943 80.5733 192.472 75.9477L189.625 72.1684L189.073 68.5397H224.859C223.224 76.9015 215.852 83.2267 207.016 83.2267Z" fill="url(#paint0_linear)"/>
<path d="M37.0199 119.955V188.487H134.941V119.955H37.0199ZM125.145 178.705H46.8165V129.737H125.145V178.705Z" fill="#E5DED1"/>
<path d="M115.32 154.221C113.964 154.221 112.738 154.766 111.856 155.655L102.067 165.451C101.177 166.334 100.632 167.56 100.632 168.908C100.632 171.612 102.827 173.799 105.523 173.799C106.879 173.799 108.105 173.254 108.987 172.365L118.776 162.583C119.666 161.693 120.211 160.467 120.211 159.112C120.211 156.415 118.024 154.221 115.32 154.221Z" fill="#E5DED1"/>
<path d="M115.32 134.642C113.964 134.642 112.738 135.187 111.856 136.076L82.4808 165.444C81.5987 166.326 81.0465 167.56 81.0465 168.908C81.0465 171.612 83.2409 173.799 85.9448 173.799C87.2933 173.799 88.5192 173.254 89.4014 172.365L118.776 142.997C119.666 142.115 120.211 140.882 120.211 139.533C120.211 136.829 118.024 134.642 115.32 134.642Z" fill="#E5DED1"/>
<circle cx="171.89" cy="128.745" r="8.9502" fill="#E5DED1"/>
<defs>
<linearGradient id="paint0_linear" x1="117.5" y1="0" x2="117.5" y2="200.723" gradientUnits="userSpaceOnUse">
<stop stop-color="#F3F2F2"/>
<stop offset="1" stop-color="#F0E5DE"/>
</linearGradient>
</defs>
</svg>
