<svg width="3602" height="562" viewBox="0 0 3602 562" fill="none" xmlns="http://www.w3.org/2000/svg">
<path d="M0.500031 192.5C0.500031 192.5 535.5 317 961 317C1386.5 317 1541.5 295.5 1834 254C2126.5 212.5 2487 114 2487 114C2487 114 2499.88 109.863 2522.75 103.169C2305.66 146.811 2021.65 197.759 1733.5 232C1533.24 255.797 1488 260.848 1238 276C1123.14 282.961 719.256 280.071 507 254C257.283 223.327 0.500031 146 0.500031 146V8.26963C0.500031 8.26963 233.5 167 787.5 192.5C997.288 202.156 1372.48 203.984 1733.5 172C2172.15 133.137 2607.97 67.1522 2804.59 35.5283C2909.58 15.7574 3027.44 0.127751 3136.5 0.499966C3429.5 1.49997 3602 83 3602 83V562H0.500031V192.5Z" fill="#EF0C15"/>
</svg>
