<svg width="1697" height="554" viewBox="0 0 1697 554" fill="none" xmlns="http://www.w3.org/2000/svg">
<path fill-rule="evenodd" clip-rule="evenodd" d="M1678.3 7.72998C1683.24 2.16823 1690.2 -0.392254 1697 0.0485576V94V94.357V554H0V94.357V94V57.2846C2.36005 55.9961 4.5473 54.2818 6.44739 52.1416L18 39.1292V38.4116L26.0541 29.357H26.0997L45.3004 7.72998C54.4507 -2.57666 70.5493 -2.57666 79.6996 7.72998L98.5997 29.0184C99.3782 30.32 100.3 31.5828 101.373 32.7909L118.553 52.1416C128.101 62.8964 144.899 62.8964 154.447 52.1416L166 39.1292V38.4116L174.054 29.357H174.1L193.3 7.72998C202.451 -2.57666 218.549 -2.57666 227.7 7.72998L246.6 29.0184C247.378 30.32 248.3 31.5828 249.373 32.7909L266.553 52.1416C276.101 62.8964 292.899 62.8964 302.447 52.1416L319.627 32.7909C320.607 31.6878 321.46 30.5391 322.194 29.357H323.054H323.1L342.3 7.72998C351.451 -2.57666 367.549 -2.57666 376.7 7.72998L395.6 29.0184C396.378 30.32 397.3 31.5828 398.373 32.7909L415.553 52.1416C425.101 62.8964 441.899 62.8964 451.447 52.1416L463 39.1292V38.4116L471.054 29.357H471.1L490.3 7.72998C499.451 -2.57666 515.549 -2.57666 524.7 7.72998L543.6 29.0184C544.378 30.32 545.3 31.5828 546.373 32.7909L563.553 52.1416C573.101 62.8964 589.899 62.8964 599.447 52.1416L616.627 32.7909C617.607 31.6878 618.46 30.5391 619.194 29.357H620.054H620.1L639.3 7.72998C648.451 -2.57666 664.549 -2.57666 673.7 7.72998L692.6 29.0184C693.378 30.32 694.3 31.5828 695.373 32.7909L712.553 52.1416C722.101 62.8964 738.899 62.8964 748.447 52.1416L760 39.1292V38.4116L768.054 29.357H768.1L787.3 7.72998C796.451 -2.57666 812.549 -2.57666 821.7 7.72998L840.6 29.0184C841.378 30.32 842.3 31.5828 843.373 32.7909L860.553 52.1416C870.101 62.8964 886.899 62.8964 896.447 52.1416L913.627 32.7909C914.607 31.6878 915.46 30.5391 916.194 29.357H917.054H917.1L936.3 7.72998C945.451 -2.57666 961.549 -2.57666 970.7 7.72998L989.6 29.0184C990.378 30.32 991.3 31.5828 992.373 32.7909L1009.55 52.1416C1019.1 62.8964 1035.9 62.8964 1045.45 52.1416L1057 39.1292V38.4116L1065.05 29.357H1065.1L1084.3 7.72998C1093.45 -2.57666 1109.55 -2.57666 1118.7 7.72998L1137.6 29.0184C1138.38 30.32 1139.3 31.5828 1140.37 32.7909L1157.55 52.1416C1167.1 62.8964 1183.9 62.8964 1193.45 52.1416L1210.63 32.7909C1211.61 31.6878 1212.46 30.5391 1213.19 29.357H1214.05H1214.1L1233.3 7.72998C1242.45 -2.57666 1258.55 -2.57666 1267.7 7.72998L1286.6 29.0184C1287.38 30.32 1288.3 31.5828 1289.37 32.7909L1306.55 52.1416C1316.1 62.8964 1332.9 62.8964 1342.45 52.1416L1354 39.1292V38.4116L1362.05 29.357H1362.1L1381.3 7.72998C1390.45 -2.57666 1406.55 -2.57666 1415.7 7.72998L1434.6 29.0184C1435.38 30.32 1436.3 31.5828 1437.37 32.7909L1454.55 52.1416C1464.1 62.8964 1480.9 62.8964 1490.45 52.1416L1507.63 32.7909C1508.61 31.6878 1509.46 30.5391 1510.19 29.357H1511.05H1511.1L1530.3 7.72998C1539.45 -2.57666 1555.55 -2.57666 1564.7 7.72998L1583.6 29.0184C1584.38 30.32 1585.3 31.5828 1586.37 32.7909L1603.55 52.1416C1613.1 62.8964 1629.9 62.8964 1639.45 52.1416L1651 39.1292V38.4116L1659.05 29.357H1659.1L1678.3 7.72998Z" fill="#EFC70C"/>
</svg>
