<svg xmlns="http://www.w3.org/2000/svg" xmlns:xlink="http://www.w3.org/1999/xlink" width="128" height="128" viewBox="0 0 128 128"><defs><clipPath id="b"><rect width="128" height="128"/></clipPath></defs><g id="a" clip-path="url(#b)"><path d="M18.012,128.692l32.635-17.577,10.7-2.9,14.35-3.3,14.571-2.826,14.538-2.355s9.576-1.116,13.279,0,9.582,3.9,13.37,1.534c3.135-1.533,3.788-4.458,3.919-7.942,1.437-6.827,3.527-13.933.784-28.841-3.919-13.236-6.682-16.993-15.284-26.678s-15.546-10.8-19.126-12.48c-7.262-1.8-10.6-2.531-16.558-1.413s-6.119,4.067-7.286,5.887c-.532,3.2,2.212,6.958,2.212,6.958Z" transform="translate(-14.9 -23.385)" fill="#ec984e" stroke="#707070" stroke-width="1"/><path d="M64.306,34.229s.742-4.087,3.464-5.6,5.806-1.975,9.163-2.194,11.456,2.194,11.456,2.194a48.055,48.055,0,0,1,7.128,2.927c2.4,1.4,8.756,5.065,6.7,2.876-6.181-4.893-6.867-5.867-14.422-8.327a79.122,79.122,0,0,0-11.674-2.742,25.409,25.409,0,0,0-4.679.424,14.783,14.783,0,0,0-4.52,1.414A7.325,7.325,0,0,0,63.455,29.5C62.91,31.311,64.306,34.229,64.306,34.229Z" transform="translate(-0.063 -23.348)" fill="#fff"/><path d="M66.7,32.466c3.918-2.356,2.374-1.488,5.14-2.013s3.33-.309,6.322,0,2.01-.18,5.792,1.026,3.917.242,9.336,3.8,7.056,4.548,12.193,10.642,5.983,7.115,8.354,13.735A26.278,26.278,0,0,1,114.964,72.4s-1.525,5.99-1.129,10.28c.34,4.045.585,1.716,1.129,6.62-.116,2.975,3.491,7,4.6,8.581.314.436-.648.233-1.716-.49-3.1-2.1-5.271-3.831-5.271-3.831l-7.6,1.624,2.82-9.439a72.833,72.833,0,0,0-.513-12.231c-.847-6.094-.677-6.435-3.387-12.374s-3.089-6.622-7.451-11.384-5.145-4.477-10-7.663-5.605-3.284-9.98-4.676-4.757-1.023-7.712-1.818C63.356,39.4,61.761,36.715,66.7,32.466Z" transform="translate(0.9 -27.171)" fill="#c6704f"/><ellipse cx="2.5" cy="2" rx="2.5" ry="2" transform="matrix(0.999, -0.035, 0.035, 0.999, 70.449, 2.787)" fill="#fff"/><path d="M24.6,123.7c1.032-7.78.416-14.7,5.411-27.5s6.036-12.48,14.569-23.691A178.307,178.307,0,0,1,64.141,51.358S84.832,33.833,89.116,33.166s11.465,1.869,15.818,4.231,12.209,7.238,14.985,10.576a42.165,42.165,0,0,1,8.741,15.653c2.6,8.144,1.881,10.114,1.665,16.922s-2.113,6.4-2.529,10.312,3.718,4.738,1.749,6.073-5.359-.732-9.626-.732-4.579-.74-8.325,0-3.746,1.163-6.66,2.961-2.658,3.449-5,4.231-6.5-1.989-6.5-1.989-5.324-2.893-7.956-2.242-4.122.835-4.864,4.231,1.9,7.162,1.9,9.353c0,.05,1.129,5.436-.542,7.144s-4.146,1.8-6.793.595S72.317,118.64,70.708,115c-.558-4.848,1.909-5.643,0-7.709s-8.2-2.364-8.2-2.364L55.8,107.3S51.347,111.25,50.116,115s-1.945,3.619-1.329,7.311,1.847,3.379,2.463,6.759,1.232,4.443,0,6.759-2.463,2.879-4.926,2.5-4.064-1.252-4.926-4.005,1.478-4.005,1.478-7.009.538-4.1-1.478-5.007-3.883-.064-6.73.687-2.489.886-4.659,2.316-3.94,2.72-3.94,2.72S23.565,131.48,24.6,123.7Z" transform="translate(-21.755 -24.249)" fill="#ffcd01" stroke="#707070" stroke-width="1"/><g transform="translate(106.293 66.58)" fill="#ec984e"><path d="M 6.766259670257568 12.08955764770508 C 4.31110954284668 12.08955764770508 1.829179644584656 11.86558723449707 0.3058596253395081 10.24081802368164 C -0.8091343641281128 9.051576614379883 -1.295968532562256 7.185028076171875 -1.141341090202332 4.692268848419189 C -0.7486974000930786 2.957408428192139 0.03367647156119347 1.694223642349243 1.184439659118652 0.9373375773429871 C 2.085089683532715 0.3449675738811493 3.234099626541138 0.04460756108164787 4.599549770355225 0.04460756108164787 C 5.235650062561035 0.04460756108164787 5.906954765319824 0.1075252443552017 6.65092945098877 0.2369386106729507 C 8.767821311950684 0.8738033175468445 10.55673122406006 1.772757411003113 11.82571983337402 2.837547540664673 C 13.21617984771729 4.00427770614624 13.92119979858398 5.305587768554688 13.92119979858398 6.70532751083374 C 13.92119979858398 9.737607955932617 10.0750093460083 12.08955764770508 6.766259670257568 12.08955764770508 Z" stroke="none"/><path d="M 4.599549770355225 0.5446071624755859 C 1.726458549499512 0.5446071624755859 0.01029014587402344 1.924921035766602 -0.6447420120239258 4.763562679290771 C -0.7829809188842773 7.092835426330566 -0.3405780792236328 8.820298194885254 0.6706094741821289 9.89882755279541 C 2.063739776611328 11.38473796844482 4.423609733581543 11.58955764770508 6.766259670257568 11.58955764770508 C 8.338829040527344 11.58955764770508 10.05862998962402 11.02359771728516 11.36669921875 10.07561779022217 C 12.13398933410645 9.519547462463379 13.42119979858398 8.342267990112305 13.42119979858398 6.70532751083374 C 13.42119979858398 5.460297584533691 12.77626991271973 4.287857532501221 11.50432968139648 3.220577239990234 C 10.29260063171387 2.203828811645508 8.575473785400391 1.341314315795898 6.535724639892578 0.7244386672973633 C 5.832209587097168 0.6034688949584961 5.19824743270874 0.5446071624755859 4.599549770355225 0.5446071624755859 M 4.599551200866699 -0.4553956985473633 C 5.391274452209473 -0.4553956985473633 6.139752864837646 -0.3606204986572266 6.766259670257568 -0.2504825592041016 C 10.90860939025879 0.9895076751708984 14.42119979858398 3.404287338256836 14.42119979858398 6.70532751083374 C 14.42119979858398 10.00637722015381 10.39235973358154 12.58955764770508 6.766259670257568 12.58955764770508 C 3.140159606933594 12.58955764770508 -2.128200531005859 12.22179794311523 -1.637850761413574 4.621337413787842 C -0.711400032043457 0.4523429870605469 2.149996757507324 -0.4553956985473633 4.599551200866699 -0.4553956985473633 Z" stroke="none" fill="#707070"/></g><g transform="matrix(0.996, -0.087, 0.087, 0.996, 57.717, 21.142)" fill="#b12525"><path d="M 9.874282836914063 20.46109580993652 C 7.343262195587158 20.46109580993652 4.959152221679688 19.43476486206055 3.161152362823486 17.57116508483887 C 1.469952464103699 15.81826496124268 0.5000024437904358 13.52650547027588 0.5000024437904358 11.28352546691895 C 0.5000024437904358 10.07055568695068 0.7299624085426331 6.956535339355469 2.859992504119873 4.24469518661499 C 3.760122537612915 3.098695278167725 4.879312515258789 2.200245380401611 6.18646240234375 1.574295282363892 C 7.675072193145752 0.8614452481269836 9.416152000427246 0.4999952614307404 11.36133289337158 0.4999952614307404 C 11.80348205566406 0.4999952614307404 12.2629222869873 0.5188252925872803 12.72687244415283 0.5559552907943726 C 16.9750919342041 0.8959052562713623 19.79049301147461 2.040915250778198 21.33393287658691 4.05641508102417 C 22.74827194213867 5.903305053710938 22.93896293640137 8.329215049743652 22.93896293640137 10.45867538452148 C 22.93896293640137 12.51456546783447 21.27609252929688 14.99997520446777 18.49078178405762 17.10716438293457 C 15.75623226165771 19.17594528198242 12.45458221435547 20.46109580993652 9.874282836914063 20.46109580993652 Z" stroke="none"/><path d="M 11.36133289337158 0.9999961853027344 C 9.49149227142334 0.9999961853027344 7.82307243347168 1.344945907592773 6.402412414550781 2.025245666503906 C 5.165071487426758 2.617774963378906 4.105522155761719 3.468416213989258 3.253202438354492 4.553535461425781 C 1.842323303222656 6.349795341491699 1.000001907348633 8.86568546295166 1.000001907348633 11.28352546691895 C 1.000001907348633 13.39821529388428 1.918863296508789 15.56343460083008 3.52098274230957 17.2240047454834 C 5.223901748657227 18.98904609680176 7.480212211608887 19.96109580993652 9.874282836914063 19.96109580993652 C 12.3510627746582 19.96109580993652 15.53712272644043 18.71474456787109 18.18911170959473 16.70841598510742 C 19.47687149047852 15.73418521881104 20.55084228515625 14.64401531219482 21.2949333190918 13.55578517913818 C 22.04336166381836 12.46118545532227 22.43896293640137 11.39022541046143 22.43896293640137 10.45867538452148 C 22.43896293640137 8.413015365600586 22.26051330566406 6.08875560760498 20.93696212768555 4.360404968261719 C 19.48455238342285 2.463785171508789 16.78596305847168 1.382366180419922 12.68699264526367 1.054355621337891 C 12.23617267608643 1.018285751342773 11.79016208648682 0.9999961853027344 11.36133289337158 0.9999961853027344 M 11.36133766174316 0 C 11.81403160095215 0 12.28135871887207 0.01870155334472656 12.76675224304199 0.05754470825195313 C 22.44155311584473 0.8317451477050781 23.43896293640137 5.669284820556641 23.43896293640137 10.45867538452148 C 23.43896293640137 15.24807548522949 15.56980228424072 20.96109580993652 9.874282836914063 20.96109580993652 C 4.17877197265625 20.96109580993652 1.9073486328125e-06 16.07291412353516 1.9073486328125e-06 11.28352546691895 C 1.9073486328125e-06 6.734414100646973 2.790979385375977 0 11.36133766174316 0 Z" stroke="none" fill="#707070"/></g><g transform="translate(39.119 50.672)" fill="#cb4242"><path d="M 8.016167640686035 18.53085517883301 C 5.85380744934082 18.53085517883301 2.883467674255371 18.06891441345215 1.012567520141602 15.86822509765625 C -0.5120224356651306 14.07488536834717 -1.00630247592926 11.45609474182129 -0.4565224349498749 8.0845947265625 C -0.1604424268007278 6.268915176391602 0.5260275602340698 4.742825031280518 1.583817601203918 3.54873514175415 C 2.504547595977783 2.509345054626465 3.740517616271973 1.683525085449219 5.257377624511719 1.094195127487183 C 8.05313777923584 0.008005139417946339 11.35440731048584 -0.1384448558092117 14.21500778198242 -0.1384448558092117 C 16.60217666625977 -0.1384448558092117 18.61394691467285 0.7813151478767395 20.03282737731934 2.521405220031738 C 21.29380798339844 4.067865371704102 22.01701736450195 6.229804992675781 22.01701736450195 8.45290470123291 C 22.01701736450195 9.409995079040527 21.53604698181152 10.53777503967285 20.62610816955566 11.71434497833252 C 19.75367736816406 12.84241485595703 18.5109977722168 13.9907751083374 17.03241729736328 15.0352954864502 C 15.57947731018066 16.06170463562012 13.98094749450684 16.93164443969727 12.40965747833252 17.55106544494629 C 10.78366756439209 18.19204521179199 9.26441764831543 18.53085517883301 8.016167640686035 18.53085517883301 Z" stroke="none"/><path d="M 14.21500778198242 0.3615550994873047 C 11.40074729919434 0.3615550994873047 8.157227516174316 0.5039749145507813 5.438447952270508 1.560264587402344 C 2.331707000732422 2.767285346984863 0.5648670196533203 4.927735328674316 0.036956787109375 8.165064811706543 C -0.4881229400634766 11.38515472412109 -0.0317230224609375 13.86790466308594 1.39350700378418 15.54436492919922 C 3.14063835144043 17.5994758605957 5.959277153015137 18.03085517883301 8.016167640686035 18.03085517883301 C 10.39095783233643 18.03085517883301 13.81680774688721 16.69473457336426 16.74392700195313 14.62691497802734 C 19.68807792663574 12.54707527160645 21.51701736450195 10.18133544921875 21.51701736450195 8.45290470123291 C 21.51701736450195 6.342935562133789 20.83480834960938 4.296154975891113 19.64531707763672 2.837385177612305 C 18.32460784912109 1.217685699462891 16.44683837890625 0.3615550994873047 14.21500778198242 0.3615550994873047 M 14.21500778198242 -0.6384449005126953 C 19.69318771362305 -0.6384449005126953 22.51701736450195 3.914785385131836 22.51701736450195 8.45290470123291 C 22.51701736450195 12.9910249710083 13.49434757232666 19.03085517883301 8.016167640686035 19.03085517883301 C 2.537986755371094 19.03085517883301 -2.278322219848633 16.14999580383301 -0.9500026702880859 8.004125595092773 C 0.3783168792724609 -0.1417446136474609 8.736827850341797 -0.6384449005126953 14.21500778198242 -0.6384449005126953 Z" stroke="none" fill="#707070"/></g><g transform="translate(66.164 55.178)" fill="#46bf00"><path d="M 1.8235684633255 6.953983306884766 C 0.2188684642314911 6.953983306884766 0.2188684642314911 6.508583068847656 0.2188684642314911 6.269293308258057 C 0.2188684642314911 5.420243263244629 0.7599884867668152 3.804963111877441 1.794198513031006 2.360493183135986 C 2.45689845085144 1.434913158416748 3.841768503189087 -0.117846854031086 5.670938491821289 -0.117846854031086 C 7.344578266143799 -0.117846854031086 8.89103889465332 0.1795731484889984 10.0254487991333 0.7196231484413147 C 10.78722858428955 1.082273125648499 11.69530868530273 1.714473128318787 11.69530868530273 2.66679310798645 C 11.69530868530273 3.629723072052002 11.30450820922852 4.590403079986572 10.62311840057373 5.302493095397949 C 9.800268173217773 6.162413120269775 8.602378845214844 6.616943359375 7.158948421478271 6.616943359375 C 6.141728401184082 6.616943359375 5.113198280334473 6.711703300476074 4.118528366088867 6.803353309631348 C 3.277738571166992 6.880813121795654 2.483588457107544 6.953983306884766 1.8235684633255 6.953983306884766 Z" stroke="none"/><path d="M 5.670938491821289 0.3821530342102051 C 4.065348625183105 0.3821530342102051 2.807578086853027 1.804013252258301 2.200738906860352 2.651563167572021 C 1.238228797912598 3.995883226394653 0.7188682556152344 5.518843173980713 0.7188682556152344 6.269293308258057 C 0.7188682556152344 6.283600807189941 0.7194318771362305 6.295181751251221 0.7201910018920898 6.304289817810059 C 0.7936687469482422 6.345441818237305 1.059894561767578 6.453983306884766 1.823568344116211 6.453983306884766 C 2.460598945617676 6.453983306884766 3.243638038635254 6.381843090057373 4.072658538818359 6.305453300476074 C 5.078578472137451 6.212782859802246 6.118748664855957 6.116943359375 7.158948421478271 6.116943359375 C 8.462648391723633 6.116943359375 9.535618782043457 5.715773105621338 10.2618579864502 4.956812858581543 C 10.85507869720459 4.336863040924072 11.19530868530273 3.502182960510254 11.19530868530273 2.666793346405029 C 11.19530868530273 1.428393363952637 8.665458679199219 0.3821530342102051 5.670938491821289 0.3821530342102051 M 5.670938491821289 -0.6178464889526367 C 9.156918525695801 -0.6178464889526367 12.19530868530273 0.6499729156494141 12.19530868530273 2.666793346405029 C 12.19530868530273 4.683603286743164 10.64492797851563 7.116943359375 7.158948421478271 7.116943359375 C 5.287446975708008 7.116943359375 3.280636787414551 7.453985691070557 1.823572158813477 7.453985691070557 C 0.5666131973266602 7.453985691070557 -0.2811317443847656 7.203352451324463 -0.2811317443847656 6.269293308258057 C -0.2811317443847656 4.252472877502441 2.184958457946777 -0.6178464889526367 5.670938491821289 -0.6178464889526367 Z" stroke="none" fill="#707070"/></g><g transform="translate(83.957 42.584)" fill="#46bf00"><path d="M 8.031485557556152 5.830751419067383 C 7.352935791015625 5.830751419067383 6.386985778808594 5.571811676025391 5.452846050262451 5.321401596069336 C 4.474105834960938 5.05903148651123 3.549645900726318 4.811211585998535 2.830495834350586 4.811211585998535 C 2.007625818252563 4.811211585998535 1.15846586227417 4.399481296539307 0.500735878944397 3.681601524353027 C -0.1757841408252716 2.94318151473999 -0.5637941360473633 1.968341469764709 -0.5637941360473633 1.007031559944153 C -0.5637941360473633 0.6119015216827393 -0.4459241330623627 0.1185615137219429 0.473225861787796 -0.1917684823274612 C 1.249295830726624 -0.4537884891033173 2.310655832290649 -0.4873884916305542 3.148615837097168 -0.4873884916305542 C 3.42525577545166 -0.4873884916305542 3.694155931472778 -0.4834384918212891 3.954205751419067 -0.4796084761619568 C 4.18971586227417 -0.4761484861373901 4.412165641784668 -0.472878485918045 4.619765758514404 -0.472878485918045 C 5.357336044311523 -0.472878485918045 6.375985622406006 0.3204215168952942 7.278195858001709 1.597431540489197 C 8.172776222229004 2.863651514053345 8.750805854797363 4.321391582489014 8.750805854797363 5.311211585998535 C 8.750805854797363 5.606001377105713 8.652545928955078 5.679231643676758 8.615546226501465 5.706791400909424 C 8.539666175842285 5.763341426849365 8.37674617767334 5.830751419067383 8.031485557556152 5.830751419067383 Z" stroke="none"/><path d="M 3.148615837097168 0.01261138916015625 C 2.348896026611328 0.01261138916015625 1.34026575088501 0.04323148727416992 0.6331758499145508 0.2819614410400391 C -0.06379413604736328 0.5172815322875977 -0.06379413604736328 0.8003416061401367 -0.06379413604736328 1.007031440734863 C -0.06379413604736328 2.705441474914551 1.342775821685791 4.311211585998535 2.830495834350586 4.311211585998535 C 3.615495681762695 4.311211585998535 4.570856094360352 4.56731128692627 5.582305908203125 4.838451385498047 C 6.485176086425781 5.08048152923584 7.41878604888916 5.330751419067383 8.031485557556152 5.330751419067383 C 8.131839752197266 5.330751419067383 8.202863693237305 5.323585033416748 8.25079345703125 5.315630912780762 C 8.250801086425781 5.314177989959717 8.250805854797363 5.312705516815186 8.250805854797363 5.311211585998535 C 8.250805854797363 4.43161153793335 7.695836067199707 3.05510139465332 6.869825839996338 1.885941505432129 C 5.967535972595215 0.6088113784790039 5.070965766906738 0.02712154388427734 4.619765758514404 0.02712154388427734 C 4.408495903015137 0.02712154388427734 4.184266090393066 0.02382135391235352 3.946866035461426 0.02033138275146484 C 3.688615798950195 0.01654148101806641 3.421576023101807 0.01261138916015625 3.148615837097168 0.01261138916015625 M 3.148616313934326 -0.9873900413513184 C 3.681032180786133 -0.9873900413513184 4.189103126525879 -0.9728784561157227 4.619765758514404 -0.9728784561157227 C 6.623166084289551 -0.9728784561157227 9.250805854797363 3.017231464385986 9.250805854797363 5.311211585998535 C 9.250805854797363 6.075821399688721 8.759964942932129 6.330753803253174 8.03148078918457 6.330753803253174 C 6.574380397796631 6.330753803253174 4.166136741638184 5.311211585998535 2.830495834350586 5.311211585998535 C 0.8270959854125977 5.311211585998535 -1.063794136047363 3.301011562347412 -1.063794136047363 1.007031440734863 C -1.063794136047363 -0.7938132286071777 1.20428466796875 -0.9873900413513184 3.148616313934326 -0.9873900413513184 Z" stroke="none" fill="#707070"/></g><g transform="translate(43.875 32.361)" fill="#46bf00"><path d="M 6.542719841003418 8.824071884155273 C 5.460219860076904 8.824071884155273 4.158259868621826 8.69879150390625 2.709359645843506 7.769651412963867 C 1.119049668312073 6.749821662902832 -0.03819034621119499 5.317761421203613 -0.3107703328132629 4.032331466674805 C -0.3893203437328339 3.661871433258057 -0.423730343580246 3.130401611328125 -0.1415603458881378 2.702221632003784 C 0.8222396373748779 1.239681482315063 3.53119969367981 1.126021504402161 4.338509559631348 1.126021504402161 C 5.815879821777344 1.126021504402161 6.829359531402588 1.322171568870544 7.527989864349365 1.743301510810852 C 8.340919494628906 2.233341455459595 8.736089706420898 3.075601577758789 8.736089706420898 4.318221569061279 C 8.736089706420898 5.885261535644531 9.52924919128418 7.141291618347168 10.05410003662109 7.972431659698486 C 10.19237422943115 8.191403388977051 10.36996173858643 8.472620010375977 10.45005416870117 8.648564338684082 C 10.3598461151123 8.665058135986328 10.21091365814209 8.681131362915039 9.973079681396484 8.681131362915039 C 9.341909408569336 8.681131362915039 8.737659454345703 8.719121932983398 8.15330982208252 8.755871772766113 C 7.59550952911377 8.79094123840332 7.068649768829346 8.824071884155273 6.542719841003418 8.824071884155273 Z" stroke="none"/><path d="M 4.338509559631348 1.626021385192871 C 2.805039405822754 1.626021385192871 0.9325094223022461 1.981021881103516 0.2759199142456055 2.977351665496826 C 0.08877944946289063 3.261331558227539 0.1195697784423828 3.651391506195068 0.178349494934082 3.928601741790771 C 0.4204597473144531 5.070401668548584 1.519889831542969 6.412891387939453 2.979259490966797 7.348751544952393 C 4.315909862518311 8.205902099609375 5.481859683990479 8.324061393737793 6.54272985458374 8.324061393737793 C 7.052959442138672 8.324061393737793 7.572209358215332 8.291411399841309 8.121939659118652 8.256851196289063 C 8.598110198974609 8.226908683776855 9.087361335754395 8.196149826049805 9.597147941589355 8.185256958007813 C 9.041983604431152 7.305404663085938 8.236089706420898 5.995121955871582 8.236089706420898 4.318221569061279 C 8.236089706420898 2.916121482849121 7.684649467468262 2.421551704406738 7.269859313964844 2.171521186828613 C 6.660929679870605 1.804451942443848 5.702079772949219 1.626021385192871 4.338509559631348 1.626021385192871 M 4.338509559631348 0.6260213851928711 C 7.002019882202148 0.6260213851928711 9.236089706420898 1.232791900634766 9.236089706420898 4.318221569061279 C 9.236089706420898 7.403651237487793 12.63659000396729 9.181131362915039 9.973079681396484 9.181131362915039 C 8.767807006835938 9.181131362915039 7.649575233459473 9.324066162109375 6.542733192443848 9.324066162109375 C 5.203594207763672 9.324066162109375 3.881000518798828 9.11496639251709 2.439449310302734 8.190531730651855 C -0.1935901641845703 6.502031326293945 -1.508600234985352 3.867961406707764 -0.5590705871582031 2.427091598510742 C 0.3904600143432617 0.986231803894043 2.705780029296875 0.6260213851928711 4.338509559631348 0.6260213851928711 Z" stroke="none" fill="#707070"/></g><g transform="translate(16.902 60.114)" fill="#46bf00"><path d="M 3.754430055618286 7.20194149017334 C 1.464969992637634 7.20194149017334 1.348999977111816 4.037041664123535 1.348999977111816 3.402591466903687 C 1.348999977111816 2.707491397857666 1.894549965858459 2.153551578521729 2.970510005950928 1.756141543388367 C 3.863640069961548 1.4262615442276 5.121180057525635 1.229321479797363 6.33443021774292 1.229321479797363 C 6.980199813842773 1.229321479797363 7.152520179748535 1.344961524009705 7.196630001068115 1.394681453704834 C 7.312880039215088 1.525711536407471 7.254799842834473 2.009951591491699 7.198629856109619 2.478261470794678 C 7.150390148162842 2.880521535873413 7.090340137481689 3.381151437759399 7.090340137481689 3.941361427307129 C 7.090340137481689 5.739251613616943 5.593860149383545 7.20194149017334 3.754430055618286 7.20194149017334 Z" stroke="none"/><path d="M 6.334429740905762 1.729321479797363 C 5.177149772644043 1.729321479797363 3.984379768371582 1.91469144821167 3.143750190734863 2.225171566009521 C 2.284619808197021 2.542501449584961 1.848999977111816 2.938641548156738 1.848999977111816 3.402591705322266 C 1.848999977111816 4.371411323547363 2.036689758300781 5.236481666564941 2.377480030059814 5.838431358337402 C 2.815680027008057 6.612431526184082 3.373199939727783 6.70194149017334 3.754429817199707 6.70194149017334 C 5.318160057067871 6.70194149017334 6.590339660644531 5.46355152130127 6.590339660644531 3.941361427307129 C 6.590339660644531 3.351271629333496 6.652359962463379 2.83419132232666 6.702189922332764 2.41871166229248 C 6.727882385253906 2.204508304595947 6.760586738586426 1.931819915771484 6.764567375183105 1.756349086761475 C 6.677360534667969 1.742417335510254 6.540560245513916 1.729321479797363 6.334429740905762 1.729321479797363 M 6.334429740905762 0.7293214797973633 C 8.452939987182617 0.7293214797973633 7.590340137481689 1.86445140838623 7.590340137481689 3.941361427307129 C 7.590340137481689 6.018271446228027 5.872940063476563 7.70194149017334 3.754429817199707 7.70194149017334 C 1.635910034179688 7.70194149017334 0.8489999771118164 5.479501724243164 0.8489999771118164 3.402591705322266 C 0.8489999771118164 1.325681686401367 4.215919971466064 0.7293214797973633 6.334429740905762 0.7293214797973633 Z" stroke="none" fill="#707070"/></g><g transform="translate(3.473 76.839)" fill="#46bf00"><path d="M 4.293459415435791 10.91702461242676 C 4.26967191696167 9.431541442871094 4.443542003631592 8.629295349121094 4.552348136901855 8.127275466918945 C 4.780178070068359 7.076056003570557 4.644078254699707 6.795156002044678 3.512098073959351 5.980405807495117 L 3.420948266983032 5.914805889129639 L 3.310508251190186 5.894485950469971 C 1.053958177566528 5.47920560836792 -0.6590718626976013 4.045805931091309 -2.642591953277588 2.386075735092163 C -2.64820408821106 2.3813796043396 -2.653831005096436 2.376671314239502 -2.659447193145752 2.371971845626831 C -0.3278387486934662 0.7335662245750427 0.9833119511604309 0.5123658180236816 1.874418139457703 0.5123658180236816 C 2.452248096466064 0.5123658180236816 2.959848165512085 0.6194858551025391 3.497238159179688 0.7328958511352539 C 3.667678117752075 0.7688658237457275 3.843908071517944 0.8060658574104309 4.021798133850098 0.8394058346748352 L 4.325878143310547 0.896405816078186 L 4.512598037719727 0.6497258543968201 C 4.656978130340576 0.4589658379554749 4.792598247528076 0.2890758216381073 4.912258148193359 0.1391758322715759 C 5.917068481445313 -1.119519948959351 6.168875217437744 -1.583893775939941 5.793427467346191 -5.124780654907227 C 7.301688671112061 -4.475435733795166 8.891769409179688 -3.535667419433594 10.17393779754639 -2.525574207305908 C 11.80902862548828 -1.237444162368774 12.78165817260742 0.05226583033800125 12.84243774414063 1.012865781784058 C 12.88464832305908 1.679845809936523 12.48706817626953 2.222225904464722 11.62698841094971 2.670995712280273 L 10.04931831359863 3.494205713272095 L 11.82485771179199 3.613165855407715 C 13.34084033966064 3.714740753173828 13.69930458068848 3.915976285934448 13.77426242828369 3.976378917694092 C 13.7679615020752 4.028940200805664 13.73765277862549 4.127981185913086 13.71657848358154 4.196846008300781 C 13.64970111846924 4.415367603302002 13.54043102264404 4.772416591644287 13.66930770874023 5.140231609344482 C 13.30315399169922 5.430242538452148 12.60846042633057 5.514417171478271 11.93295860290527 5.596255779266357 C 10.98104858398438 5.711585998535156 9.996738433837891 5.830835819244385 9.499678611755371 6.550885677337646 C 9.210441589355469 6.969882965087891 9.144478797912598 7.504183292388916 9.29871654510498 8.182591438293457 C 9.199846267700195 10.00634479522705 8.054911613464355 10.27619361877441 5.709897994995117 10.6629056930542 C 5.249758243560791 10.73878192901611 4.778478622436523 10.81649875640869 4.293459415435791 10.91702461242676 Z" stroke="none"/><path d="M 6.376068592071533 -4.307031631469727 C 6.623340129852295 -1.489086627960205 6.34007740020752 -0.8479785919189453 5.303028106689453 0.4511146545410156 C 5.179498195648193 0.6058650016784668 5.051758289337158 0.7658748626708984 4.911278247833252 0.9514846801757813 L 4.537837982177734 1.444864749908447 L 3.929668426513672 1.330854892730713 C 3.74616813659668 1.296454906463623 3.567078590393066 1.258655071258545 3.393888473510742 1.222105026245117 C 2.882787704467773 1.114224910736084 2.40003776550293 1.012334823608398 1.874467849731445 1.012364864349365 C 1.182961463928223 1.012407779693604 0.07986545562744141 1.173975467681885 -1.828883171081543 2.414119243621826 C -0.1020326614379883 3.849681854248047 1.456937789916992 5.044964790344238 3.401008605957031 5.402744770050049 L 3.621888160705566 5.443394660949707 L 3.804178237915039 5.574594974517822 C 5.019268035888672 6.449154853820801 5.329038143157959 6.904184818267822 5.040997982025146 8.233184814453125 C 4.946897029876709 8.667364120483398 4.816583633422852 9.268574714660645 4.794130325317383 10.31162452697754 C 5.083423614501953 10.25946044921875 5.363453388214111 10.21328163146973 5.628548145294189 10.16956520080566 C 6.646368026733398 10.00172424316406 7.525388240814209 9.856764793395996 8.084487915039063 9.534454345703125 C 8.419437408447266 9.341363906860352 8.735128402709961 9.046425819396973 8.795299530029297 8.220314979553223 C 8.633096694946289 7.440351486206055 8.731380462646484 6.783729553222656 9.088197708129883 6.266844749450684 C 9.713138580322266 5.361545085906982 10.86050796508789 5.222534656524658 11.87281799316406 5.099895000457764 C 12.236985206604 5.055771827697754 12.77165699005127 4.991001605987549 13.11108207702637 4.874654769897461 C 13.09908390045166 4.651820659637451 13.13278007507324 4.447984218597412 13.17273902893066 4.283927440643311 C 12.92758941650391 4.227697849273682 12.50457954406738 4.159828662872314 11.79143810272217 4.112044811248779 L 8.240338325500488 3.874114990234375 L 11.39569854736328 2.227714776992798 C 12.38562774658203 1.711184978485107 12.35497856140137 1.226794719696045 12.34343814849854 1.044445037841797 C 12.29238796234131 0.2375650405883789 11.36568832397461 -0.9501953125 9.864518165588379 -2.132815361022949 C 8.834224700927734 -2.944488525390625 7.600462913513184 -3.709303855895996 6.376068592071533 -4.307031631469727 M 5.203818321228027 -5.899684906005859 C 9.701408386230469 -4.234775543212891 16.33492851257324 0.7784647941589355 11.8582878112793 3.114284992218018 C 15.85096836090088 3.381804943084717 13.50399780273438 4.365184783935547 14.2780876159668 5.192824840545654 C 13.33291816711426 6.813914775848389 9.075508117675781 5.192834854125977 9.801447868347168 8.135745048522949 C 9.680458068847656 11.19184494018555 6.863148212432861 10.78522491455078 3.813077926635742 11.53819465637207 C 3.60126781463623 7.020315170288086 5.036858081817627 7.693904876708984 3.22000789642334 6.386224746704102 C 0.6359281539916992 5.910665035247803 -1.23004150390625 4.209264755249023 -3.47319221496582 2.343904972076416 C -0.9664421081542969 0.4773859977722168 0.6139326095581055 0.01244640350341797 1.874406814575195 0.01236391067504883 C 2.70142936706543 0.01231002807617188 3.390546798706055 0.2123746871948242 4.113918304443359 0.3479747772216797 C 5.42283821105957 -1.381365299224854 5.761738300323486 -1.103955268859863 5.203818321228027 -5.899684906005859 Z" stroke="none" fill="#707070"/></g><ellipse cx="47.541" cy="6.421" rx="47.541" ry="6.421" transform="translate(13.746 113.542)" fill="#656565" opacity="0.16"/><path d="M11.9,92.431a46.942,46.942,0,0,0,7.49-5.1,63.361,63.361,0,0,1,7.49-3.984" transform="translate(-0.434 6.435)" fill="none" stroke="#707070" stroke-linecap="round" stroke-width="1"/><path d="M14.044,1.678A28.767,28.767,0,0,0,6.125.438,38.73,38.73,0,0,0-2.53,1" transform="translate(94.784 65.067)" fill="none" stroke="#707070" stroke-linecap="round" stroke-width="1"/></g></svg>