<svg width="128" height="128" viewBox="0 0 128 128" fill="none" xmlns="http://www.w3.org/2000/svg">
<g clip-path="url(#clip0)">
<path d="M13.908 0L118.236 4.2C118.236 4.2 137.525 100 121.881 128.143C99.731 128.143 47.445 127.843 5.27097 127.843C-10.419 104.179 13.908 0 13.908 0Z" fill="#ED3237"/>
<path opacity="0.6" d="M12.603 119.099L116.357 119.271C116.357 119.271 118.088 116.433 118.088 103.453C118.088 90.898 115.213 75.22 115.213 75.22L15.466 68.78C15.466 68.78 11.705 87.52 11.256 103.52C10.812 113.597 12.603 119.099 12.603 119.099Z" fill="#FFBB00"/>
<path d="M120.873 29.9607H9.37775L15.7963 1.38409L116.878 11.3158L120.873 29.9607Z" fill="#BC0005"/>
<path d="M16.1873 1.92492L10.0025 29.4607H120.255L116.466 11.7777L16.1873 1.92492ZM15.4053 0.843262L117.291 10.8539L121.492 30.4607H8.75299L15.4053 0.843262Z" fill="#FFEFEF"/>
<path d="M14.334 11.127L117.51 16.974L120.121 29.305L10.09 29.327L14.334 11.127Z" fill="#780003"/>
<path d="M65.123 43.227C71.4743 43.227 76.623 38.0783 76.623 31.727C76.623 25.3757 71.4743 20.227 65.123 20.227C58.7717 20.227 53.623 25.3757 53.623 31.727C53.623 38.0783 58.7717 43.227 65.123 43.227Z" fill="#FFCB14"/>
<path opacity="0.43" d="M1.116 108.845L125.549 117.262C125.549 117.262 125.957 116.878 124.691 121.136C123.993 123.548 123.103 125.9 122.029 128.169L5.3 127.882C5.3 127.882 3.269 125.488 1.818 118.815C0.366996 112.142 1.116 108.845 1.116 108.845Z" fill="#7E7A7A"/>
</g>
<defs>
<clipPath id="clip0">
<rect width="128" height="128" fill="white"/>
</clipPath>
</defs>
</svg>
