<?xml version="1.0" encoding="UTF-8"?>
<!DOCTYPE svg PUBLIC "-//W3C//DTD SVG 1.1//EN" "http://www.w3.org/Graphics/SVG/1.1/DTD/svg11.dtd">
<!-- Creator: CorelDRAW 2019 (64-Bit) -->
<svg xmlns="http://www.w3.org/2000/svg" xml:space="preserve" width="240px" height="240px" version="1.1" style="shape-rendering:geometricPrecision; text-rendering:geometricPrecision; image-rendering:optimizeQuality; fill-rule:evenodd; clip-rule:evenodd"
viewBox="0 0 240 240"
 xmlns:xlink="http://www.w3.org/1999/xlink"
 xmlns:xodm="http://www.corel.com/coreldraw/odm/2003">
 <defs>
  <style type="text/css">
   <![CDATA[
    .fil0 {fill:#FEFEFE}
    .fil1 {fill:#00913F;fill-rule:nonzero}
    .fil2 {fill:#2B2B2A;fill-rule:nonzero}
    .fil3 {fill:white;fill-rule:nonzero}
   ]]>
  </style>
 </defs>
 <g id="Layer_x0020_1">
  <metadata id="CorelCorpID_0Corel-Layer"/>
  <circle class="fil0" cx="120" cy="120" r="120"/>
  <path class="fil1" d="M120 28.19c50.7,0 91.81,41.11 91.81,91.81 0,50.7 -41.11,91.81 -91.81,91.81 -50.7,0 -91.81,-41.11 -91.81,-91.81 0,-50.7 41.11,-91.81 91.81,-91.81z"/>
  <path class="fil2" d="M18.53 125.55l-9.52 -3.17 -0.4 -5.71 0.38 -0.03 0.03 0.46c0.03,0.41 0.13,0.74 0.29,0.97 0.11,0.17 0.28,0.3 0.52,0.39 0.17,0.06 0.6,0.06 1.3,0.02l9.25 -0.65c0.72,-0.05 1.17,-0.12 1.34,-0.21 0.18,-0.08 0.32,-0.25 0.44,-0.5 0.12,-0.24 0.17,-0.56 0.14,-0.95l-0.03 -0.46 0.38 -0.02 0.51 7.33 -0.38 0.03 -0.03 -0.46c-0.03,-0.42 -0.13,-0.74 -0.29,-0.98 -0.11,-0.17 -0.28,-0.3 -0.53,-0.38 -0.17,-0.07 -0.6,-0.07 -1.31,-0.02l-10.4 0.72 13.18 4.49 0.02 0.25 -12.34 6.36 9.89 -0.69c0.69,-0.05 1.12,-0.1 1.27,-0.15 0.34,-0.11 0.61,-0.32 0.8,-0.64 0.2,-0.32 0.28,-0.79 0.23,-1.44l0.39 -0.02 0.33 4.8 -0.38 0.03 -0.01 -0.14c-0.01,-0.32 -0.09,-0.6 -0.21,-0.86 -0.13,-0.27 -0.29,-0.46 -0.47,-0.59 -0.19,-0.12 -0.45,-0.21 -0.78,-0.26 -0.08,-0.01 -0.43,0 -1.06,0.05l-8.89 0.62c-0.71,0.05 -1.15,0.12 -1.32,0.2 -0.17,0.1 -0.31,0.26 -0.43,0.5 -0.12,0.25 -0.16,0.57 -0.14,0.96l0.03 0.45 -0.38 0.03 -0.4 -5.74 8.98 -4.59zm4.01 -31.88l0 0 -1.2 4.82 1.18 0.91c0.4,0.3 0.74,0.48 1.03,0.56 0.38,0.09 0.71,0 0.96,-0.26 0.15,-0.15 0.35,-0.58 0.58,-1.28l0.37 0.1 -1.13 4.54 -0.37 -0.09c0.04,-0.51 -0.06,-0.97 -0.32,-1.36 -0.24,-0.4 -0.84,-0.97 -1.76,-1.69l-9.68 -7.6 0.05 -0.19 12.42 -2.13c1.18,-0.21 1.95,-0.43 2.3,-0.66 0.27,-0.18 0.47,-0.47 0.6,-0.88l0.37 0.09 -1.65 6.61 -0.36 -0.09 0.06 -0.27c0.13,-0.53 0.15,-0.93 0.06,-1.18 -0.07,-0.17 -0.21,-0.28 -0.41,-0.34 -0.12,-0.02 -0.25,-0.03 -0.39,-0.02 -0.06,-0.01 -0.34,0.03 -0.83,0.11l-1.88 0.3zm-0.83 0.16l0 0 -5.21 0.86 4.18 3.27 1.03 -4.13zm0.97 -26.01l0 0 -0.34 -0.19 3.74 -6.48 0.34 0.2 -0.23 0.39c-0.21,0.36 -0.31,0.68 -0.31,0.97 0,0.2 0.07,0.4 0.22,0.61 0.11,0.15 0.47,0.4 1.08,0.75l5.96 3.45c1.17,0.67 1.96,1.28 2.35,1.82 0.4,0.54 0.6,1.21 0.62,2.02 0.01,0.8 -0.23,1.62 -0.71,2.45 -0.59,1.03 -1.34,1.7 -2.25,2.02 -0.9,0.32 -1.68,0.3 -2.34,-0.08 -0.41,-0.24 -0.68,-0.57 -0.79,-0.98 -0.11,-0.4 -0.06,-0.79 0.15,-1.17 0.21,-0.36 0.51,-0.6 0.88,-0.72 0.38,-0.11 0.74,-0.07 1.08,0.13 0.17,0.1 0.31,0.2 0.41,0.32 0.05,0.05 0.14,0.24 0.29,0.54 0.14,0.31 0.27,0.49 0.37,0.55 0.16,0.09 0.34,0.09 0.54,0 0.3,-0.13 0.56,-0.38 0.77,-0.75 0.15,-0.26 0.2,-0.51 0.17,-0.75 -0.04,-0.24 -0.17,-0.48 -0.41,-0.71 -0.24,-0.23 -1,-0.71 -2.27,-1.44l-6.51 -3.77c-0.63,-0.36 -1.04,-0.55 -1.23,-0.57 -0.2,-0.02 -0.41,0.04 -0.64,0.17 -0.24,0.13 -0.45,0.37 -0.65,0.71l-0.29 0.51zm16.91 -23.05l0 0 4.12 3.98 0.2 -0.2c0.62,-0.64 0.86,-1.3 0.74,-1.98 -0.12,-0.67 -0.54,-1.43 -1.25,-2.27l0.28 -0.29 5.3 5.12 -0.27 0.28c-0.65,-0.49 -1.24,-0.82 -1.79,-0.99 -0.56,-0.16 -1.02,-0.18 -1.39,-0.05 -0.37,0.14 -0.79,0.44 -1.26,0.93l2.86 2.75c0.55,0.54 0.91,0.84 1.09,0.91 0.17,0.08 0.35,0.09 0.56,0.03 0.2,-0.05 0.44,-0.22 0.73,-0.51l0.58 -0.6c0.91,-0.94 1.42,-1.91 1.53,-2.91 0.12,-0.99 -0.15,-2.04 -0.81,-3.16l0.27 -0.27 2.78 3.56 -8.46 8.75 -0.27 -0.27 0.33 -0.33c0.28,-0.3 0.45,-0.58 0.52,-0.86 0.06,-0.2 0.03,-0.42 -0.07,-0.65 -0.06,-0.17 -0.35,-0.5 -0.86,-0.99l-6.66 -6.43c-0.46,-0.44 -0.75,-0.7 -0.88,-0.78 -0.22,-0.12 -0.44,-0.15 -0.67,-0.11 -0.32,0.05 -0.64,0.24 -0.96,0.57l-0.32 0.34 -0.28 -0.27 8.18 -8.47 3 2.89 -0.28 0.28c-0.87,-0.56 -1.59,-0.86 -2.16,-0.91 -0.57,-0.05 -1.16,0.1 -1.77,0.43 -0.36,0.19 -0.91,0.67 -1.65,1.44l-1.01 1.04zm34.11 -15.51l0 0 1.94 4.58 -10.93 6.06 -0.19 -0.34 0.41 -0.23c0.36,-0.19 0.61,-0.42 0.75,-0.66 0.12,-0.18 0.16,-0.39 0.13,-0.65 -0.02,-0.17 -0.19,-0.57 -0.54,-1.19l-4.49 -8.1c-0.34,-0.63 -0.6,-1 -0.75,-1.12 -0.15,-0.13 -0.36,-0.19 -0.63,-0.19 -0.27,-0.01 -0.58,0.09 -0.92,0.27l-0.41 0.23 -0.19 -0.34 6.57 -3.63 0.18 0.33 -0.53 0.3c-0.36,0.2 -0.61,0.42 -0.76,0.67 -0.11,0.17 -0.15,0.38 -0.13,0.64 0.01,0.18 0.19,0.58 0.54,1.2l4.34 7.84c0.35,0.63 0.61,1.01 0.78,1.14 0.17,0.14 0.38,0.19 0.64,0.15 0.18,-0.02 0.56,-0.2 1.14,-0.52l1.03 -0.57c0.65,-0.36 1.13,-0.78 1.44,-1.25 0.31,-0.47 0.48,-1.04 0.52,-1.72 0.05,-0.67 -0.06,-1.57 -0.31,-2.7l0.37 -0.2zm21.58 -3.25l0 0 0.1 0.37 -7.1 1.91 -0.1 -0.38 0.45 -0.12c0.39,-0.1 0.69,-0.26 0.89,-0.46 0.15,-0.14 0.24,-0.34 0.27,-0.59 0.04,-0.18 -0.04,-0.61 -0.22,-1.29l-2.4 -8.95c-0.18,-0.69 -0.34,-1.12 -0.46,-1.27 -0.12,-0.16 -0.31,-0.27 -0.57,-0.34 -0.25,-0.07 -0.57,-0.05 -0.96,0.05l-0.45 0.12 -0.1 -0.37 7.11 -1.91 0.1 0.38 -0.45 0.12c-0.39,0.1 -0.7,0.26 -0.9,0.46 -0.15,0.15 -0.24,0.34 -0.28,0.6 -0.03,0.17 0.05,0.6 0.23,1.29l2.4 8.94c0.18,0.69 0.34,1.12 0.46,1.27 0.13,0.16 0.32,0.27 0.57,0.34 0.27,0.07 0.58,0.05 0.96,-0.05l0.45 -0.12zm21.48 -17.35l0 0 0.44 4.67 -0.43 0.03c-0.28,-1.15 -0.83,-2.06 -1.67,-2.73 -0.83,-0.66 -1.7,-0.95 -2.61,-0.89 -0.71,0.05 -1.25,0.28 -1.64,0.68 -0.38,0.4 -0.56,0.85 -0.53,1.35 0.03,0.3 0.12,0.58 0.28,0.81 0.22,0.31 0.57,0.61 1.03,0.89 0.34,0.21 1.12,0.56 2.33,1.06 1.7,0.69 2.86,1.38 3.49,2.05 0.62,0.68 0.96,1.48 1.02,2.41 0.08,1.17 -0.3,2.21 -1.16,3.12 -0.86,0.91 -1.99,1.42 -3.4,1.52 -0.44,0.03 -0.86,0.01 -1.26,-0.05 -0.4,-0.07 -0.9,-0.2 -1.52,-0.4 -0.34,-0.12 -0.61,-0.17 -0.83,-0.15 -0.18,0.01 -0.36,0.09 -0.55,0.24 -0.19,0.15 -0.34,0.38 -0.44,0.67l-0.39 0.02 -0.37 -5.3 0.39 -0.02c0.4,1.47 1.07,2.56 1.99,3.29 0.92,0.72 1.88,1.05 2.88,0.98 0.77,-0.06 1.37,-0.31 1.81,-0.77 0.43,-0.45 0.62,-0.96 0.58,-1.52 -0.02,-0.33 -0.13,-0.64 -0.33,-0.94 -0.2,-0.3 -0.49,-0.57 -0.86,-0.83 -0.39,-0.25 -1.04,-0.57 -1.99,-0.96 -1.32,-0.54 -2.27,-1.01 -2.86,-1.41 -0.59,-0.4 -1.06,-0.87 -1.39,-1.39 -0.34,-0.52 -0.54,-1.11 -0.58,-1.77 -0.08,-1.12 0.26,-2.1 1.03,-2.95 0.77,-0.84 1.78,-1.3 3.02,-1.39 0.46,-0.03 0.91,-0.01 1.34,0.07 0.33,0.06 0.74,0.19 1.22,0.38 0.48,0.19 0.82,0.28 1,0.27 0.18,-0.01 0.32,-0.08 0.41,-0.2 0.1,-0.12 0.18,-0.39 0.24,-0.81l0.31 -0.03zm52.61 11.92l0 0 6.35 3.52 -0.18 0.34 -0.32 -0.18c-0.48,-0.26 -0.83,-0.39 -1.07,-0.4 -0.23,0 -0.43,0.07 -0.61,0.2 -0.17,0.14 -0.46,0.56 -0.84,1.26l-3.34 6.03c-0.61,1.1 -0.93,1.87 -0.97,2.33 -0.03,0.44 0.08,0.89 0.33,1.34 0.25,0.45 0.67,0.83 1.25,1.15 0.67,0.37 1.32,0.54 1.95,0.5 0.64,-0.04 1.22,-0.26 1.74,-0.66 0.53,-0.4 1.15,-1.25 1.88,-2.56l2.78 -5.01c0.31,-0.56 0.46,-0.98 0.48,-1.28 0.02,-0.3 -0.04,-0.54 -0.16,-0.73 -0.2,-0.29 -0.54,-0.57 -1.04,-0.85l0.18 -0.34 4.26 2.36 -0.18 0.34 -0.26 -0.14c-0.35,-0.19 -0.67,-0.28 -0.98,-0.27 -0.3,0.01 -0.59,0.13 -0.84,0.35 -0.19,0.15 -0.42,0.48 -0.7,0.98l-2.59 4.67c-0.8,1.45 -1.48,2.44 -2.02,2.98 -0.55,0.53 -1.34,0.86 -2.38,0.99 -1.03,0.14 -2.19,-0.15 -3.47,-0.86 -1.06,-0.59 -1.81,-1.19 -2.23,-1.8 -0.58,-0.83 -0.86,-1.63 -0.86,-2.42 0.01,-0.79 0.3,-1.69 0.87,-2.71l3.34 -6.03c0.39,-0.71 0.6,-1.17 0.62,-1.39 0.01,-0.21 -0.05,-0.43 -0.19,-0.63 -0.13,-0.22 -0.46,-0.46 -0.99,-0.74l0.19 -0.34zm28.38 33.59l0 0 -3.92 3.05 -8.68 -8.99 0.27 -0.26 0.33 0.33c0.28,0.3 0.56,0.48 0.84,0.56 0.19,0.06 0.41,0.05 0.65,-0.05 0.17,-0.05 0.51,-0.33 1.02,-0.82l6.65 -6.43c0.52,-0.5 0.82,-0.84 0.9,-1.02 0.07,-0.19 0.08,-0.4 0.02,-0.66 -0.07,-0.26 -0.24,-0.54 -0.51,-0.82l-0.33 -0.34 0.28 -0.26 5.22 5.4 -0.28 0.26 -0.43 -0.44c-0.28,-0.29 -0.56,-0.48 -0.84,-0.55 -0.19,-0.07 -0.41,-0.05 -0.65,0.03 -0.18,0.07 -0.52,0.34 -1.02,0.83l-6.45 6.23c-0.52,0.5 -0.82,0.85 -0.9,1.04 -0.09,0.2 -0.09,0.42 0.02,0.66 0.07,0.17 0.34,0.49 0.8,0.97l0.81 0.84c0.52,0.54 1.05,0.9 1.59,1.08 0.53,0.17 1.13,0.19 1.79,0.06 0.66,-0.14 1.5,-0.47 2.53,-1l0.29 0.3zm11.94 19.69l0 0 -2.34 -4.39 -1.48 0.12c-0.5,0.04 -0.87,0.13 -1.14,0.27 -0.35,0.19 -0.53,0.47 -0.54,0.84 -0.02,0.21 0.13,0.66 0.42,1.33l-0.34 0.18 -2.19 -4.13 0.34 -0.18c0.3,0.41 0.68,0.68 1.14,0.8 0.45,0.13 1.26,0.15 2.43,0.07l12.28 -0.83 0.1 0.18 -7.81 9.9c-0.74,0.94 -1.16,1.61 -1.27,2.02 -0.07,0.31 -0.03,0.66 0.14,1.06l-0.33 0.18 -3.2 -6.02 0.34 -0.18 0.13 0.25c0.26,0.48 0.5,0.79 0.74,0.91 0.17,0.08 0.35,0.08 0.53,-0.02 0.11,-0.06 0.21,-0.14 0.31,-0.24 0.05,-0.04 0.23,-0.25 0.54,-0.64l1.2 -1.48zm0.51 -0.67l0 0 3.3 -4.13 -5.3 0.37 2 3.76zm9.72 28.64l0 0 9.84 1.98 1.09 5.63 -0.37 0.07 -0.09 -0.45c-0.08,-0.41 -0.21,-0.72 -0.4,-0.93 -0.13,-0.15 -0.32,-0.26 -0.56,-0.32 -0.18,-0.04 -0.61,0 -1.29,0.13l-9.12 1.77c-0.7,0.14 -1.13,0.27 -1.3,0.37 -0.16,0.11 -0.28,0.3 -0.37,0.55 -0.09,0.26 -0.1,0.58 -0.02,0.97l0.09 0.45 -0.38 0.07 -1.4 -7.22 0.37 -0.07 0.09 0.45c0.08,0.41 0.21,0.72 0.4,0.94 0.13,0.15 0.32,0.26 0.57,0.31 0.18,0.04 0.61,0 1.31,-0.14l10.24 -1.99 -13.64 -2.85 -0.04 -0.24 11.47 -7.81 -9.74 1.89c-0.67,0.13 -1.09,0.23 -1.24,0.29 -0.32,0.16 -0.56,0.41 -0.72,0.74 -0.16,0.34 -0.17,0.82 -0.05,1.46l-0.38 0.07 -0.91 -4.73 0.37 -0.07 0.03 0.14c0.05,0.31 0.16,0.58 0.31,0.82 0.16,0.25 0.34,0.42 0.54,0.52 0.21,0.11 0.48,0.16 0.81,0.18 0.08,-0.01 0.42,-0.06 1.04,-0.18l8.74 -1.7c0.7,-0.14 1.13,-0.26 1.29,-0.37 0.16,-0.11 0.28,-0.29 0.37,-0.55 0.09,-0.25 0.09,-0.58 0.02,-0.96l-0.09 -0.44 0.38 -0.08 1.1 5.65 -8.36 5.65zm-0.07 32.12l0 0 0.61 -4.93 -1.29 -0.76c-0.43,-0.24 -0.79,-0.38 -1.09,-0.42 -0.39,-0.05 -0.7,0.07 -0.92,0.37 -0.14,0.17 -0.27,0.61 -0.42,1.34l-0.38 -0.05 0.57 -4.65 0.38 0.05c0.02,0.51 0.17,0.95 0.48,1.31 0.29,0.37 0.95,0.85 1.96,1.45l10.53 6.37 -0.03 0.2 -12.07 3.63c-1.15,0.34 -1.88,0.65 -2.2,0.93 -0.24,0.21 -0.4,0.52 -0.49,0.95l-0.38 -0.05 0.83 -6.76 0.38 0.04 -0.04 0.28c-0.06,0.55 -0.03,0.94 0.09,1.17 0.1,0.17 0.24,0.27 0.45,0.29 0.12,0.02 0.25,0.01 0.39,-0.01 0.06,-0.01 0.33,-0.08 0.81,-0.22l1.83 -0.53zm0.81 -0.25l0 0 5.06 -1.49 -4.54 -2.74 -0.52 4.23z"/>
  <path class="fil2" d="M25.67 178.22l-0.34 0.19 -3.7 -6.4 0.34 -0.19 0.23 0.41c0.21,0.35 0.44,0.6 0.69,0.75 0.17,0.1 0.39,0.14 0.64,0.1 0.18,-0.01 0.58,-0.19 1.2,-0.55l8.05 -4.65c0.63,-0.36 1,-0.62 1.12,-0.78 0.12,-0.15 0.17,-0.37 0.17,-0.64 0,-0.26 -0.1,-0.58 -0.29,-0.92l-0.24 -0.4 0.34 -0.2 3.7 6.4 -0.34 0.2 -0.23 -0.41c-0.21,-0.35 -0.44,-0.6 -0.69,-0.74 -0.18,-0.11 -0.38,-0.16 -0.64,-0.12 -0.19,0.02 -0.59,0.2 -1.2,0.55l-8.05 4.65c-0.63,0.36 -1,0.62 -1.12,0.78 -0.11,0.16 -0.17,0.38 -0.17,0.64 -0.01,0.28 0.09,0.58 0.29,0.93l0.24 0.4zm22.68 7.32l0 0 -1.65 11.08 4.44 -4.15c0.62,-0.58 0.96,-1.06 1.01,-1.44 0.07,-0.51 -0.17,-1.06 -0.72,-1.62l0.29 -0.27 3.18 3.42 -0.28 0.26c-0.46,-0.39 -0.81,-0.61 -1.04,-0.68 -0.23,-0.06 -0.48,-0.05 -0.76,0.06 -0.28,0.1 -0.67,0.38 -1.15,0.83l-8.61 8.03 -0.24 -0.25 2.08 -15.02 -6.57 6.13c-0.59,0.55 -0.87,1.06 -0.82,1.52 0.04,0.47 0.23,0.88 0.55,1.23l0.23 0.25 -0.28 0.26 -3.42 -3.67 0.28 -0.26c0.54,0.56 1.03,0.85 1.46,0.86 0.44,0.01 0.93,-0.24 1.48,-0.75l7.3 -6.81 0.07 -0.48c0.07,-0.47 0.07,-0.83 0,-1.08 -0.07,-0.25 -0.25,-0.53 -0.53,-0.86l0.28 -0.26 3.42 3.67zm8.69 26.39l0 0 0.2 -0.32 0.4 0.23c0.36,0.22 0.66,0.32 0.91,0.32 0.26,0.01 0.49,-0.06 0.69,-0.2 0.13,-0.09 0.39,-0.45 0.76,-1.07l4.79 -7.97c0.37,-0.62 0.57,-1.03 0.6,-1.23 0.03,-0.19 -0.02,-0.41 -0.15,-0.64 -0.14,-0.24 -0.37,-0.46 -0.71,-0.66l-0.4 -0.24 0.2 -0.34 5.42 3.26c1.45,0.87 2.5,1.77 3.14,2.7 0.79,1.12 1.17,2.35 1.14,3.66 -0.03,1.31 -0.41,2.58 -1.15,3.81 -0.52,0.86 -1.13,1.56 -1.83,2.11 -0.71,0.56 -1.42,0.93 -2.13,1.14 -0.72,0.21 -1.45,0.29 -2.19,0.23 -0.74,-0.07 -1.56,-0.26 -2.48,-0.6 -0.4,-0.15 -1,-0.46 -1.78,-0.93l-5.43 -3.26zm11.5 -8.65l0 0 -5.69 9.46c-0.3,0.5 -0.45,0.82 -0.48,0.96 -0.02,0.14 0.01,0.28 0.09,0.4 0.1,0.19 0.31,0.37 0.62,0.56 0.99,0.59 1.95,0.71 2.89,0.35 1.26,-0.5 2.47,-1.7 3.63,-3.63 0.94,-1.56 1.44,-2.95 1.51,-4.17 0.05,-0.96 -0.15,-1.75 -0.6,-2.38 -0.32,-0.44 -0.98,-0.96 -1.97,-1.55zm27.48 10.67l0 0c2.19,0.54 3.76,1.68 4.74,3.4 0.96,1.74 1.15,3.61 0.58,5.63 -0.5,1.72 -1.44,3.09 -2.82,4.11 -1.84,1.36 -3.97,1.69 -6.41,0.99 -2.45,-0.7 -4.1,-2.07 -4.96,-4.12 -0.68,-1.61 -0.77,-3.31 -0.25,-5.11 0.58,-2.02 1.75,-3.51 3.51,-4.45 1.76,-0.96 3.62,-1.11 5.61,-0.45zm-0.06 0.67l0 0c-1.25,-0.36 -2.38,0.01 -3.39,1.1 -0.82,0.88 -1.52,2.31 -2.08,4.26 -0.66,2.32 -0.75,4.15 -0.25,5.49 0.35,0.94 1.03,1.55 2.05,1.85 0.69,0.19 1.32,0.19 1.87,-0.01 0.71,-0.26 1.36,-0.81 1.96,-1.66 0.6,-0.84 1.11,-2.02 1.55,-3.53 0.51,-1.8 0.73,-3.19 0.65,-4.17 -0.08,-0.99 -0.32,-1.74 -0.73,-2.27 -0.42,-0.51 -0.96,-0.86 -1.63,-1.06zm24.09 2.5l0 0 7.27 8.52 -0.21 -6.08c-0.03,-0.84 -0.17,-1.41 -0.42,-1.7 -0.35,-0.39 -0.92,-0.57 -1.7,-0.53l-0.02 -0.39 4.67 -0.16 0.01 0.39c-0.59,0.1 -0.99,0.21 -1.19,0.34 -0.2,0.12 -0.35,0.33 -0.45,0.61 -0.11,0.27 -0.15,0.75 -0.13,1.42l0.41 11.76 -0.35 0.01 -9.97 -11.43 0.32 8.98c0.03,0.82 0.23,1.36 0.61,1.63 0.38,0.27 0.81,0.4 1.29,0.38l0.33 -0.01 0.02 0.39 -5.01 0.17 -0.02 -0.38c0.78,-0.04 1.32,-0.21 1.61,-0.54 0.3,-0.32 0.43,-0.86 0.4,-1.61l-0.35 -9.97 -0.31 -0.37c-0.31,-0.36 -0.58,-0.6 -0.82,-0.71 -0.23,-0.11 -0.56,-0.16 -0.99,-0.16l-0.02 -0.39 5.02 -0.17zm27.42 -3.09l0 0 1.58 5.53 0.27 -0.07c0.87,-0.25 1.41,-0.7 1.64,-1.35 0.24,-0.65 0.25,-1.53 0.06,-2.61l0.38 -0.11 2.04 7.12 -0.38 0.11c-0.3,-0.76 -0.65,-1.34 -1.05,-1.76 -0.4,-0.42 -0.8,-0.67 -1.19,-0.75 -0.38,-0.06 -0.91,-0.01 -1.55,0.18l1.1 3.82c0.21,0.75 0.37,1.2 0.49,1.35 0.1,0.15 0.26,0.25 0.47,0.31 0.2,0.06 0.5,0.03 0.89,-0.08l0.81 -0.23c1.27,-0.37 2.2,-0.95 2.8,-1.76 0.59,-0.8 0.89,-1.86 0.88,-3.16l0.36 -0.11 0.64 4.5 -11.75 3.37 -0.11 -0.37 0.45 -0.13c0.4,-0.11 0.69,-0.28 0.89,-0.49 0.15,-0.14 0.24,-0.34 0.26,-0.59 0.04,-0.18 -0.05,-0.61 -0.25,-1.3l-2.56 -8.94c-0.17,-0.61 -0.3,-0.98 -0.38,-1.11 -0.13,-0.22 -0.3,-0.36 -0.52,-0.44 -0.31,-0.12 -0.68,-0.11 -1.12,0.02l-0.46 0.13 -0.1 -0.38 11.37 -3.26 1.16 4.02 -0.38 0.11c-0.48,-0.92 -0.95,-1.55 -1.43,-1.88 -0.47,-0.32 -1.06,-0.5 -1.76,-0.51 -0.4,-0.02 -1.12,0.13 -2.15,0.42l-1.4 0.4zm26.05 -13.42l0 0 2.66 3.88 -0.36 0.24c-0.81,-0.89 -1.74,-1.41 -2.8,-1.59 -1.05,-0.17 -1.96,-0.01 -2.73,0.49 -0.6,0.39 -0.96,0.85 -1.1,1.4 -0.15,0.54 -0.08,1.02 0.19,1.43 0.17,0.26 0.38,0.46 0.64,0.58 0.34,0.17 0.79,0.27 1.33,0.29 0.41,0.01 1.26,-0.06 2.57,-0.21 1.83,-0.22 3.18,-0.18 4.06,0.11 0.87,0.29 1.56,0.83 2.07,1.61 0.64,0.99 0.81,2.1 0.5,3.31 -0.31,1.22 -1.06,2.22 -2.24,2.99 -0.37,0.24 -0.76,0.43 -1.14,0.57 -0.38,0.14 -0.89,0.27 -1.52,0.38 -0.36,0.07 -0.63,0.16 -0.81,0.28 -0.15,0.1 -0.27,0.26 -0.37,0.48 -0.09,0.23 -0.11,0.5 -0.06,0.81l-0.32 0.21 -2.91 -4.48 0.32 -0.21c1.08,1.09 2.19,1.73 3.35,1.92 1.17,0.18 2.17,0 3.01,-0.54 0.66,-0.43 1.06,-0.95 1.22,-1.56 0.16,-0.6 0.08,-1.14 -0.23,-1.61 -0.18,-0.28 -0.43,-0.51 -0.75,-0.68 -0.32,-0.16 -0.7,-0.26 -1.16,-0.3 -0.46,-0.04 -1.19,0 -2.21,0.12 -1.42,0.17 -2.49,0.22 -3.21,0.16 -0.71,-0.07 -1.34,-0.25 -1.9,-0.54 -0.55,-0.3 -1,-0.72 -1.36,-1.28 -0.62,-0.94 -0.79,-1.98 -0.53,-3.09 0.26,-1.11 0.92,-2.01 1.98,-2.7 0.38,-0.25 0.78,-0.45 1.2,-0.59 0.33,-0.11 0.74,-0.19 1.26,-0.26 0.52,-0.07 0.85,-0.15 1.01,-0.25 0.15,-0.1 0.24,-0.22 0.27,-0.37 0.03,-0.15 -0.04,-0.43 -0.19,-0.83l0.26 -0.17zm26.69 -4.14l0 0 0.26 0.28 -5.31 5.13 -0.27 -0.28 0.34 -0.32c0.29,-0.29 0.48,-0.57 0.56,-0.85 0.06,-0.19 0.04,-0.41 -0.06,-0.65 -0.05,-0.17 -0.33,-0.51 -0.82,-1.02l-6.46 -6.69c-0.5,-0.52 -0.84,-0.82 -1.03,-0.9 -0.18,-0.08 -0.4,-0.08 -0.66,-0.01 -0.26,0.06 -0.54,0.23 -0.82,0.5l-0.34 0.33 -0.27 -0.28 5.32 -5.13 0.27 0.28 -0.34 0.32c-0.29,0.29 -0.48,0.57 -0.56,0.85 -0.06,0.19 -0.05,0.41 0.04,0.65 0.07,0.17 0.34,0.52 0.83,1.03l6.46 6.69c0.51,0.52 0.85,0.82 1.03,0.89 0.18,0.07 0.41,0.08 0.67,0.01 0.26,-0.06 0.53,-0.23 0.82,-0.5l0.34 -0.33zm11.67 -21.25l0 0 -2.65 4.23 0.86 1.24c0.28,0.41 0.55,0.69 0.81,0.84 0.33,0.22 0.67,0.23 0.99,0.06 0.2,-0.09 0.51,-0.44 0.95,-1.04l0.33 0.2 -2.49 3.99 -0.33 -0.2c0.2,-0.47 0.25,-0.94 0.12,-1.4 -0.11,-0.46 -0.5,-1.18 -1.16,-2.15l-6.89 -10.27 0.11 -0.17 12.53 1.82c1.19,0.17 1.99,0.2 2.4,0.09 0.31,-0.09 0.59,-0.31 0.85,-0.65l0.32 0.2 -3.62 5.8 -0.33 -0.21 0.15 -0.23c0.29,-0.47 0.43,-0.84 0.42,-1.11 -0.01,-0.19 -0.11,-0.34 -0.29,-0.45 -0.1,-0.06 -0.22,-0.11 -0.36,-0.14 -0.06,-0.03 -0.33,-0.08 -0.83,-0.16l-1.89 -0.29zm-0.84 -0.11l0 0 -5.25 -0.8 2.98 4.43 2.27 -3.63z"/>
  <path class="fil1" d="M120 0c-66.26,0 -120,53.74 -120,120 0,66.26 53.74,120 120,120 66.26,0 120,-53.74 120,-120 0,-66.26 -53.74,-120 -120,-120zm0 237.57l0 0c-64.93,0 -117.57,-52.64 -117.57,-117.57 0,-64.93 52.64,-117.57 117.57,-117.57 64.93,0 117.57,52.64 117.57,117.57 0,64.93 -52.64,117.57 -117.57,117.57z"/>
  <polygon class="fil3" points="99.27,141.34 99.27,132.58 97.45,132.58 97.45,135.85 93.84,135.85 93.84,132.58 92.03,132.58 92.03,141.34 93.84,141.34 93.84,137.46 97.45,137.46 97.45,141.34 "/>
  <path class="fil3" d="M111.16 141.34l1.89 0 -3.16 -8.76 -2.08 0 -3.11 8.76 1.89 0 0.58 -1.8 3.39 0 0.6 1.8zm-3.52 -3.28l0 0 1.22 -3.73 1.22 3.73 -2.44 0z"/>
  <polygon class="fil3" points="118.48,132.58 118.48,141.34 124.55,141.34 124.55,139.72 120.28,139.72 120.28,132.58 "/>
  <path class="fil3" d="M134.36 132.58l-2.08 0 -3.12 8.76 1.9 0 0.57 -1.8 3.4 0 0.59 1.8 1.89 0 -3.15 -8.76zm-2.25 5.48l0 0 1.21 -3.73 1.22 3.73 -2.43 0z"/>
  <polygon class="fil3" points="142.94,132.58 142.94,141.34 149.02,141.34 149.02,139.72 144.74,139.72 144.74,132.58 "/>
  <path class="fil3" d="M184.9 143.62c0,-0.71 0.27,-1.51 0.67,-2.08 0,-0.57 0.13,-1.04 0.47,-1.48 0.27,-1.37 0.43,-2.82 1.04,-4.06 -0.07,-0.1 -0.1,-0.2 -0.14,-0.3 0.48,-1.68 0.81,-3.36 0.88,-5.1 0.57,-1.54 0.17,-3.45 0.57,-5.1 -0.61,-2.48 0.53,-5.1 -0.03,-7.48 -1.28,0.37 -2.69,0.17 -4.03,0.17l0 -0.31c-1.78,0 -10.17,-0.6 -10.4,-1.1 -0.27,0 -0.71,0.27 -0.87,0.03 -1.45,-0.1 -1.48,0.54 -2.12,-0.97 -0.3,-0.4 -1.27,-1.34 -1.27,-1.88 -0.51,-0.17 -0.88,-0.6 -1.21,-1.07l-0.2 0c-0.07,0.27 -1.21,1.3 -1.51,1.3 0,0.17 0.03,0.34 0.07,0.51 -0.64,0.47 -1.58,1.01 -1.88,1.81 -1.95,0.7 -0.94,2.25 -0.47,3.62 0.27,0.04 0.5,-0.06 0.67,0.07 0.47,-0.47 4.7,0.24 5.5,0.17 0.07,0.03 0.14,0.07 0.24,0.13 0.43,-0.2 0.63,0 1.04,0.14 2.85,0.06 5.77,0.5 8.45,0.5 0.03,0.07 0.07,0.13 0.1,0.23 0.64,0.11 1.28,0.24 1.95,0.37 0.06,0.17 0.16,0.34 0.26,0.54 1.51,0.37 0.91,2.48 0.61,3.49 -0.87,0.64 -1.38,1.28 -2.52,1.41 -0.06,0.07 -0.13,0.13 -0.17,0.23 -0.84,0 -3.45,0.34 -4.12,-0.1 -0.77,0.1 -1.45,-0.1 -2.22,-0.23 0.07,-1.04 -0.16,-1.95 -0.33,-2.99 -0.4,0 -0.64,0.1 -0.98,0 -0.03,0.1 -0.06,0.2 -0.06,0.34 -1.68,0.5 -3.19,2.01 -4.93,2.21 0.03,0.84 0.3,1.68 0.3,2.45 0.43,0.1 1,0.27 1.37,0.1 0.14,0.04 0.27,0.07 0.41,0.14 0.03,-0.07 0.1,-0.1 0.17,-0.14 1.44,0.1 3.22,0.1 4.59,0.47 1.84,0.1 3.25,0.37 4.86,1.28l0 0.23c0.61,0.47 0.71,0.84 0.78,1.58 1.41,0.94 0.53,5.9 -0.54,6.97 -0.03,0.17 -0.03,0.34 -0.03,0.51 -0.21,0.07 -0.41,0.13 -0.58,0.23 -0.03,0.14 -0.03,0.27 -0.03,0.41 -0.13,0.03 -0.23,0.06 -0.33,0.1 -0.04,0.1 -0.07,0.2 -0.1,0.3 -0.17,0.03 -0.31,0.07 -0.44,0.1 -0.13,0.4 -1.41,1.04 -1.41,0.47 -0.77,0.53 -2.35,0.4 -3.25,0.33 -0.04,-0.1 -0.04,-0.16 -0.04,-0.23 -1.47,0.47 -2.24,-0.77 -3.52,-1.14 -0.91,-0.91 -1.01,-1.28 -1.24,-1.48 -0.1,-0.9 -0.1,-0.9 -0.24,-1 0.24,-2.45 -0.26,-2.15 -1.77,-3.73 -1.14,0 -2.15,-1 -3.42,-1 -0.21,0.33 -0.44,0.67 -0.81,0.83 -0.47,1.72 -2.62,3.46 -4.36,3.63 -0.24,0.1 -0.47,0.2 -0.67,0.33 -0.04,0.64 -0.24,0.94 -0.1,1.58 1.14,-0.27 4.9,0.54 5.67,0.61 0.53,0.4 1.44,0.73 2.08,0.97 0.84,0.73 2.51,1.04 3.08,1.98 0.54,0 1.18,0.47 1.34,0.94 0.21,-0.1 1.95,1.14 2.29,1.3 0.6,1.01 2.85,1.72 3.05,2.86 0.07,0 0.17,0 0.27,0.03 0.3,1.24 -0.44,4.26 -2.01,4.26 -0.11,0.1 -0.21,0.2 -0.31,0.33l-0.6 0c-0.04,0.04 -0.07,0.11 -0.1,0.17 -0.98,-0.06 -1.91,-0.1 -2.85,-0.13 -0.37,-0.34 -0.71,-0.64 -1.04,-0.94 -0.74,0.17 -1.18,-0.84 -1.88,-0.84 -0.07,-0.13 -0.14,-0.27 -0.17,-0.37 -0.81,-0.37 -2.82,-1.44 -3.15,-2.35 -0.77,-0.3 -1.31,-0.97 -1.82,-1.64 0.1,-0.1 0.24,-2.41 0.24,-2.45 0.64,-0.74 -0.27,-0.77 -0.27,-1.31 -0.47,0.1 -0.87,-0.2 -1.21,-0.5 -1.41,-0.2 -2.14,0 -2.95,1.14 -0.94,-0.1 -1.84,-0.03 -2.78,-0.17 -0.37,0.41 -0.81,0.44 -0.81,1.11 0.3,0.1 0.77,0.27 1.07,0.03 1.31,0.61 3.26,1.78 3.9,3.09 0.13,0 0.27,0 0.43,0.03 0.1,0.17 0.2,0.34 0.31,0.54 0.16,0.03 0.36,0.07 0.57,0.1 0,0.13 0,0.27 0.03,0.44 0.23,0.06 0.47,0.16 0.74,0.26 0.8,1.31 2.71,1.95 3.22,3.46 1.07,0.2 1.57,1.41 2.45,1.98 0.7,0.87 1.41,1.74 2.14,2.62l0.3 0c0.34,0.8 0.54,0.94 0.24,1.71 0,0.53 -0.34,0.7 -0.54,1.2 -0.27,-0.13 -0.97,0.71 -1.17,0.88 -0.4,0 -1.14,0.23 -1.91,0.23 -0.64,-0.4 -1.28,-0.9 -2.02,-1.04 -0.93,-0.74 -0.93,-0.74 -2.68,-1.74 -0.34,-0.44 -1.58,-1.14 -2.11,-1.28 -0.51,-0.63 -0.81,-0.77 -1.18,-1.17 -1.31,-0.47 -1.51,-1.91 -1.51,-3.02 0.57,-0.94 0.84,-1.04 1.04,-1.41 -0.84,-1.17 -1.04,-1.75 -2.58,-1.41 -1.91,-0.13 -3.99,0.3 -5.84,0.5 -0.07,0.68 -0.16,0.74 -0.1,1.35 0.47,0.16 0.84,0.3 1.18,0.63 0.47,0 1.1,0.71 1.44,1.01 1.64,0.94 3.86,2.62 4.8,4.33 0.06,0.03 0.16,0.07 0.26,0.1 0,0.13 0.04,0.3 0.07,0.47 0.91,0.43 2.75,2.75 2.92,3.79 0.1,0.03 0.24,0.07 0.37,0.1 0.03,0.23 0.07,0.5 0.13,0.77 0.1,0 0.21,0 0.31,0.03 0.16,0.57 0.77,2.22 1.24,2.35 0.03,0.44 0.06,0.91 0.1,1.38 -0.1,0.03 -0.2,0.07 -0.3,0.13 0.06,0.1 0.13,0.2 0.2,0.34 -0.27,0.57 -0.27,0.57 -0.51,0.74 0.04,0.06 0.07,0.13 0.14,0.23 -0.94,1.78 -1.61,3.22 -3.86,3.42 -0.47,0.34 -2.78,0.41 -3.02,-0.1 -0.5,-0.03 -1.71,-0.1 -1.88,-0.64 -1.74,-0.63 -3.62,-1.64 -5.03,-2.81 -1.84,-0.61 -3.16,-2.08 -5.1,-2.45 -0.07,0.1 -0.13,0.23 -0.17,0.37 -0.57,0.43 -0.53,0.94 -1.07,1.4 -0.54,2.05 -1.41,4.07 -1.91,6.18 -0.2,0.2 -0.34,0.67 -0.87,1.37 -0.21,1.21 1.74,4.94 2.54,5.74 1.11,0.03 2.59,0.24 3.49,0.91 1.14,0.16 2.32,0.64 3.16,1.47 0.1,-0.03 0.2,-0.03 0.33,-0.03l0 0.6c0.07,-0.1 0.17,-0.16 0.27,-0.23 0.2,0.37 0.33,0.87 0.74,1.07 -0.14,2.58 -0.71,3.69 -2.38,5.64 -0.57,1.44 -2.12,0.17 -3.16,0.87 -1.94,-0.5 -3.92,-1.41 -5.03,-3.22l-0.2 0c-0.44,-0.5 -0.84,-0.97 -1.24,-1.44l-0.27 0c-1.41,1.54 0.94,3.15 0.94,4.69 0.44,0.2 0.6,0.34 0.67,0.87 0.27,0.11 0.27,0.11 0.91,0.88 0.87,0.37 1.27,0.77 2.38,1.04 1.27,0.87 2.95,0.43 4.16,1.17 0.07,-0.07 0.13,-0.13 0.23,-0.17 1.38,0.44 4.6,-1.44 5.07,-2.65 2.41,-1.71 2.35,-6.23 1,-8.58 0.04,-0.14 0.07,-0.24 0.14,-0.34 -0.14,-0.17 -0.14,-0.17 -0.57,-0.33 -0.51,-0.74 -1.91,-3.02 -2.79,-3.02 -0.06,-0.14 -0.1,-0.27 -0.13,-0.41l-0.27 0c-0.13,-0.2 -0.23,-0.4 -0.33,-0.57 -0.54,0 -1.45,-0.33 -1.65,-0.77 -0.13,-0.03 -0.23,-0.07 -0.33,-0.07 -0.04,-0.13 -0.07,-0.26 -0.1,-0.37 -0.14,0 -0.27,0 -0.41,0.04 -0.06,-0.14 -0.13,-0.27 -0.16,-0.37 -0.44,-0.07 -0.81,-0.4 -1.21,-0.4 -0.77,-1.04 0.16,-3.93 0.53,-5 0.21,0.03 0.41,0.07 0.64,0.13 0.41,0.67 1.28,0.64 1.85,1.21 1.3,0.44 2.48,1.51 3.82,1.78 0,0.1 0,0.2 0.03,0.33 0.41,0.07 0.88,-0.03 1.01,0.44 0.17,-0.03 0.34,-0.07 0.54,-0.07 2.01,0.44 3.79,0.71 5.87,0.77 0.94,-1.4 3.15,-1.87 4.06,-3.38 1.34,-0.51 2.11,-2.18 3.55,-2.76 0.14,-0.63 1.18,-1.17 1.68,-1.67 0.37,-1.58 3.16,-2.22 3.66,-3.73 0.17,-0.13 0.33,-0.26 0.5,-0.36 -0.1,-0.37 3.73,-4.3 4.16,-5.17 0.57,-0.67 1.24,-1.14 1.55,-1.98 0.57,-0.4 0.53,-0.64 0.83,-1.21 0.57,-0.13 1.95,-2.71 2.15,-3.35 0.84,-0.37 0.54,-1.51 1.24,-1.98 0.51,-1.28 1.31,-2.28 1.68,-3.63 0.84,-1.1 0.84,-3.18 1.88,-4.22z"/>
  <path class="fil3" d="M96.8 190.85c-1.54,-1.54 -2.35,-1.1 -3.96,-0.16 -0.03,0.3 -0.06,0.5 -0.3,0.73 0,1.31 0.54,1.88 1.31,2.82 0.64,-0.03 1.27,-0.07 1.91,-0.07 0.44,-0.36 1.68,-1.91 1.14,-2.45 -0.03,-0.3 -0.06,-0.6 -0.1,-0.87z"/>
  <path class="fil3" d="M129.88 188.74c0,0.1 0,0.2 0.03,0.33 -0.74,0.64 -0.1,2.12 0.74,2.39l0 0.23c0.14,0.03 0.27,0.07 0.44,0.1 1.78,-0.17 1.94,-1.07 1.94,-2.82 -0.94,-1.17 -1.94,-1.04 -3.15,-0.23z"/>
  <polygon class="fil3" points="111.73,190.35 111.86,190.35 111.86,190.22 111.73,190.22 "/>
  <path class="fil3" d="M86.37 186.29c-0.07,-0.1 -0.14,-0.2 -0.17,-0.27 -0.44,-0.1 -0.84,-0.17 -1.24,-0.23 -0.94,-0.57 -4.63,-1.58 -5.74,-1.31 -0.3,-0.2 -0.6,-0.37 -0.87,-0.54 -1.18,-0.17 -3.29,-2.95 -4.09,-1.34 -0.14,0 -0.27,0.03 -0.37,0.07 0,1.74 3.45,3.12 4.83,3.45 0.54,0.81 3.62,0.2 4.66,1.24l0.61 0c0.06,0.1 0.13,0.2 0.2,0.34 0.84,0.2 2.48,0.6 2.95,1.31 0.6,-0.1 0.6,-0.1 0.84,-0.04 0.74,-0.37 1.14,-1.27 0.77,-2.04 -0.8,-0.3 -1.48,-0.64 -2.38,-0.64z"/>
  <polygon class="fil3" points="111.73,188.87 111.86,188.87 111.86,188.77 111.73,188.77 "/>
  <path class="fil3" d="M125.08 178.67l-0.27 0c-0.13,-0.16 -0.23,-0.33 -0.33,-0.5 -0.1,0 -0.2,0.03 -0.3,0.07 -0.04,-0.14 -0.07,-0.27 -0.1,-0.37 -0.84,-0.27 -0.71,-0.6 -1.11,-1.24 -0.24,-0.04 -0.47,-0.07 -0.71,-0.07 -0.26,-0.84 -1.91,-1.31 -2.31,-2.15 -0.1,-0.06 -0.2,-0.1 -0.27,-0.13 -0.6,0.81 -1.34,1.44 -2.18,1.91 -0.03,0.14 -0.07,0.27 -0.07,0.44 -1.44,1.04 -2.48,2.48 -3.89,3.56 -0.6,0.03 -2.24,-0.34 -2.48,-0.1 -0.6,-0.11 -1.64,0.03 -2.11,-0.24 -2.08,0.34 -4.47,-0.67 -6.45,-0.2 -0.13,-0.1 -0.13,-0.1 -2.58,-0.24 -0.1,0.07 -0.17,0.17 -0.23,0.27 0.67,0.74 1.37,1.68 2.14,2.25 0.3,0.64 0.94,0.87 1.28,1.54 -0.27,-0.06 -0.54,-0.1 -0.81,-0.13 -0.03,0.03 -0.06,0.07 -0.1,0.13 -1.61,-0.2 -4.02,0.34 -5.4,-0.57 -1.17,-0.16 -2.35,-0.54 -3.49,-0.87 0.04,-0.37 0.07,-0.74 0.14,-1.11 0.33,-0.2 1.34,-3.22 1.34,-3.75 0.91,-1.45 0.8,-3.66 1.81,-5 -0.37,-1.18 2.11,-5.71 2.65,-7.55 0.71,-0.47 0.74,-2.18 1.58,-2.89 1.17,0.37 2.25,0.94 3.42,1.11 -0.17,-0.74 -0.77,-1.31 -0.7,-2.21 -0.61,-1.01 -0.47,-2.85 -1.25,-3.63 0,-0.64 -0.43,-1.47 -0.57,-2.14 -0.1,0 -0.17,0 -0.23,0.03 -0.44,0.64 -0.61,1.24 -1.21,1.84 -0.03,0.27 0,0.54 -0.27,0.67 0.14,0.27 -0.7,0.91 -0.7,1.45 -1.08,1.07 -1.65,2.88 -2.62,4.16 -0.2,0.5 -0.43,1.44 -0.9,1.67 -0.1,0.48 -0.34,0.68 -0.47,1.15 -0.84,0.83 -1.08,2.21 -1.88,3.08 -0.24,1.28 -1.81,2.59 -2.02,3.96 -1.34,1.01 -1.81,3.39 -2.91,4.73 0.13,0.27 -0.64,0.77 -0.54,1.28 -0.47,0.97 -2.38,0.2 -3.19,0 -0.37,-0.57 -1.44,-0.1 -1.78,-0.78 -1.81,-0.97 -3.35,-1.91 -4.79,-3.59 -0.14,-0.03 -0.24,-0.06 -0.34,-0.1l0 -0.16 0.44 0c0,-0.17 0,-0.34 0.03,-0.47 0.24,-0.17 0.24,-0.17 0.64,-0.2 0.33,-1.45 2.51,-1.72 2.85,-3.16 0.3,-0.27 0.6,-0.67 1.04,-0.67 0.13,-0.77 1.11,-1.21 1.71,-1.75 0.91,-1.84 1.91,-0.43 3.05,0.04 0.84,-0.84 -0.43,-6.37 -0.5,-8.12 -0.3,0.34 -0.81,1.01 -1.28,1.01 -0.8,1.17 -1.74,2.04 -2.91,2.85 0,0.37 -0.27,0.6 -0.51,0.87 -1.1,0.54 -1.64,2.18 -2.85,2.58 -0.67,1.35 -2.35,2.19 -3.19,3.46 -1,0.4 -1.14,1.51 -2.11,1.85 0,0.03 0,0.06 0.04,0.13 -0.21,0.03 -0.38,-0.17 -0.71,-0.3 -0.07,-0.2 -0.14,-0.37 -0.2,-0.54l-0.3 0c-0.67,-0.94 -1.78,-1.71 -2.62,-2.55 0.74,-0.37 1.84,-1.98 2.65,-1.98 0.03,-0.13 0.07,-0.27 0.1,-0.4 1.68,-1.01 2.78,-2.92 4.6,-3.62 0.17,-0.87 1.14,-1.45 1.98,-1.65 0.5,0.61 1.88,1.28 2.58,1.68 0.03,-0.03 0.1,-0.07 0.17,-0.1 -0.1,-0.44 0.03,-0.8 -0.1,-1.24 0.06,-0.77 0.63,-6.78 0.23,-7.18 -0.64,0.54 -1.14,1.11 -1.94,1.34 -0.14,0.47 -0.61,0.74 -1.01,1.04 -0.07,-0.07 -0.13,-0.1 -0.17,-0.13 -0.67,0.77 -1.71,1.51 -2.62,2.01 -1,1.34 -4.02,2.42 -4.49,3.82 -0.54,0.27 -1.07,0.54 -1.61,0.84 -0.13,0.44 -0.87,0.84 -1.21,1.31 -0.64,0.14 -1.07,0.71 -1.54,1.14 -0.5,-0.3 -0.74,-0.87 -1.28,-1.17 0,-0.1 0.04,-0.2 0.07,-0.27 -0.74,-0.27 -1.04,-0.84 -1.68,-1.04 -0.17,-0.4 -0.23,-0.5 -0.53,-0.81 0.63,-0.83 2.14,-1.07 3.02,-1.81 0.26,0.07 0.9,-0.54 1.44,-0.54 0.03,-0.13 0.06,-0.26 0.13,-0.36l0.4 0c0.07,-0.14 0.14,-0.24 0.24,-0.34 1.58,-0.47 3.19,-1.57 4.63,-2.42 0.8,0.14 1.34,1.18 2.28,1.18 0.33,-1.11 0.44,-2.28 0.94,-3.32 0.17,-1.11 0.71,-3.36 1.58,-4.03 0,-0.97 0.63,-1.68 0.9,-2.61 0.14,-0.07 0.14,-0.07 0.71,0.16 -0.04,0.1 -0.04,0.2 -0.04,0.34l0.31 0c0.6,1 2.44,1.64 3.38,2.45 0.68,0.07 1.11,0.3 1.61,0.7 0.1,-0.06 0.21,-0.1 0.34,-0.13 0.17,0.17 0.17,0.17 0.23,0.5 0.17,-0.03 0.34,-0.07 0.54,-0.07 0,0.07 0.03,0.14 0.07,0.24 1.11,-0.24 2.05,-0.47 2.75,-1.44 1.98,-0.71 1.17,-4.94 0.27,-6.04 -2.89,0.13 -4.33,1.1 -5.51,3.86 -0.63,0.2 -1.4,-0.57 -1.81,-0.94 -1.67,-0.67 -2.95,-1.92 -2.75,-3.76 0.91,-0.67 1.48,-2.28 2.45,-3.09 -0.1,-1.47 -0.16,-2.85 -0.13,-4.36l-1.51 0c-0.4,0.54 0.03,1.01 0.1,1.68 -0.14,1.1 -0.4,4.16 -1.98,4.46 -0.4,-0.5 -0.67,-1.01 -1.17,-1.51 0.06,-0.17 0.13,-0.33 0.23,-0.47 -0.07,-0.13 -0.1,-0.27 -0.13,-0.37 0.03,-0.97 -0.2,-4.76 0.57,-5.27 0.3,-0.7 0.37,-0.87 1.04,-1.2 0.03,-0.64 0.1,-1.24 0.16,-1.85 -0.4,0.04 -0.97,0.31 -1.24,0.04 -0.63,0.77 -1.94,1 -2.88,1.57 -0.07,-0.03 -0.14,-0.06 -0.2,-0.1 -0.07,0.1 -0.1,0.24 -0.14,0.37 -0.13,-0.03 -0.27,-0.03 -0.4,-0.03 -0.03,0.06 -0.07,0.17 -0.1,0.27l-19.5 7.37 -0.04 0.37 -6.38 2c0.24,1.58 0.67,2.78 1.87,3.98 0.93,-0.67 2.21,-1.08 3.28,-1.48l18.89 -9.26c0.74,-0.27 0.74,-0.27 1.18,-0.23 0.2,0.77 0.2,0.77 1.1,2.61 0.07,0 0.14,0.04 0.24,0.07l0 0.44c0.57,0.17 1.3,2.45 1.91,3.05 0.03,0.14 0.07,0.3 0.1,0.47 1.01,0.74 1.34,2.98 2.35,3.32 0.03,0.3 0.06,0.64 0.1,0.97 -0.34,0.21 -0.67,0.41 -0.97,0.64 -0.04,0.14 -0.07,0.3 -0.07,0.47 -0.84,0 -1.07,1.31 -1.85,1.44 -0.23,0.78 -1.31,1.48 -2.04,1.71 -0.14,0.41 -2.05,1.95 -2.45,2.02 -0.04,0.1 -0.04,0.2 -0.04,0.3 -0.97,0.13 -1.34,0.74 -2.18,1.01 -0.03,0.1 -0.06,0.2 -0.06,0.33 -0.21,0 -0.37,0 -0.54,0.03 -0.1,0.34 -3.19,1.78 -3.66,1.78 -0.43,0.34 -0.74,0.54 -1.27,0.61 -2.39,1.1 -6.68,2.75 -9.4,2.45 -0.06,0.1 -0.06,0.1 -1.91,0.16 -0.13,-0.13 -3.82,-1 -4.12,-0.9 -0.04,-0.1 -0.07,-0.2 -0.07,-0.27 -0.17,0.03 -0.3,0.07 -0.44,0.1 -0.53,-0.54 -1.37,-0.8 -2.04,-0.94 -0.17,-0.5 -2.32,-1.37 -2.82,-1.64 -1.24,0 -1.64,-2.05 -2.75,-2.45 0,-0.57 -1.31,-2.75 -1.71,-2.62 -0.04,-0.2 -0.04,-0.37 -0.04,-0.54 -0.1,-0.03 -0.2,-0.06 -0.27,-0.1 -0.06,-0.13 -0.1,-0.23 -0.13,-0.33l-0.2 0c-0.13,-0.27 -0.74,-1.41 -0.64,-1.75 -0.13,-0.06 -0.27,-0.13 -0.37,-0.16 0,-0.51 -0.74,-2.35 -1.1,-2.72 -0.24,-1.34 -0.24,-1.34 -0.47,-2.05 -0.07,-2.01 -0.57,-4.93 0.36,-6.84 -0.1,-1.54 0.88,-3.39 1.38,-4.8 0.34,-0.17 0.74,-1.31 0.84,-1.68 0.7,-1.04 1.81,-2.14 2.35,-3.25 1.04,-0.5 2.01,-1.51 2.68,-2.42 0.47,-0.36 0.47,-0.36 1.04,-0.57 0,-0.1 0,-0.2 0.03,-0.3l0.24 0c0,3.42 0.81,6.74 1.14,10.2 0.34,0.33 0.47,1.04 0.54,1.51 0.61,0.42 1.13,0.53 1.82,0.54l0.1 -0.02c0.06,-0.13 0.16,-0.22 0.26,-0.32 0.25,0.04 0.47,0.1 0.65,0.19l2.07 -0.3c1.1,-0.28 3.12,-0.53 3.72,-1.13 1.74,0.3 3.76,-1.34 5.47,-1.01 0.06,-0.13 0.16,-0.23 0.27,-0.33 0.93,0.13 2.58,-0.6 3.52,-0.77 0.84,-0.64 2.11,-0.37 2.98,-0.94 0.41,0.2 0.74,-0.14 1.18,-0.31 0.06,0.04 0.13,0.07 0.23,0.14 0.77,-0.37 1.35,-0.5 2.22,-0.57 0.33,-0.34 0.94,-0.4 1.37,-0.47 0.1,0.1 0.2,0.23 0.34,0.37 -0.07,0.1 -0.1,0.2 -0.14,0.33 0.37,0.51 0.47,1.45 0.57,2.05 0.78,0.37 4.47,-3.76 4.47,-4.36 0.33,-0.17 0.63,-0.57 0.53,-0.94 -1.34,-0.13 -3.15,-0.13 -4.39,-0.47 -0.88,0.87 -3.29,0 -4.4,0.74l-0.8 0.1c-0.34,-0.61 -0.97,-0.94 -1.11,-1.65 0.2,-0.3 0.44,-0.6 0.67,-0.87 0.24,-0.7 0.44,-3.02 0,-3.45 -0.8,0 -2.04,0.2 -2.75,-0.14 -0.27,0.14 -0.5,0.1 -0.74,-0.06l0 -1.65c1.14,-1.41 1.14,-1.41 1.14,-1.61 -1.27,-0.74 -1.14,-3.75 -1.14,-5.06 -1.47,1.1 -0.87,3.38 -1,5.1 -1.28,1.64 -1.55,4.82 -0.84,6.77 -0.07,0.27 -0.1,0.57 -0.14,0.87 0.41,0.14 0.41,0.14 0.81,0.47 0.67,0.1 1.91,0.17 1.91,1.14 -0.23,0.11 -0.23,0.11 -0.64,0.54 -1.84,0 -4.62,0.77 -6.34,1.58 -0.3,-0.04 -0.77,-0.24 -0.94,0.1 -0.7,0.1 -1.37,0.2 -2.04,0.33 -1.11,0.74 -3.12,0.71 -4.43,0.88 -1.68,-0.61 -0.67,-2.45 -1.41,-3.56 0.03,-0.57 0.03,-0.57 -0.37,-5.77 0.2,-0.27 0.2,-0.87 -0.06,-1.14 0.1,-0.13 0.1,-1.41 0.23,-1.58 -0.5,-0.63 -0.2,-4.96 0,-5.16 -0.07,-1.15 0.07,-5.17 0.54,-5.81 0.03,-0.53 -0.04,-1.14 0.16,-1.57l0.34 0c0.03,0.1 0.07,0.2 0.13,0.3 1.34,0.13 2.89,1.71 4,1.71 0.06,0.1 0.13,0.23 0.2,0.37 0.06,-0.07 0.13,-0.1 0.2,-0.14 1.84,0.44 3.82,2.52 5.77,2.82 0.1,0.1 0.2,0.2 0.3,0.34 0.53,-0.54 0.1,-1.98 0.43,-2.69 -0.06,-2.85 0.31,-5.67 0.31,-8.48 0.16,-0.34 0.03,-0.67 0,-1.04 0.3,-0.71 0.57,-4.16 0.23,-4.84 -0.23,0.24 -0.74,0.04 -1.07,0.04 -0.97,0.53 -1.95,1.07 -2.89,1.64 -1.87,0.17 -4.29,2.48 -6.14,2.08 0.04,-0.53 -0.03,-0.77 0.27,-1.21 -0.16,-0.36 -0.06,-0.73 -0.03,-1.1 0.07,-0.04 0.13,-0.07 0.23,-0.1 0.14,-0.47 0.14,-0.47 0.11,-0.88 0.63,-1.1 0.57,-2.95 1.47,-3.85 -0.07,-0.1 -0.1,-0.21 -0.13,-0.31 0.47,-0.87 0.47,-0.87 0.9,-2.01 0.94,0.24 1.88,0.31 2.59,1.01 0.1,-0.03 0.23,-0.07 0.37,-0.1 1.87,0.53 3.92,1.47 5.93,1.81 0.27,0.27 2.15,0.91 2.59,0.91 1.3,0.73 4.09,0.63 5.1,1.64 0.5,0 0.5,0.03 0.87,0.27 1.44,0.23 2.88,0.53 4.26,1.04 0.3,3.52 0.3,3.52 0.43,3.65 1.95,-1.1 4.37,-0.9 6.35,-1.81 0.77,-0.13 1,-0.33 1.24,-0.33 0.06,-0.54 -0.64,-0.67 -1.01,-0.77l0 -0.31c-0.47,-0.07 -1.71,-0.6 -1.81,-0.94 -0.5,0.1 -1.04,-0.13 -1.31,-0.57 -0.17,-0.03 -0.3,-0.06 -0.44,-0.06 -0.03,-0.1 -0.06,-0.2 -0.1,-0.27 -0.5,-0.17 -1.14,-0.24 -1.44,-0.71 -0.23,-0.03 -0.47,-0.03 -0.7,-0.03 -0.04,-0.13 -0.07,-0.27 -0.1,-0.37 -1.15,0 -1.98,-1.01 -3.19,-1.14 -0.57,-0.3 -2.35,-1.41 -2.92,-1.41 -0.07,-0.1 -0.13,-0.2 -0.2,-0.27 -0.07,0.04 -0.13,0.07 -0.17,0.14 -0.87,-0.37 -0.87,-0.37 -1.27,-0.71 -0.78,0.07 -3.73,-1.37 -4.1,-1.74 -1.54,0 -2.85,-1.58 -4.36,-1.58 -0.03,-0.1 -0.03,-0.2 -0.03,-0.27 -0.71,-0.16 -1.07,-0.16 -1.44,-0.8 -0.1,0.07 -0.2,0.13 -0.27,0.2 -0.07,-0.1 -0.14,-0.17 -0.17,-0.24 -0.27,-0.03 -0.5,-0.06 -0.74,-0.1 -0.44,-0.57 -1.07,-0.4 -1.37,-1.04 -0.14,0 -0.27,0 -0.41,0.04 -0.16,-2.35 1.85,-3.89 2.32,-6.01 0.74,0.24 3.69,-0.94 4.56,-0.97 0.03,-0.1 0.07,-0.17 0.1,-0.24 0.54,0.07 1.41,-0.33 1.98,-0.47 0.2,-1.34 0.27,-3.05 0.27,-4.39 0.54,-0.91 -0.47,-2.99 1.21,-2.99 0,-0.13 0,-0.23 0.03,-0.33 0.97,-0.81 1.88,-2.69 3.12,-3.09 1.31,-1.3 1.01,-1.44 2.62,-0.7 0,0.13 0.03,0.27 0.06,0.43 0.44,0.14 0.58,0.57 1.05,0.71 0.43,1.37 2.64,2.35 3.22,3.69 0.73,0.37 1.2,1.27 1.94,1.78 0.27,1.4 1.98,2.11 2.32,3.45 0.63,0.91 1.61,2.18 1.94,3.22 0.14,0 0.27,0 0.44,0.04 0.2,0.6 0.6,1.74 1.2,2.01 -0.03,0.1 -0.03,0.2 -0.03,0.3 0.07,0.03 0.17,0.07 0.27,0.13 0.1,0.71 0.1,0.71 0.23,0.88 -0.53,0.2 -1.91,0.77 -2.51,0.77 0,1.07 -0.71,2.15 -0.77,3.29 -0.47,1.81 -0.54,2.81 -0.27,4.66l0.23 0c0.07,-0.37 0.07,-0.37 0.37,-0.67 0,-0.64 1.38,-1.98 1.92,-2.38 -0.04,-0.07 -0.04,-0.14 -0.04,-0.2 0.81,-0.41 1.31,-1.14 2.28,-1.51 0.88,0.16 1.78,0.33 2.69,0.53 0.03,0.07 0.06,0.14 0.1,0.24 0.6,0.2 1.44,0.4 1.94,0.8 0.04,-0.1 0.1,-0.2 0.17,-0.27 0.44,0.04 0.44,0.04 0.97,0.24 -0.9,-2.95 -2.51,-4.09 -5.16,-5.23 -0.54,-1.01 -0.81,-2.69 -1.61,-3.39 -0.64,-2.18 -1.92,-3.99 -3.06,-5.97 -0.13,-0.14 -0.27,-0.27 -0.4,-0.41 -0.53,-1.1 -2.01,-2.55 -2.28,-3.62 -0.1,-0.03 -0.17,-0.07 -0.24,-0.1 -0.1,-0.54 -0.3,-0.67 -0.7,-1.01 -0.47,-1.07 -1.84,-1.98 -2.08,-3.15 -1.31,-1.31 -2.92,-3.45 -3.55,-5.13 -0.14,-0.04 -0.27,-0.07 -0.38,-0.1 -0.09,-0.24 -0.2,-0.47 -0.3,-0.71 -0.27,-0.07 -1.24,0.77 -1.71,0.84 -0.03,0.13 -0.06,0.27 -0.1,0.4 -0.06,-0.07 -0.13,-0.1 -0.16,-0.13 -0.17,0.17 -0.17,0.17 -0.71,0.23 -0.54,0.71 -1.08,1.28 -1.88,1.68 -0.2,0.3 -0.37,0.77 -0.77,0.77 -0.67,0.74 -1.54,1.11 -2.01,1.95 -1.14,0.67 -1.88,1.61 -2.65,2.75 -0.3,0.17 -4.13,0.64 -4.33,0.43 -0.17,0.14 -1.85,0.14 -2.89,0.27 -0.06,1.38 -0.1,2.75 -0.13,4.16 0.3,0.41 0.17,3.06 -0.1,3.59 0.07,0.07 0.17,0.14 0.27,0.21 -0.07,0.13 -0.1,0.26 -0.14,0.4 0.04,0.03 0.07,0.1 0.14,0.16 -0.1,0.21 -0.17,0.44 -0.24,0.68 -0.1,0 -0.17,0.03 -0.23,0.06 -0.07,0.24 -0.14,0.47 -0.2,0.71 -0.1,0 -0.21,0 -0.31,0.03 -0.06,0.51 -0.3,1.04 -0.77,1.34 0.1,0.24 -0.73,1.08 -0.84,1.55 -0.23,0.06 -0.36,0.46 -0.57,0.56l0 0.34c-1.64,2.45 -2.48,5.27 -3.72,7.92 -0.07,0.44 -0.13,1.44 -0.54,1.64 0,1.04 -0.74,2.32 -0.9,3.43 -0.77,0.77 -0.24,2.65 -1.11,3.52 -0.07,0.97 -0.3,1.61 -0.57,2.55 -0.4,3.62 -1.21,6.81 -1.21,10.33 -0.1,0.04 -0.17,0.07 -0.23,0.1 0.16,0.6 0.1,1.74 0,2.38 -0.04,2.92 -0.04,5.94 0.27,8.89 -0.34,0.14 -0.34,0.14 -1.25,1.01 -0.06,-0.04 -0.13,-0.04 -0.16,-0.04 -0.51,0.64 -2.15,2.12 -2.82,2.12 -0.3,0.6 -1.44,1.41 -2.08,1.68 -0.07,0.23 -0.13,0.46 -0.2,0.73 -0.1,0 -0.2,0 -0.3,0.04 0.23,1.21 -2.15,2.45 -2.15,3.39 -0.4,0.67 -0.81,1.34 -1.21,2.01 -0.07,0.9 -0.13,2.35 -0.74,2.95 0.1,0.64 -0.27,1.34 0,1.88 -0.17,0.33 -0.06,0.5 0,0.84 -0.37,0.8 -0.27,2.95 0.14,3.79 -0.1,0.07 -0.2,0.13 -0.31,0.2 0.48,0.3 0.31,0.67 0.27,1.11 0.47,0.94 0.61,2.31 0.61,3.35 0.03,0 0.1,0 0.17,0.04 0.03,0.3 0.06,0.6 0.13,0.94 0.07,0.03 0.17,0.06 0.27,0.1 0.03,0.4 0.1,0.8 0.17,1.2 0.1,0.07 0.2,0.14 0.33,0.24 0.07,0.67 0.6,1.34 0.47,1.94 0.2,0.17 0.2,0.17 1.11,1.85 -0.07,0.03 -0.11,0.1 -0.14,0.17 1.21,1.34 1.92,2.98 3.42,4.12 0,0.07 0.04,0.14 0.07,0.24 1.01,1.17 2.65,1.98 3.93,2.78 1.47,0.41 3.08,1.18 4.43,1.91 0.03,-0.06 0.06,-0.1 0.13,-0.13 1.38,0.13 2.58,0.71 3.99,0.57 1.51,0.41 3.12,-0.3 4.63,-0.17 1.41,-0.73 2.45,-0.67 2.92,1.08 0.6,0.37 2.18,1.81 2.18,2.41 0.5,0.1 0.94,0.4 0.94,0.94 0.37,0.17 0.64,0.27 0.74,0.64 0.5,0 2.18,1.61 2.18,2.15 0.13,0.03 0.3,0.06 0.47,0.13 0.54,0.74 1.78,1.14 2.11,2.01 1.21,0.47 2.12,2.08 3.49,2.45 0.1,0.47 0.23,0.51 0.77,0.57 0.47,0.74 1.31,1.28 2.15,1.45 0.87,0.97 2.52,1.27 3.25,2.24 0.07,-0.03 0.14,-0.03 0.21,-0.03 0.03,0.1 0.06,0.2 0.13,0.3 0.7,-0.17 1.11,0.3 1.54,0.74 0.1,-0.03 0.2,-0.03 0.34,-0.03 0.3,0.47 4.22,1.94 5.03,2.24 0,0.07 0.03,0.14 0.07,0.24 0.16,-0.03 0.33,-0.07 0.53,-0.1 1.05,0.67 3.22,0.7 3.96,1.44 1.55,0 3.19,1.11 4.73,1.11 0.61,0.23 1.81,0.2 2.18,0.57 0.67,0 1.31,0.07 2.02,0.47 0.06,-0.07 0.16,-0.14 0.27,-0.17 0.46,0.3 6.07,1.11 6.27,0.91 0.47,0.36 1.68,-0.07 2.01,0.53 0.14,-0.03 0.3,-0.07 0.47,-0.1 -0.33,-0.8 -0.7,-1.34 -1.37,-1.98 -0.37,-1.11 -1.82,-1.68 -1.82,-2.95 0.21,-0.07 0.81,0.07 0.88,0.17 0.47,-0.27 4.22,0.07 4.79,0.43 1.21,0.07 2.42,0.14 3.63,0.2 1.57,0.84 2.81,2.42 4.39,3.29 0.24,-0.43 0.67,-0.97 1.24,-0.97 0.17,-0.77 1.34,-1.28 1.34,-1.88 0.47,0.14 1.08,-1.1 1.72,-1.31 0.03,-0.13 0.06,-0.26 0.1,-0.37 1.07,-0.43 1.27,-1.61 2.34,-1.87 0.14,-0.37 0.14,-0.37 0.47,-0.81 -0.1,-0.4 -0.23,-0.47 -0.27,-0.8 -0.6,-0.07 -1.34,-0.54 -1.54,-1.15zm-35.26 -31.83l0 0c0.07,1.44 0.74,2.75 -0.6,3.76 -0.44,0.16 -0.87,0.33 -1.31,0.5 -0.23,-0.44 -0.67,-0.6 -0.94,-0.98 -0.37,-2.11 0.34,-3.72 2.85,-3.28zm-34.82 -44.08l0 0c0.03,-0.07 0.07,-0.14 0.1,-0.2 0.97,0 1.68,-0.98 2.65,-0.84 0,1.14 0,2.28 0.04,3.42 -0.47,0.7 0.5,0.7 -0.61,0.87l0 -0.2c-0.23,-0.07 -0.47,-0.1 -0.67,-0.13l0 -0.21c-0.4,-0.23 -0.5,-0.37 -1.01,-0.37 -0.6,-0.9 -2.38,-0.56 -2.58,-1.77 0.67,0.33 1.38,-0.34 2.08,-0.57zm4.53 -29.22l0 0c0.34,0.1 0.84,0 1.07,-0.24 2.45,-0.43 2.45,-0.43 3.39,-0.5 -0.07,1 -0.07,1 -0.3,1.64 0.03,0.04 0.07,0.1 0.13,0.17 -0.4,0.64 -0.23,1.44 -0.23,2.15 -0.84,0.83 -2.92,0.23 -4.19,0.63 -0.11,-0.06 -0.21,-0.13 -0.27,-0.2 -0.04,-1.04 -0.17,-2.88 0.4,-3.65zm-6.94 29.79l0 0 -0.34 0c-0.03,-0.07 -0.07,-0.14 -0.1,-0.17 -0.17,-0.04 -0.34,-0.04 -0.47,-0.04 -0.04,-0.23 -0.04,-0.43 -0.04,-0.63 0.31,0.3 0.81,0.43 0.95,0.84zm-1.45 -0.77l0 0c0.04,0 0.1,0.03 0.17,0.06 -0.07,0.04 -0.13,0.1 -0.17,0.17l0 -0.23zm-0.33 -0.44l0 0 0.2 0 0 0.2 -0.2 0 0 -0.2zm55.02 81.72l0 0 -0.24 0 0 -0.2 0.24 0 0 0.2zm13.45 -0.1l0 0c-0.04,0.14 -0.04,0.27 -0.04,0.44l-0.23 0c-0.74,-0.98 -2.05,-1.82 -3.02,-2.52l0 -0.23c0.74,-0.64 1.44,-2.02 2.32,-2.18 0.03,-0.2 0.13,-0.81 0.5,-0.71 0.37,1.18 2.48,1.65 2.82,2.99 -0.81,0.33 -1.38,1.81 -2.35,2.21z"/>
  <polygon class="fil3" points="147.19,187.87 147.19,188 147.29,188 147.29,187.87 "/>
  <path class="fil3" d="M156.35 186.86c0.4,-0.03 0.81,-0.03 1.24,-0.03 1.64,-1.31 0.97,-1.58 0.34,-3.32 -2.15,-0.84 -2.96,1.97 -1.58,3.35z"/>
  <polygon class="fil3" points="105.59,183.84 105.83,183.84 105.83,183.64 105.59,183.64 "/>
  <path class="fil3" d="M161.45 179.51c-1.78,0.58 -1.81,1.58 -1.28,3.23 0.14,0 0.27,0.03 0.41,0.06 -0.04,0.07 -0.07,0.17 -0.07,0.27 0.13,-0.1 0.3,-0.2 0.47,-0.3 0.13,0.07 0.3,0.13 0.47,0.23 0.2,-0.2 0.27,-0.23 0.64,-0.23 0.47,-0.57 0.47,-0.57 0.9,-1.34 -0.2,-1.01 -0.5,-1.58 -1.54,-1.92z"/>
  <polygon class="fil3" points="112.07,177.8 112.07,177.94 112.2,177.94 112.2,177.8 "/>
  <polygon class="fil3" points="145.75,173.78 145.75,173.68 145.61,173.68 145.61,173.78 "/>
  <path class="fil3" d="M105.12 164.31c-0.1,-0.03 -0.17,-0.06 -0.23,-0.1 -1.78,0.95 -3.29,2.22 -3.29,4.5 -0.1,0.1 -0.17,0.2 -0.24,0.3l0.17 0c0.27,0.44 0.37,1.14 0.6,1.65 0.11,0 0.21,0 0.31,0.03 0.44,0.74 1.14,1.04 1.81,1.54 2.79,-0.2 3.56,-0.8 5.17,-2.78 0.23,-1.81 0.23,-1.81 0.36,-2.08 -0.33,-0.61 -0.63,-2.55 -1.57,-2.55 -1.11,-0.74 -1.71,-0.94 -3.09,-0.51zm2.42 5.04l0 0c-0.4,0.4 -1.14,0.77 -1.68,1.04 -0.07,-0.07 -0.14,-0.1 -0.17,-0.14 -0.13,0.04 -0.23,0.11 -0.33,0.17 -1.71,-0.47 -1.75,-0.8 -1.85,-2.58 0.5,-1.68 2.69,-2.75 3.93,-1.21 0.16,0.07 0.33,0.13 0.5,0.23 0,0.84 -0.13,1.65 -0.4,2.49z"/>
  <path class="fil3" d="M125.92 164.21c-0.74,0.21 -2.95,0.78 -3.69,0.54 -0.87,0.87 -3.45,-0.13 -4.23,1.01 -0.5,0.07 -2.95,0.4 -3.35,0 -0.5,-0.03 -1.98,0 -2.18,-0.44 -0.51,0.37 -0.67,1.01 -1.04,1.54 0.06,0.07 0.13,0.17 0.23,0.27 0.07,-0.06 0.14,-0.1 0.24,-0.13 0.43,0.27 1.04,0.34 1.64,0.64 0.44,0.1 1.28,0.06 1.54,0.33 1.18,-0.03 3.93,0.07 4.7,-0.94 1.88,-0.6 4.8,-0.37 6.88,-0.33 0.7,-0.4 0.8,-1.24 0.67,-2.02 -0.4,-0.4 -0.94,-0.16 -1.41,-0.47z"/>
  <path class="fil3" d="M143.16 156.4c0.27,-0.64 0.57,-0.94 1.25,-0.94 0.03,-0.34 0.03,-0.34 0.47,-1.34l0.4 0c0,-0.14 0.03,-0.27 0.07,-0.37 1.2,-0.91 0.84,-2.79 2.51,-3.49 0.24,-1.04 1.95,-2.28 2.72,-3.02 -0.04,-0.47 -0.07,-0.91 -0.1,-1.34 -0.34,-0.24 -0.67,-0.47 -0.97,-0.71 -0.34,0.34 -0.57,0.67 -1.11,0.67 -0.37,0.51 -1.01,1.18 -1.01,1.85 -0.17,0 -0.3,0 -0.43,0.03 -0.04,0.17 -0.04,0.34 -0.04,0.51 -0.47,0.27 -0.47,0.3 -0.67,0.8 -0.8,0.27 -0.84,1.78 -1.68,2.05 0,0.97 -1.54,2.72 -2.08,3.39 -1.37,0.57 -2.35,1.31 -2.35,2.85l0.24 0 0 0.33c0.97,-0.13 1.85,-1.27 2.78,-1.27z"/>
  <path class="fil3" d="M205.97 126.04c-0.07,-0.1 -0.1,-0.2 -0.14,-0.3 0.1,-1.01 -0.2,-5.54 -0.33,-5.64 -0.47,-2.05 -0.68,-2.42 -0.68,-2.85 -0.73,-1.81 -1.94,-3.39 -2.78,-5.1 -0.77,-0.87 -2.35,-1.75 -2.68,-2.82 -1.18,-0.57 -2.08,-1.48 -3.05,-2.35 -0.68,0 -1.38,-0.43 -1.88,-0.8 -0.41,0 -2.12,-0.14 -2.25,-0.34 -1.01,-0.1 -5.84,-1.17 -6.88,-0.4 -0.07,-0.07 -0.13,-0.1 -0.17,-0.13 -2.85,0.26 -5.87,1.57 -8.35,2.88 -0.03,0.54 0,0.84 0.47,0.97 0.1,0.61 0.3,1.21 1.01,1.38 -0.04,0.13 -0.04,0.27 -0.04,0.43 1.01,0.41 1.68,1.08 2.35,1.92 0.71,0.27 0.97,0.77 1.71,0.97 0.1,0.4 0.64,0.77 1.08,0.77 0.03,0.1 0.06,0.2 0.13,0.34 1.64,0.8 3.22,2.41 5,2.61 -0.03,-0.1 -0.07,-0.2 -0.1,-0.26 0,-2.96 -0.1,-5.98 -0.24,-8.93 0.27,0.04 0.27,0.04 0.61,-0.2 1.5,0.27 3.69,-0.34 4.89,0.87 0.1,-0.03 0.21,-0.06 0.34,-0.1 1.14,0.71 2.52,1.08 3.25,2.21 0.98,0.48 2.19,1.99 2.59,2.96 0.03,-0.04 0.06,-0.04 0.13,-0.04 0.24,0.71 1.01,1.45 1.01,2.32 0.1,0 0.2,0 0.3,0.03 0.03,0.27 0.1,0.54 0.17,0.81 0.7,0.87 0.7,2.18 1.27,3.19 0.34,1.67 1.88,7.14 1.21,7.81 0.37,1.01 -0.1,5.94 -0.91,6.75 0.34,0.87 -0.5,1.74 -0.6,2.65 -0.1,0.03 -0.2,0.06 -0.27,0.1 0,2.34 -3.05,5.36 -4.06,7.38 -0.2,0.1 -0.4,0.2 -0.57,0.3 -0.13,0.54 -0.9,1.11 -1.27,1.71 -0.54,0.5 -1.34,0.87 -1.68,1.54 -0.13,-0.03 -0.23,-0.06 -0.34,-0.1 -0.2,0.2 -0.36,0.4 -0.53,0.64l-0.24 0c0.14,0.47 -0.7,0.77 -1.04,0.9 -0.03,0.07 -0.06,0.17 -0.06,0.27 -0.1,0 -0.2,0 -0.31,0.04 -0.13,0.43 -2.48,1.84 -3.08,1.84 -0.04,0.1 -0.07,0.2 -0.1,0.34 -0.5,0.13 -0.87,0.43 -1.41,0.5 -0.91,0.91 -3.56,1.11 -4.77,1.31 0,0.74 -0.1,1.44 0.64,1.81 0.74,-0.47 1.91,-0.57 2.79,-1.07 0.83,0 3.55,-1.14 3.82,-1.71 2.38,-0.51 4.16,-3.12 6.31,-4.13 0.43,-0.87 1.41,-1.38 1.94,-2.21l0.24 0c0.27,-0.71 1.07,-1.45 1.71,-1.92 0.7,-1.4 2.21,-2.61 2.65,-4.16 0.1,-0.03 0.2,-0.06 0.34,-0.06 0,-0.17 0,-0.34 0.03,-0.51 0.64,-0.3 1.17,-2.04 1.44,-2.75 0.3,-2.11 0.74,-4.16 1.11,-6.27 0.03,-0.4 -0.07,-3.09 0.27,-3.42 -0.07,-0.04 -0.14,-0.07 -0.17,-0.1 0,-0.64 -0.1,-1.34 0.17,-1.88zm-21.78 -15l0 0c-0.23,0.03 -0.47,0.07 -0.67,0.13 -0.27,-1.1 -1.87,-1.13 -2.11,-1.91 0.94,-0.16 1.88,-0.33 2.82,-0.5 0.07,0.44 -0.1,0.81 -0.04,2.28z"/>
  <polygon class="fil3" points="202.21,142.71 202.31,142.71 202.31,142.58 202.21,142.58 "/>
  <path class="fil3" d="M191.84 139.79c0.27,0.03 0.57,0.1 0.88,0.17 0.03,0.07 0.06,0.17 0.09,0.27 1.75,-0.27 3.39,-1.88 2.29,-3.72 -0.04,-0.14 -0.04,-0.27 -0.04,-0.41 -0.23,-0.07 -0.47,-0.1 -0.67,-0.13 -0.06,-0.14 -0.1,-0.27 -0.13,-0.41 -0.37,0.07 -0.74,-0.06 -1.01,-0.33 -2.28,1.01 -2.51,2.55 -1.41,4.56z"/>
  <path class="fil3" d="M193.29 132.08c0.5,0.03 0.5,0.03 0.77,0.23 0.2,-0.17 0.2,-0.17 0.9,-0.3 0.31,-0.27 0.61,-0.54 0.91,-0.81 0.6,-2.14 -0.24,-3.28 -2.32,-3.45 -0.77,0.37 -1.2,0.6 -1.71,1.31 0.04,0.06 0.1,0.13 0.17,0.2 -0.87,0.87 0.67,2.38 1.28,2.82z"/>
  <polygon class="fil3" points="172.45,129.73 172.45,129.83 172.59,129.83 172.59,129.73 "/>
  <path class="fil3" d="M158.87 123.52l0 0.61c-0.88,2.14 -0.07,3.38 1.61,4.76 0.03,-0.07 0.1,-0.1 0.16,-0.13 0.14,0.09 0.14,0.09 1.65,0.13 0.03,0.03 0.07,0.1 0.1,0.17 2.21,-0.61 3.18,-1.58 3.99,-3.79 -0.27,-2.62 -0.94,-3.43 -3.56,-4.13 -2.34,0.17 -2.51,1.31 -3.95,2.38zm1.4 0.94l0 0c0.07,-0.03 0.17,-0.07 0.27,-0.07l0 -0.3c0.27,-0.1 0.34,-0.33 1.11,-0.97 2.01,-0.33 2.62,0.87 2.35,2.85 -0.44,0.27 -0.97,0.84 -1.38,1.24 -0.13,-0.03 -0.26,-0.06 -0.4,-0.1 -0.13,0.3 -0.71,0.24 -1.04,0.27 -0.27,-0.33 -0.7,-0.57 -0.97,-0.97 0,-0.67 0.03,-1.31 0.06,-1.95z"/>
  <path class="fil3" d="M103.18 95.14c0,0.64 0.57,2.58 0.2,2.95 0.57,0.77 0.06,1.85 0.47,2.65 -0.44,0.88 0.4,1.98 0.1,2.92 0.23,0.24 0.2,1.21 0.2,1.51 0.53,0.67 -0.14,1.78 0.3,2.21 -0.07,0.54 -0.03,2.62 0.27,2.76 0.2,3.85 1.54,11.7 -3.83,12.78 -0.9,0.6 -7.95,1.77 -8.35,0.84 -1.88,-0.41 -3.49,-1.68 -4.86,-2.96 -0.04,-0.16 -0.04,-0.33 -0.04,-0.5 -0.1,-0.06 -0.17,-0.13 -0.23,-0.2 0,-0.33 0.03,-0.53 -0.2,-0.77 -0.07,-1.04 -0.1,-2.05 -0.14,-3.05 1.04,-3.26 2.08,-6.48 3.16,-9.7 -0.14,-0.13 -0.24,-0.27 -0.34,-0.4l-0.23 0c-0.41,0.87 -1.11,1.64 -1.24,2.61 -0.1,0.07 -0.17,0.14 -0.24,0.21 0.1,0.47 -0.84,2.28 -1.11,2.55 -0.5,2.75 -1.34,5.26 -1.44,8.11 -0.33,1.31 0.1,2.92 0,4.26 0.37,0.17 0.67,0.61 0.67,1.01 0.27,0.17 0.37,0.34 0.44,0.71 0.4,0.2 1.07,0.67 1.07,1.17 0.1,0 0.2,0 0.3,0.03 0,0.1 0,0.21 0.04,0.31 0.2,0.03 0.4,0.06 0.63,0.13 0.04,0.1 0.07,0.2 0.11,0.33 0.16,0.04 0.36,0.07 0.57,0.14 0.87,0.67 1.81,0.44 2.61,0.84 0.17,-0.07 0.34,-0.1 0.54,-0.14 0.03,0.07 0.07,0.17 0.13,0.27 1.58,-0.03 4.67,0.27 6.01,-0.4 1.11,0 3.99,-1.01 4.49,-1.78 1.58,-0.77 3.06,-3.12 3.63,-4.76 0.1,-0.71 0.1,-0.71 0.2,-8.32 -0.1,-0.04 -0.17,-0.07 -0.24,-0.1 -0.03,-1.38 -0.06,-2.75 -0.06,-4.13 -0.17,-1.27 -0.34,-2.55 -0.24,-3.82 -0.3,-0.2 -0.91,-8.56 -0.91,-8.83 -0.1,-0.07 -0.1,-0.87 -0.33,-2.04 0.1,-1.01 0.5,-1.45 1.38,-1.95 0.87,-0.87 0.53,-3.22 0.3,-4.39 -0.27,-0.34 -0.71,-0.47 -1.25,-0.91 -1,-0.23 -1.71,-1.54 -2.88,-1.54 0,0.67 -0.57,3.15 -0.3,3.42 -0.04,0.3 -0.04,0.3 -0.17,0.47 0.03,0.06 0.07,0.13 0.13,0.2 -0.43,0.91 0.07,4.7 0.68,5.3z"/>
  <path class="fil3" d="M129.61 116.21c-0.23,0.97 0.84,2.68 0.37,3.62 0.2,0.2 0.27,1.41 0.27,1.78 2.11,0.27 4.66,0.23 6.81,0.23 0.94,0.41 3.99,0.14 4.86,0.11 0.54,0.8 4.57,-0.31 5.54,0.46 0.4,-0.4 2.01,0 2.52,0.11 1.64,-0.17 3.65,-0.14 5.26,0.06 -0.17,-1.47 0.27,-3.12 0.4,-4.59 -0.33,-0.54 -1.17,-1.48 -1.84,-1.48 -0.03,-0.13 -0.07,-0.27 -0.1,-0.37 -0.1,-0.03 -0.17,-0.06 -0.24,-0.1l0 -0.3c-0.53,-0.1 -0.57,-0.2 -0.9,-0.64 -1.04,-0.91 -1.51,-1.21 -2.22,-2.31 -0.8,-0.4 -1.17,-1.28 -1.97,-1.75 -0.44,-0.87 -2.39,-3.02 -3.36,-3.39 -1.24,-1.67 -5.2,-1.44 -6.94,-1.47 -0.51,1.24 -1.25,3.08 -2.19,4.02 0.34,0.07 0.84,-0.03 1.01,0.34 0.03,-0.07 0.07,-0.1 0.13,-0.14 0.48,0.04 0.95,0.07 1.41,0.11 0.04,0.03 0.07,0.1 0.11,0.16 1.64,0 7.31,2.92 7.71,4.2 0.94,0.26 2.45,1.51 1.34,2.48 -0.43,-0.3 -3.59,-0.3 -4.56,-0.17 -0.17,-0.13 -0.17,-0.13 -1.98,-0.27 -0.74,0.3 -3.93,-0.1 -4.86,-0.23l-3.43 0c-0.03,-0.17 -0.06,-0.34 -0.06,-0.5 -0.84,-2.55 -1.01,-5.27 -1.58,-7.85 0,-1.01 -1.11,-6.75 -0.64,-7.22l-0.23 -0.23c-0.24,-3.83 -0.24,-3.83 -0.34,-4.16 0.04,-0.07 0.07,-0.14 0.14,-0.17 -0.24,-0.3 -0.3,-1.95 -0.14,-2.31 -0.27,-0.88 -0.23,-1.78 -0.23,-2.69 -0.14,-0.77 -0.27,-1.54 -0.37,-2.28 -0.27,0.5 -0.27,0.5 -0.64,0.77 0,0.03 -0.74,1.68 -0.77,1.95 0.24,1.67 0.97,4.96 0.44,6.61 0.6,1.54 -0.17,3.89 -0.1,5.63 -0.47,1.61 -0.91,3.26 -1.35,4.9 -0.33,0.37 -0.33,0.37 -0.8,1.34 -0.37,0.44 -1.11,1.04 -1.11,1.68 -0.37,0.24 -0.53,0.3 -0.63,0.77 -0.71,0.34 -1.05,1.17 -1.82,1.31 -0.2,0.84 -1.61,1.17 -2.11,1.95 -1.01,0.2 -2.08,1 -2.92,1.64 -0.1,-0.07 -0.17,-0.1 -0.23,-0.14 -0.57,0.41 -0.74,0.78 -1.58,0.78 -0.07,0.06 -0.14,0.13 -0.17,0.23 -1.94,0.94 -4.03,1.68 -5.97,2.48 -0.07,0.51 -0.13,1.01 -0.2,1.55 1.11,0 1.11,0 1.37,0.13 0.84,0 1.95,-0.37 2.59,0.27 0,-0.13 0.03,-0.23 0.06,-0.33 0.14,0 2.32,0 2.55,-0.24 1.72,-0.24 3.09,-0.77 4.7,-1.38 0.3,-0.37 0.3,-0.37 2.01,-1.47 0.14,-0.27 1.01,-1.11 1.75,-1.65 0.2,-0.33 0.17,-0.53 0.6,-0.67 0.14,-0.6 -0.5,-0.23 0.54,-0.8 0.23,-0.77 1.14,-1.55 1.14,-2.25 0.91,-1.38 1.54,-3.16 2.48,-4.56 0.1,0.1 0.1,0.1 -0.03,2.28 0,0.24 0.3,3.96 0.5,4.16z"/>
  <path class="fil3" d="M77.44 112.89c-1.04,-0.47 -1.04,-0.47 -1.17,-0.67 -0.84,-0.04 -2.62,-0.2 -3.02,0.6 -2.04,1.01 -3.52,5.33 -0.64,6.27 0.14,0.41 0.61,0.57 1.01,0.68 0.77,-0.04 2.78,-0.14 3.15,-0.88 1.62,-0.4 1.75,-3.02 1.82,-4.39 -0.27,-0.17 -0.31,-0.47 -0.34,-0.81l-0.81 -0.8zm-2.24 4.69l0 0c-0.5,0.04 -1.01,0.1 -1.48,0.17 -2.35,-0.87 -1.31,-2.48 -0.4,-3.96 0.87,-0.26 1.71,-0.63 2.58,-0.1 0.4,0.57 0.4,0.57 0.6,0.67 0,0.57 0,1.15 0.04,1.75 -0.44,0.33 -1.11,1 -1.34,1.47z"/>
  <polygon class="fil3" points="113.54,118.89 113.54,118.76 113.41,118.76 113.41,118.89 "/>
  <polygon class="fil3" points="158.26,118.89 158.26,118.76 158.16,118.76 158.16,118.89 "/>
  <path class="fil3" d="M164.23 114.16c-0.26,-0.37 -1.24,-1.81 -0.87,-2.28 -0.64,-0.81 -0.13,-1.91 -0.37,-2.68 0,-2.18 0.14,-6.28 -1.54,-7.95 -0.14,-0.41 -0.27,-0.81 -0.37,-1.21 -0.1,-0.03 -0.17,-0.07 -0.24,-0.1 0.11,-0.37 -0.2,-0.67 -0.43,-0.88 0.1,-0.33 -0.4,-1.47 -0.4,-2.01 -0.88,-1.07 -0.51,-4.33 0.43,-5.26 -0.03,-0.14 -0.07,-0.24 -0.1,-0.34 1.51,-1.51 -0.17,-2.55 -1.68,-1.75 -0.43,0.48 -0.87,0.95 -1.27,1.45 -1.01,0.2 -2.15,1.74 -2.89,2.41 -0.06,0.47 -0.06,0.47 -0.23,0.57 0,0.71 -0.37,2.35 -0.67,2.99 0.03,0.07 0.06,0.13 0.13,0.23 -0.23,1.55 0.17,2.05 0.51,3.43 0.36,-0.1 1.14,1.24 1.98,1.47 1.03,1.04 2.44,-0.06 3.35,-0.63 2.04,-0.14 2.52,3.72 2.28,5.19l0.3 0c0,0.37 -0.17,1.98 -0.3,2.05 0.07,0.07 0.17,0.14 0.27,0.2 -0.1,0.14 -0.1,0.14 -0.3,2.28 -0.91,0.74 -0.64,1.45 -1.04,2.49 -0.07,0.83 0.1,1.64 0,2.41 0.06,0.07 0.13,0.14 0.23,0.2 -0.06,0.64 0.27,1.68 0.94,1.88 1.85,-0.9 2.82,-2.21 2.28,-4.16zm-7.54 -13.72l0 0c-0.68,-0.5 -1.42,-0.74 -1.58,-1.68 -0.1,-0.03 -0.2,-0.06 -0.27,-0.1 -0.37,-2.08 0.67,-3.55 2.75,-3.15 0,0.07 0.03,0.17 0.07,0.27l0.3 0c1.41,1.57 0.97,4.02 -1.27,4.66z"/>
  <polygon class="fil3" points="177.49,117.08 177.49,117.21 177.62,117.21 177.62,117.08 "/>
  <path class="fil3" d="M116.6 97.66c0.67,-0.67 2.51,-0.94 2.51,0.43l0.44 0c0,0.14 0.03,0.27 0.06,0.44 0.1,0.07 0.21,0.13 0.34,0.2 0.17,0.77 1.01,1.34 1.01,2.08 1.44,0.84 1.91,3.86 3.35,4.93 0,0.44 0.44,0.67 0.64,1.07l0.67 0c0,-0.43 0,-0.87 0.03,-1.27 -0.06,-1.17 -0.67,-2.18 -0.67,-3.25 -0.87,-0.64 -1.07,-3.39 -1.91,-3.79 -0.1,-0.51 -0.57,-0.68 -0.67,-1.25 -0.74,-0.23 -0.6,-1.27 -1.28,-1.47 -0.2,-0.81 -1.68,-1.75 -1.61,-2.55 -1.64,-1.34 -3.28,-2.72 -5.2,-3.73 -0.06,-0.1 -0.13,-0.2 -0.16,-0.26 -0.84,-0.07 -2.82,-1.14 -3.39,-0.44 0.33,1.34 -0.54,2.68 0.33,3.99 0.1,0.97 0.44,1.14 0.81,2.08 1.17,0.47 2.31,2.05 3.15,3.02 0.71,0 0.71,0 1.55,-0.23z"/>
  <path class="fil3" d="M163.63 75.31c-0.37,0.44 -0.57,0.61 -0.71,1.14 -0.16,0.04 -0.33,0.07 -0.46,0.11 -0.17,0.3 -0.34,0.63 -0.51,0.97 -1.07,0.7 -3.08,3.22 -4.36,3.22l0 -0.44c-0.84,-0.5 -1.31,-1.44 -2.05,-2.11 -0.23,0.87 -0.47,1.74 -0.7,2.65 0.23,0.64 -0.47,5.27 0.37,5.67 0.47,-0.2 1.44,-0.77 1.61,-1.28 0.5,-0.1 1.78,-1.2 1.98,-1.64 0.1,0.04 0.2,0.07 0.33,0.1 0.34,-0.27 0.34,-1.07 1.08,-0.97 0.33,-0.27 0.33,-0.27 0.47,-0.64l0.5 0c0,-0.17 0,-0.3 0.03,-0.44 0.14,-0.06 0.27,-0.1 0.4,-0.13 0,-0.1 0,-0.2 0.04,-0.3 0.3,-0.2 0.64,-0.37 0.97,-0.54 2.05,-2.45 5,-4.26 7.59,-6.07 0.53,0.54 0.9,1.04 1.67,1.14 0.64,0.91 0.64,0.91 0.87,1.01 -0.03,0.3 -0.03,0.3 0.1,0.57 0.1,0.03 0.24,0.06 0.37,0.1 -0.03,0.13 -0.03,0.3 -0.03,0.47 0.1,0.06 0.24,0.13 0.37,0.23 -0.13,0.3 1.64,3.49 1.98,3.99 -0.71,0.74 -1.31,1.78 -2.25,2.25 -0.27,0.87 -1.24,0.91 -1.64,1.71 -0.14,0.04 -0.27,0.07 -0.37,0.1 -0.04,0.07 -0.07,0.14 -0.07,0.24 -0.53,0.07 -0.97,0.27 -1.11,0.74 -1.88,0.8 -3.75,1.74 -5.77,2.14 -0.7,-0.94 -1.04,-2.14 -0.9,-3.35 -0.1,-0.14 -0.1,-0.44 -0.77,-1.91l-0.3 0c-0.31,0.4 -1.05,2.08 -0.68,2.45 -0.2,0.33 0.14,0.83 -0.27,1.04 0.04,2.01 -0.1,2.24 -0.06,2.81 -0.27,0.41 -0.3,1.65 -0.14,2.15 -0.3,0.44 0,1.04 0.04,1.54 -0.07,0 -0.14,0.04 -0.2,0.07 0.4,0.27 0.43,2.55 0.5,3.02 0.1,0.03 0.2,0.07 0.3,0.1 0.47,-0.23 0.47,-0.23 0.77,-0.64 1.65,-0.53 1.78,-1.54 3.43,-0.6 0.16,1.51 -0.27,3.92 -0.38,5.3 0.51,0.81 0.78,1.48 1.45,2.15 0.47,1.21 1.41,1.47 2.55,1.91l0 0.23c0.2,-0.16 0.4,-0.3 0.6,-0.43 -0.1,-0.6 -0.33,-1.04 -0.57,-1.98 -0.3,-0.5 -0.67,-0.94 -0.67,-1.54 -1.17,-1.58 0.34,-1.98 0.34,-3.39 0.06,-0.07 0.13,-0.1 0.23,-0.14 -0.03,-0.13 -0.03,-0.23 -0.03,-0.33 0.43,0 2.21,0.17 2.48,-0.1 0.97,0.13 2.28,0 3.22,-0.11 0.87,0.07 3.69,0.38 4.49,-0.09 1.62,0.09 7.22,-0.64 7.05,0.6 0.34,0.4 0.44,0.6 0.44,1.11 0.3,0.3 0.3,0.3 0.6,0.94 0.64,0.1 1.28,0.23 1.95,0.36 0.06,-0.13 0.13,-0.26 0.2,-0.36 -0.24,-0.37 -1.21,-2.05 -1.64,-2.05 -0.41,-0.74 -0.61,-1.48 -1.35,-1.91 -0.03,-0.2 -0.07,-0.41 -0.07,-0.57 -0.7,-0.57 -2.24,-5.03 -2.04,-5.71 -0.37,-0.37 -0.44,-0.67 -0.44,-1.2 -0.47,-0.61 -0.84,-1.55 -1,-2.29 -0.1,-0.03 -0.17,-0.06 -0.24,-0.06 -0.2,-0.61 -0.7,-1.31 -0.54,-1.88 -0.16,-0.17 -0.3,-0.34 -0.43,-0.47 -0.6,-1.31 -2.65,-6.27 -3.76,-6.64 -0.03,-0.2 -0.07,-0.4 -0.07,-0.57 -1.2,-0.84 -1.44,-2.38 -2.45,-3.26 -0.9,0 -2.07,-2.55 -2.91,-3.09 -0.14,-0.63 -1.75,-2.24 -2.25,-2.34 -0.03,-0.17 -0.07,-0.34 -0.1,-0.47 -0.1,-0.04 -0.2,-0.04 -0.27,-0.04 -0.37,0.71 -0.94,1.34 -1.04,1.65 -1.24,0.47 -1.61,2.08 -2.72,2.82 -1.04,1.27 -1.37,1.47 -2.85,3.32 -0.07,-0.04 -0.13,-0.04 -0.2,-0.04zm13.99 12.38l0 0c-0.03,0.07 -0.07,0.14 -0.07,0.24 0.77,0.57 1.44,1.14 1.44,2.25 0.1,0.03 0.2,0.06 0.34,0.13 -0.04,0.1 -0.07,0.2 -0.1,0.3 0.6,0.41 1.37,3.46 1.31,4.26 -0.24,0 -0.47,0.04 -0.71,0.07 -0.03,-0.1 -0.07,-0.2 -0.07,-0.27 -0.23,0.07 -0.47,0.17 -0.7,0.27 -0.47,-0.24 -1.11,-0.07 -1.47,-0.3 -0.2,0.2 -4.77,-0.14 -5.11,-0.34 -0.06,0.04 -0.13,0.07 -0.16,0.14 -0.81,-0.54 -2.05,0.1 -3.02,-0.37 -0.37,0.13 -0.37,0.13 -1.08,0.1 0.17,-1.11 1.85,-2.85 2.89,-3.22 -0.03,-0.14 -0.03,-0.27 -0.03,-0.37 0.57,-0.37 0.67,-0.61 1.04,-0.74 0.87,-1.31 3.99,-2.45 5.5,-2.15z"/>
  <polygon class="fil3" points="180.97,105.14 180.97,105 180.84,105 180.84,105.14 "/>
  <path class="fil3" d="M52.15 103.16c0.03,0.03 0.07,0.1 0.1,0.17l0.34 0c-0.14,-0.41 -0.64,-0.54 -0.95,-0.84 0,0.2 0,0.4 0.04,0.63 0.13,0 0.3,0 0.47,0.04z"/>
  <path class="fil3" d="M51.31 102.62c-0.07,-0.03 -0.13,-0.06 -0.17,-0.06l0 0.23c0.04,-0.07 0.1,-0.13 0.17,-0.17z"/>
  <polygon class="fil3" points="51.01,102.12 50.81,102.12 50.81,102.32 51.01,102.32 "/>
  <path class="fil3" d="M186.64 85.58c0.04,0.17 0.07,0.37 0.1,0.57 0.91,0.91 1.25,2.15 1.82,3.32 0.5,0.3 0.97,0.97 0.9,1.58 0.44,0.37 0.74,0.77 0.91,1.34 1.17,0.37 1.34,4.39 1.74,5.47 0.47,0.03 0.47,0.03 1.04,0.23 0.03,-0.03 0.1,-0.06 0.17,-0.1 0.2,-1.21 0.37,-2.82 -0.14,-3.96 0.04,-0.13 0.07,-0.27 0.11,-0.37 -0.37,-0.53 -0.51,-0.87 -0.57,-1.51 -0.14,-0.03 -0.24,-0.03 -0.34,-0.03 -0.03,-0.3 -0.1,-0.43 -0.3,-0.64l0 -0.6c-0.14,-0.03 -0.27,-0.07 -0.37,-0.1 -0.2,-0.87 -1.04,-1.54 -1.65,-2.25 0.2,-0.27 -0.73,-2.41 -1,-2.75 0,-1.11 -0.91,-2.08 -1.48,-2.95 -0.6,-0.07 -1,0.06 -1.54,0.2 -0.1,0.74 -0.14,2.18 0.6,2.55z"/>
  <path class="fil3" d="M79.86 86.79c0,-0.21 0,-0.37 0.03,-0.54 0.47,-0.13 1.65,-1.41 1.65,-1.91 -0.24,0.03 -0.24,0.03 -1.48,-0.54 -0.2,0.24 -0.2,0.24 -0.27,0.74 -0.33,0.34 -1,1.44 -1,1.91 -0.71,0.3 -1.41,0.3 -2.18,0.3 -0.21,-0.74 -1.61,-2.71 -2.32,-3.11 -0.03,-0.21 -1.04,-1.95 -1.21,-2.02 -0.27,-1.41 -2.48,-1.51 -3.62,-1.54 0.3,0.67 1.48,2.48 2.18,2.81 0.34,0.71 1.41,1.08 1.41,1.88 0.13,0 0.27,0 0.4,0.04 0.41,0.57 2.18,2.31 1.21,3.05 0.1,0.2 0.1,0.2 0,1.64l0.67 0c0.27,-0.36 0.57,-0.73 0.87,-1.1 0.94,0.47 0.34,1.41 0.61,2.28 -0.24,0.34 -0.44,0.7 -0.64,1.07 -0.44,0 -0.57,-0.23 -0.84,-0.5l0 -0.37c-0.3,-0.13 -0.43,-0.47 -0.77,-0.47 0,1.21 0.97,2.11 1.94,2.85 0.37,-0.3 0.84,-1.24 1.01,-1.37 0.57,0 0.84,0.7 1.24,1 0.24,-0.17 0.47,-0.33 0.71,-0.47 0.1,-0.63 -0.2,-2.72 0,-2.92 -0.1,-0.9 0.03,-1.77 0.1,-2.68 0.1,-0.03 0.2,-0.03 0.3,-0.03z"/>
  <polygon class="fil3" points="151.45,91.38 151.55,91.38 151.55,91.25 151.45,91.25 "/>
  <path class="fil3" d="M151.92 79.47c-0.3,-0.13 -0.3,-0.13 -1.24,-1 -4.16,-0.71 -3.46,4.69 -2.89,7.07 -1.34,1.01 -0.63,2.96 -0.43,4.27 0.7,0.43 0.87,0.84 1.71,1.04 0.03,0.13 0.07,0.27 0.13,0.4 0.17,-0.07 0.37,-0.13 0.57,-0.17 3.06,1.14 3.12,-4.46 2.52,-6 0.03,-0.2 0.07,-0.37 0.1,-0.54 1.04,-1.41 0.2,-3.69 -0.47,-5.07zm-0.77 9.46l0 0c-0.47,0.24 -0.84,0.27 -1.28,0.44 -0.26,-0.2 -0.26,-0.2 -0.6,-0.2 -0.03,-0.17 -0.07,-0.34 -0.1,-0.47 -1.21,-0.8 -0.27,-3.26 1.41,-2.65 0.37,0.5 0.37,0.5 0.77,0.8 0.03,0.68 0.03,0.68 -0.2,2.08zm0.33 -5.13l0 0c-0.43,0.3 -0.63,0.54 -1.17,0.64 -0.97,-0.57 -1.64,-1.14 -1.94,-2.25 0.09,-1.37 0.26,-2.61 1.94,-2.61 0.3,0.16 0.6,0.33 0.91,0.5 0,0.1 0,0.2 0.03,0.3 0.1,0.03 0.2,0.07 0.33,0.1 0.24,1.14 0.24,1.14 0.24,1.98 -0.34,0.33 -0.3,0.84 -0.34,1.34z"/>
  <polygon class="fil3" points="114.21,88.7 114.08,88.7 114.08,88.8 114.21,88.8 "/>
  <path class="fil3" d="M127.43 74.91c-1.17,-1.58 -2.28,-2.15 -4.36,-1.94 -0.37,0.57 -1.41,0.5 -1.71,1.1 -2.18,1.51 -1.34,2.59 -1.54,4.77 0.13,0.16 0.27,0.33 0.4,0.5 0.17,1.01 1.11,1.07 1.91,1.64 0.5,-0.33 2.01,-0.2 2.52,-0.2 2.45,-1.2 3.22,-3.15 2.78,-5.87zm-1.38 1.71l0 0c-0.06,0 -0.13,0.04 -0.2,0.07 0,0.13 0,0.3 0.04,0.47 -0.84,0.9 -0.84,0.9 -1.08,1l0 0.24 -0.2 0 0 0.23c-0.43,0 -0.6,-0.03 -1,0.21 -1.04,-0.14 -1.31,-0.31 -2.05,-0.94l0 -0.77c-0.07,-0.04 -0.13,-0.07 -0.2,-0.07 0,-1.01 0.37,-1.14 0.6,-1.85 0.3,-0.13 0.37,-0.33 0.47,-0.64 0.71,-0.33 1.41,-0.66 2.22,-0.56 0.4,0.3 0.4,0.3 0.97,0.47 0,0.8 0.5,1.17 0.43,2.14z"/>
  <path class="fil3" d="M114.85 72.97c0.07,0.63 0.57,2.04 1.17,2.44 0.31,-0.03 0.61,-0.06 0.91,-0.1 0.17,-0.3 0.37,-0.74 0.81,-0.67 0.77,-0.5 1.34,-2.18 2.08,-2.92 0.33,-1.1 0.74,-1.87 1.47,-2.68 -0.03,-0.07 -0.07,-0.14 -0.1,-0.2 0.64,-0.98 1.27,-2.11 1.71,-3.15 1.18,-1.78 2.52,-3.69 3.59,-5.51l0.24 0c0.2,-0.63 0.77,-1.67 1.57,-1.67 0.14,0.6 0.41,1.1 0.61,1.67 0.4,2.69 0.47,5.4 0.94,8.05 -0.07,0 -0.14,0.04 -0.21,0.07l0.11 0.71 0.23 0c-0.2,1.21 0.27,2.31 0.13,3.45 0.51,0.51 0.81,5.17 0.78,6.41 0.43,0.27 0.47,0.4 0.53,0.87 0.24,0.07 0.51,0.14 0.77,0.24 1.11,-0.17 1.55,-0.14 2.39,-0.98 0.47,-1.34 1.81,-3.38 1.81,-4.79 -0.4,-0.04 -0.81,-0.04 -1.21,-0.04 -0.03,0.04 -0.07,0.1 -0.1,0.17 -0.34,-0.03 -0.67,-0.07 -0.97,-0.07 -0.41,-0.87 -0.41,-0.87 -0.74,-1.24 -0.27,-1.11 -2.92,-8.62 -1.98,-9.56 -0.1,-0.13 -0.2,-0.23 -0.27,-0.33 0.24,-0.34 0.17,-0.84 -0.1,-1.11 0.24,-0.47 0.1,-3.15 0.1,-3.82 0.24,-0.51 0.24,-0.51 0.24,-1.05 1.14,-1.67 2.71,-3.15 4.56,-3.99 0.43,-0.63 0.87,-1 1.51,-1.37 -0.17,-0.34 0.57,-0.67 0.74,-0.77 0.33,-0.74 0.97,-1.35 1.1,-2.22 -0.5,-0.1 -0.8,-0.13 -1.2,-0.43 -2.08,0 -4.23,-1.21 -6.41,-1.35 -0.3,-0.3 -6.28,-1.47 -7.01,-1.1 0,0.3 0,0.3 -0.14,0.53 0.04,0.04 0.07,0.1 0.14,0.17 0,1.61 0.73,3.12 1.14,4.66 0.53,0.84 1.98,3.96 0.77,4.57 -0.44,1.2 -1.65,1.94 -2.05,3.18 -0.7,0.61 -1.14,2.05 -1.81,2.38 -0.03,0.1 -0.03,0.21 -0.03,0.31 -0.41,0.27 -0.77,0.54 -1.14,0.84 -0.2,0.6 -1.75,2.85 -2.42,2.85 -0.2,1.11 -1.91,1.31 -1.91,2.21 -0.17,0 -0.3,0 -0.44,0.03 -0.03,0.1 -0.06,0.2 -0.06,0.31 -1.01,0.43 -1.95,1.2 -2.96,1.47 0.17,1.24 0.51,2.32 0.77,3.53l0.34 0zm21.03 -23.52l0 0c0.04,0 0.11,0.03 0.17,0.07 -0.06,0.03 -0.13,0.06 -0.17,0.13l0 -0.2zm-5.93 0.03l0 0c1.37,0.17 2.75,0.61 4.09,0.81l0 0.4c-1.14,0.97 -1.98,2.18 -3.22,3.12 -0.03,0.1 -0.07,0.2 -0.07,0.33l-0.33 0c-0.31,-0.43 -0.91,-4.22 -0.47,-4.66z"/>
  <path class="fil3" d="M106.87 51.4c0.17,0.23 0.23,0.87 0.43,1.3 -0.23,1.64 0.57,3.42 0.67,5.1 0.27,1.45 0.67,3.36 0.44,4.83 0.17,0.94 0.67,6.81 0,7.48 0.03,0.04 0.1,0.07 0.17,0.14 0,1.11 -1.01,1.71 -1.85,2.35 0.2,1.07 1.71,2.14 1.71,3.05 0.84,0.2 1.55,2.18 2.22,2.85 0,0.54 0.53,1.08 0.97,1.34 1.07,-0.3 -0.17,-10.2 0.13,-11.91 -0.06,-0.07 -0.2,-4.19 0.04,-4.43 -0.57,-3.18 -0.37,-6.71 -0.57,-9.93 0.03,-0.06 0.07,-0.13 0.13,-0.16 -0.3,-0.41 0.04,-0.97 -0.37,-1.38 -0.16,-2.51 -0.33,-5.03 -0.47,-7.51 -0.37,-0.07 -0.37,-0.07 -1.74,0.03 0,-0.1 0.03,-0.2 0.07,-0.27 -0.64,0.17 -1.95,0.17 -2.79,0.34 0.04,0.03 0.1,0.07 0.17,0.13 0.1,1.95 0.94,5.03 0.64,6.65zm4.53 26.9l0 0 0.13 0 0 0.1 -0.13 0 0 -0.1z"/>
  <polygon class="fil3" points="111.53,78.3 111.4,78.3 111.4,78.4 111.53,78.4 "/>
  <polygon class="fil3" points="114.31,77.49 114.31,77.63 114.41,77.63 114.41,77.49 "/>
  <path class="fil3" d="M137.53 64.38c-0.13,1.47 1.58,2.82 2.82,3.42 0.26,0.97 2.04,1.74 2.95,1.95 0.03,0.06 0.07,0.16 0.1,0.26 0.27,-0.06 0.27,-0.06 0.87,0.1l0 0.24c0.4,-0.07 0.4,-0.07 1.01,0.1 1.61,-0.27 4.39,0.1 5.53,-1.38 0.14,-2.41 0.14,-2.41 0.27,-2.58 -0.3,-0.74 -0.33,-1.58 -0.4,-2.38 0.07,-0.04 0.13,-0.07 0.2,-0.1 -0.07,-0.04 -0.13,-0.07 -0.2,-0.07 -0.1,-0.7 -0.54,-1.44 -0.54,-2.21 1.01,-0.71 3.63,2.14 4.73,2.51 0.04,0.17 0.07,0.34 0.14,0.51 0.9,0.3 0.97,0.2 1.71,0.97 0.17,0.03 0.33,0.07 0.5,0.1 0.03,0.14 0.07,0.27 0.14,0.4 0.13,0 0.26,0 0.43,0.04 0.24,0.47 1.24,0.83 1.75,1 1.04,-0.77 4.79,-0.4 5.36,-1.54 -0.37,-0.24 -0.57,-0.61 -1,-0.87 -0.04,-0.17 -0.04,-0.31 -0.04,-0.44 -0.87,-0.17 -2.08,-1.27 -2.58,-1.98 -0.3,0.14 -2.38,-1.94 -2.99,-1.94 -0.13,-0.41 -0.4,-0.51 -0.8,-0.58 -0.44,-0.66 -0.87,-0.87 -1.58,-1.27 -1.24,-1.44 -3.38,-2.21 -4.86,-3.55 -0.61,0 -2.75,0.67 -3.19,1.1l-0.64 0c-0.87,0.87 -2.45,0.54 -2.21,1.98 0.07,0.04 0.14,0.07 0.2,0.1 0.24,0.77 0.24,0.77 0.24,1.28 1,0.87 0.5,4.06 0.43,4.96 -1.51,1.81 -3.52,1.65 -5.7,1.01 -0.04,-0.1 -0.07,-0.2 -0.1,-0.27 -1.01,-0.3 -1.38,-0.4 -2.11,-1.14 -0.17,0.07 -0.31,0.17 -0.44,0.27z"/>
  <path class="fil3" d="M94.05 52.1c-0.3,-0.07 -0.3,-0.07 -0.47,0.1 -0.3,-0.03 -0.3,-0.03 -0.8,0.1 -0.44,0.44 -4.2,1.78 -5,1.78 -1.48,0.67 -1.95,1.04 -2.99,1.54 -0.9,0.1 -1.78,0.54 -2.41,1.17 -0.31,1.21 -1.14,3.02 -0.41,4.23l0.57 0c1.25,-0.9 3.83,-0.74 5.27,-0.67 0.37,0.14 0.74,0.27 1.11,0.44 0.47,0.57 0.94,1.14 1.44,1.74 -0.07,0.37 -0.03,0.47 0.17,0.77 0,2.32 -2.85,2.69 -4.33,3.86 -0.17,-0.03 -0.17,-0.03 -0.57,0.17 0,0.7 0.1,1.01 0.27,1.57 1.68,-0.33 3.56,-0.53 5.1,-1.3 1.54,0.16 3.75,-0.94 4.73,-2.12 0.9,-0.43 1.74,-2.04 1.98,-3.08 0,-2.05 -2.55,-2.69 -4.06,-3.29 -0.14,0 -0.27,0 -0.37,0.03 -0.07,-0.13 -0.13,-0.26 -0.2,-0.36l-0.81 0c-0.06,-0.11 -0.13,-0.17 -0.16,-0.24 -0.74,-0.03 -1.21,-0.2 -1.85,-0.37 0.23,-0.4 3.55,-1.38 4.19,-1.38 1.88,-0.93 4.57,-0.87 6.38,-1.94 0.77,-1.34 0.83,-3.69 1.14,-5.23 0,0 -7.58,1.78 -7.92,2.48z"/>
  <path class="fil3" d="M82.44 52.07c0.04,0.03 0.07,0.1 0.1,0.16 0.51,-0.23 2.32,-0.3 2.45,-0.5 1.04,-0.27 2.08,-1.41 3.06,-1.41l0 -0.3c1.2,-0.24 2.18,-2.12 3.59,-2.35 0.27,-0.81 2.91,-1.44 3.48,-1.17 0.04,-0.07 0.11,-0.11 0.17,-0.14 0.74,0.03 1.48,0.07 2.25,0.1 0.37,-0.47 0.5,-0.84 0.57,-1.51 -0.77,-0.03 -5.6,-0.7 -5.94,-0.16 -2.65,0.57 -3.59,2.91 -5.97,3.92 -1.21,1.21 -6.21,0.57 -4.83,3.32 0.34,0 0.7,0 1.07,0.04zm14.53 -6.45l0 0 0.23 0 0 0.14 -0.23 0 0 -0.14z"/>
  <path class="fil3" d="M136.05 49.52c-0.06,-0.04 -0.13,-0.07 -0.17,-0.07l0 0.2c0.04,-0.07 0.11,-0.1 0.17,-0.13z"/>
  <polygon class="fil3" points="97.2,45.62 96.97,45.62 96.97,45.76 97.2,45.76 "/>
 </g>
</svg>
