<svg xmlns="http://www.w3.org/2000/svg" xmlns:xlink="http://www.w3.org/1999/xlink" width="128" height="128" viewBox="0 0 128 128"><defs><clipPath id="b"><rect width="128" height="128"/></clipPath></defs><g id="a" clip-path="url(#b)"><rect width="128" height="128" fill="#fff"/><g transform="translate(0 5.542)" fill="none" opacity="0.84"><path d="M58.92,116.693,21.2,76.91a7.459,7.459,0,0,1-.556-.658l-7.479-7.606A39.35,39.35,0,0,1,0,39.158C0,17.532,17.237,0,38.5,0A37.991,37.991,0,0,1,64,9.82,37.989,37.989,0,0,1,89.5,0C110.763,0,128,17.532,128,39.158a39.415,39.415,0,0,1-8.351,24.355q-.19.256-.407.534c-3.578,4.575-12.377,13.115-14.73,15.274L69.079,116.693a7,7,0,0,1-10.159,0Z" stroke="none"/><path d="M 64.00191497802734 104.6116714477539 L 96.39998626708984 70.47834014892578 C 99.04812622070313 68.04911804199219 107.0191802978516 60.19706344604492 110.1955108642578 56.12158966064453 C 113.9927062988281 51.26520156860352 115.9998168945313 45.39931106567383 115.9998168945313 39.15808868408203 C 115.9998168945313 24.18306350708008 104.1118698120117 12.00000762939453 89.49959564208984 12.00000762939453 C 83.06270599365234 12.00000762939453 76.85739898681641 14.39384078979492 72.02678680419922 18.74053573608398 L 64.00023651123047 25.9630069732666 L 55.97354125976563 18.74064636230469 C 51.14267730712891 14.3938684463501 44.93720626831055 12.00000762939453 38.50020599365234 12.00000762939453 C 23.8879566192627 12.00000762939453 12.00001239776611 24.18306350708008 12.00001239776611 39.15808868408203 C 12.00001239776611 47.03217315673828 15.33240127563477 54.51197814941406 21.72476196289063 60.23320007324219 L 29.20342826843262 67.83961486816406 L 29.42867851257324 68.01142120361328 L 29.91045570373535 68.65409088134766 L 64.00191497802734 104.6116714477539 M 63.99990081787109 118.8773956298828 C 62.15017700195313 118.8773956298828 60.30045700073242 118.1493148803711 58.9202880859375 116.6930923461914 L 21.20220565795898 76.91039276123047 C 21.00034523010254 76.69744873046875 20.81526184082031 76.47772979736328 20.6465950012207 76.25273132324219 L 13.16792869567871 68.64631652832031 C 5.097206592559814 61.46836853027344 1.192898253066232e-05 50.91886901855469 1.192898253066232e-05 39.15808868408203 C 1.192898253066232e-05 17.53200721740723 17.23678970336914 7.185194135672646e-06 38.50020599365234 7.185194135672646e-06 C 48.28012466430664 7.185194135672646e-06 57.20892715454102 3.7095627784729 64.00009155273438 9.820201873779297 C 70.79103851318359 3.7095627784729 79.71968078613281 7.185194135672646e-06 89.49959564208984 7.185194135672646e-06 C 110.7630081176758 7.185194135672646e-06 127.9998168945313 17.53200721740723 127.9998168945313 39.15808868408203 C 127.9998168945313 48.36345291137695 124.8761215209961 56.8277587890625 119.6488189697266 63.51314544677734 C 119.5223999023438 63.68408966064453 119.3869323730469 63.86211776733398 119.2418975830078 64.04759216308594 C 115.6638488769531 68.62256622314453 106.8650131225586 77.16264343261719 104.5118713378906 79.32125854492188 L 69.07951354980469 116.6930923461914 C 67.69934844970703 118.1493148803711 65.84962463378906 118.8773956298828 63.99990081787109 118.8773956298828 Z" stroke="none" fill="#707070"/></g></g></svg>