<svg xmlns="http://www.w3.org/2000/svg" xmlns:xlink="http://www.w3.org/1999/xlink" width="128" height="128" viewBox="0 0 128 128"><defs><clipPath id="b"><rect width="128" height="128"/></clipPath></defs><g id="a" clip-path="url(#b)"><rect width="128" height="128" fill="#fff"/><path d="M58.92,116.693,21.2,76.91a7.459,7.459,0,0,1-.556-.658l-7.479-7.606A39.35,39.35,0,0,1,0,39.158C0,17.532,17.237,0,38.5,0A37.991,37.991,0,0,1,64,9.82,37.989,37.989,0,0,1,89.5,0C110.763,0,128,17.532,128,39.158a39.415,39.415,0,0,1-8.351,24.355q-.19.256-.407.534c-3.578,4.575-12.377,13.115-14.73,15.274L69.079,116.693a7,7,0,0,1-10.159,0Z" transform="translate(0 5.542)" fill="#e30a17" opacity="0.84"/></g></svg>