<svg xmlns="http://www.w3.org/2000/svg" xmlns:xlink="http://www.w3.org/1999/xlink" width="128" height="128" viewBox="0 0 128 128"><defs><clipPath id="b"><rect width="128" height="128"/></clipPath></defs><g id="a" clip-path="url(#b)"><g transform="translate(6 7)" fill="none" stroke="#707070" stroke-width="5"><rect width="26" height="14" rx="7" stroke="none"/><rect x="2.5" y="2.5" width="21" height="9" rx="4.5" fill="none"/></g><g transform="translate(6 27)" fill="none" stroke="#707070" stroke-width="5"><rect width="26" height="14" rx="7" stroke="none"/><rect x="2.5" y="2.5" width="21" height="9" rx="4.5" fill="none"/></g><g transform="translate(0 40)"><g transform="translate(6 7)" fill="none" stroke="#707070" stroke-width="5"><rect width="26" height="14" rx="7" stroke="none"/><rect x="2.5" y="2.5" width="21" height="9" rx="4.5" fill="none"/></g><g transform="translate(6 27)" fill="none" stroke="#707070" stroke-width="5"><rect width="26" height="14" rx="7" stroke="none"/><rect x="2.5" y="2.5" width="21" height="9" rx="4.5" fill="none"/></g></g><g transform="translate(0 80)"><g transform="translate(6 7)" fill="none" stroke="#707070" stroke-width="5"><rect width="26" height="14" rx="7" stroke="none"/><rect x="2.5" y="2.5" width="21" height="9" rx="4.5" fill="none"/></g><g transform="translate(6 27)" fill="none" stroke="#707070" stroke-width="5"><rect width="26" height="14" rx="7" stroke="none"/><rect x="2.5" y="2.5" width="21" height="9" rx="4.5" fill="none"/></g></g><rect width="99" height="122" rx="5" transform="translate(17 3)" fill="#ffcd01" stroke="#707070" stroke-linecap="round" stroke-width="5"/><line x2="43" transform="translate(34.5 107.5)" fill="none" stroke="#707070" stroke-linecap="round" stroke-width="5"/><line x2="13" transform="translate(87.5 107.5)" fill="none" stroke="#707070" stroke-linecap="round" stroke-width="5"/><line x2="66" transform="translate(34.5 78.5)" fill="none" stroke="#707070" stroke-linecap="round" stroke-width="5"/><text transform="translate(32 101)" fill="#707070" font-size="24" font-family="ArialRoundedMTBold, Arial Rounded MT"><tspan x="0" y="0">MENU</tspan></text><path d="M3.638,2.459A75.933,75.933,0,0,1,27.776-.6C38.717-.129,48.714,3.931,51.281,5.4s4.012,3.765,3.326,6.164a4.376,4.376,0,0,1-5.167,3.2c-2.137-.545-12.2-6.62-23.295-6.176S6.176,12.82,4.1,12.773-1.616,11.358-1.616,8.32.8,3.447,3.638,2.459Z" transform="translate(66.231 5.636) rotate(41)" fill="none" stroke="#707070" stroke-linecap="round" stroke-width="5"/><path d="M24.759.526C25.529-.8,26.006,1.9,26.777,3.232c0,0,11.524,7.767,17.031,17.27S49.26,41,49.26,41c.773,1.333,3.222,1.92,1.681,1.92L3.471,44a2,2,0,0,1-1.73-3Z" transform="matrix(0.966, -0.259, 0.259, 0.966, 34.944, 22.752)" fill="none" stroke="#707070" stroke-width="5"/><g transform="translate(54 43)" fill="none" stroke="#707070" stroke-width="3"><circle cx="7" cy="7" r="7" stroke="none"/><circle cx="7" cy="7" r="5.5" fill="none"/></g><g transform="translate(62 26)" fill="none" stroke="#707070" stroke-width="3"><circle cx="3.5" cy="3.5" r="3.5" stroke="none"/><circle cx="3.5" cy="3.5" r="2" fill="none"/></g><g transform="translate(71.27 28.441) rotate(21)" fill="none" stroke="#707070" stroke-width="3"><ellipse cx="4" cy="5" rx="4" ry="5" stroke="none"/><ellipse cx="4" cy="5" rx="2.5" ry="3.5" fill="none"/></g><g transform="translate(59 35)" fill="none" stroke="#707070" stroke-width="2"><ellipse cx="4" cy="3" rx="4" ry="3" stroke="none"/><ellipse cx="4" cy="3" rx="3" ry="2" fill="none"/></g><g transform="translate(73 44)" fill="none"><path d="M4.936.462C7.035-.221,7.57-1.354,8.744-1.3c1.378.061,2.539,1.746,2.539,3.028,0,1.933-.732,4.444-5.127,5.469S.1,5.765.1,3.832,2.25.755,4.936.462Z" stroke="none"/><path d="M 8.680012702941895 0.726222038269043 C 8.562439918518066 0.7919096946716309 8.375417709350586 0.9165859222412109 8.230253219604492 1.013362407684326 C 7.636672973632813 1.409062385559082 6.823732852935791 1.950992584228516 5.554752826690674 2.364152431488037 L 5.35808277130127 2.428182601928711 L 5.152462959289551 2.450612545013428 C 4.083582878112793 2.567222595214844 3.175952911376953 2.837572574615479 2.596793174743652 3.211862564086914 C 2.101222991943359 3.532132387161255 2.101222991943359 3.749852418899536 2.101222991943359 3.831812381744385 C 2.101222991943359 4.209562301635742 2.254693031311035 5.442092418670654 4.229372978210449 5.442092418670654 C 4.670202732086182 5.442092418670654 5.165642738342285 5.378642559051514 5.701902866363525 5.253522396087646 C 7.188872814178467 4.906562328338623 8.216432571411133 4.35804271697998 8.756063461303711 3.623182535171509 C 9.116043090820313 3.132962465286255 9.283702850341797 2.532042503356934 9.283702850341797 1.73204231262207 C 9.283702850341797 1.419301509857178 8.921419143676758 0.8713126182556152 8.680012702941895 0.726222038269043 M 8.657651901245117 -1.297704219818115 C 8.686273574829102 -1.297704219818115 8.715065002441406 -1.296990871429443 8.744453430175781 -1.295527935028076 C 10.122802734375 -1.234507083892822 11.2837028503418 0.4504623413085938 11.2837028503418 1.73204231262207 C 11.2837028503418 3.665032386779785 10.55123329162598 6.175742626190186 6.156363010406494 7.201202392578125 C 5.443645000457764 7.36750316619873 4.802832126617432 7.44209098815918 4.229368209838867 7.44209098815918 C 1.266651153564453 7.44209098815918 0.1012229919433594 5.451328754425049 0.1012229919433594 3.831812381744385 C 0.1012229919433594 1.898812294006348 2.249813079833984 0.7554025650024414 4.935573101043701 0.4624123573303223 C 6.982787609100342 -0.204129695892334 7.542525768280029 -1.297704219818115 8.657651901245117 -1.297704219818115 Z" stroke="none" fill="#707070"/></g><g transform="translate(77 38)" fill="none"><path d="M-.285,1.091A2.419,2.419,0,0,1,2.4,3.679C2.4,5.336,3.768,7,1.082,7.39A3.29,3.29,0,0,1-2.971,4.216,2.859,2.859,0,0,1-.285,1.091Z" stroke="none"/><path d="M -0.2852215766906738 3.090916156768799 C -0.434221625328064 3.090916156768799 -0.56080162525177 3.124735832214355 -0.6942715644836426 3.289795875549316 C -0.8675415515899658 3.504055976867676 -0.9709815979003906 3.850356101989746 -0.9709815979003906 4.216156005859375 C -0.9709815979003906 4.266195774078369 -0.9554715156555176 5.441696166992188 0.3932784199714661 5.441696166992188 C 0.472447544336319 5.441696166992188 0.5550340414047241 5.437637805938721 0.6401205062866211 5.429590702056885 C 0.638303816318512 5.421289443969727 0.6365207433700562 5.41314697265625 0.6347684264183044 5.405145645141602 C 0.530398428440094 4.928695678710938 0.4005184173583984 4.335725784301758 0.4005184173583984 3.678996086120605 C 0.4005184173583984 3.385126113891602 0.3370184302330017 3.247315883636475 0.3034384250640869 3.215506076812744 C 0.2579584121704102 3.172415733337402 0.07638841867446899 3.090916156768799 -0.2852215766906738 3.090916156768799 M -0.2852215766906738 1.090916156768799 C 1.371628403663635 1.090916156768799 2.400518417358398 2.022145748138428 2.400518417358398 3.678996086120605 C 2.400518417358398 5.335855960845947 3.767818450927734 6.999566078186035 1.082058429718018 7.390215873718262 C 0.8420719504356384 7.425123691558838 0.6121793985366821 7.441700458526611 0.3932819664478302 7.441700458526611 C -1.837557554244995 7.441700458526611 -2.970981597900391 5.724957466125488 -2.970981597900391 4.216156005859375 C -2.970981597900391 2.559296131134033 -1.942081689834595 1.090916156768799 -0.2852215766906738 1.090916156768799 Z" stroke="none" fill="#707070"/></g><path d="M50.923,64.827s-.547,3.968,0,5.851.883,1.579,2.187,1.68a3.192,3.192,0,0,0,3.028-1.274c.757-.985-.568-1.68,0-2.665a2.154,2.154,0,0,1,2.271-1.274,2.744,2.744,0,0,1,2.523,1.274c.631.883-.778,1.593,0,2.259s2.061-.014,3.28.406,1.2.42,1.6,1.274-.589,1.318,0,2.143a2.324,2.324,0,0,0,2.355,1.159A3.815,3.815,0,0,0,71.193,74.5c.5-.7,0-13.845,0-13.845Z" transform="translate(0 -2)" fill="none" stroke="#707070" stroke-width="3"/></g></svg>