<svg xmlns="http://www.w3.org/2000/svg" xmlns:xlink="http://www.w3.org/1999/xlink" width="128" height="128" viewBox="0 0 128 128"><defs><clipPath id="b"><rect width="128" height="128"/></clipPath></defs><g id="a" clip-path="url(#b)"><g transform="translate(25.008 29.772)" fill="#ffe433"><path d="M 90.37473297119141 93.72690582275391 C 81.75414276123047 93.72017669677734 69.31817626953125 93.68321990966797 55.13468933105469 93.64108276367188 C 34.73606872558594 93.58045959472656 9.52833080291748 93.50556182861328 -12.55881404876709 93.50028991699219 C -13.32471942901611 92.00515747070313 -13.94496822357178 90.07008361816406 -14.41006946563721 87.71921539306641 C -15.08550453186035 84.30517578125 -15.41137409210205 80.05769348144531 -15.37861347198486 75.09475708007813 C -15.32170009613037 66.46869659423828 -14.1930046081543 55.67923736572266 -12.02389621734619 43.02608489990234 C -9.187837600708008 26.4823055267334 -5.286486148834229 11.03548145294189 -3.556327104568481 4.499998569488525 L 81.58935546875 4.499998569488525 C 83.32604217529297 10.83747959136963 87.19643402099609 25.68917465209961 90.01393127441406 41.87217330932617 C 92.17838287353516 54.30432510375977 93.3052978515625 65.06101989746094 93.36334228515625 73.84341430664063 C 93.39688873291016 78.91873931884766 93.06923675537109 83.34702301025391 92.38949584960938 87.00525665283203 C 91.89662933349609 89.65774536132813 91.22148132324219 91.90818786621094 90.37473297119141 93.72690582275391 Z" stroke="none"/><path d="M -0.1199569702148438 9 C -8.3870849609375 40.54790496826172 -13.43076324462891 76.22627258300781 -9.591796875 89.00138092041016 C 11.69570922851563 89.01199340820313 35.1689453125 89.08173370361328 55.14804840087891 89.14110565185547 C 67.73807525634766 89.17852020263672 78.93843841552734 89.21180725097656 87.32376098632813 89.22352600097656 C 92.00566864013672 73.8460693359375 85.56344604492188 36.34626770019531 78.18191528320313 9 L -0.1199569702148438 9 M -7 0 L 85 0 C 85 0 107.4900741577148 76.65216064453125 93 98.22799682617188 C 72.48542022705078 98.22799682617188 24.06002426147461 98 -15 98 C -29.52634429931641 79.85831451416016 -7 0 -7 0 Z" stroke="none" fill="#707070"/></g><circle cx="7.5" cy="7.5" r="7.5" transform="translate(84.008 53.541)" fill="rgba(255,255,255,0.81)"/><circle cx="7.5" cy="7.5" r="7.5" transform="translate(29.008 53.541)" fill="rgba(255,255,255,0.81)"/><path d="M15.913,48.769S12.428-6.4,43.678-6.4,70.533,48.769,70.533,48.769" transform="translate(20.736 11.272)" fill="none" stroke="#707070" stroke-linecap="round" stroke-width="9"/></g></svg>