<svg xmlns="http://www.w3.org/2000/svg" xmlns:xlink="http://www.w3.org/1999/xlink" width="128" height="128" viewBox="0 0 128 128"><defs><clipPath id="b"><rect width="128" height="128"/></clipPath></defs><g id="a" clip-path="url(#b)"><path d="M-5.973,0,98.355,4.2S117.644,100,102,128.143c-22.15,0-74.436-.3-116.61-.3C-30.3,104.179-5.973,0-5.973,0Z" transform="translate(19.881)" fill="#ed3237"/><path d="M15.437,120.289l103.754.172s1.731-2.838,1.731-15.818c0-12.555-2.875-28.233-2.875-28.233L18.3,69.97s-3.761,18.74-4.21,34.74C13.646,114.787,15.437,120.289,15.437,120.289Z" transform="translate(-2.834 -1.19)" fill="#fb0" opacity="0.6"/><g transform="translate(15 6.143)" fill="#bc0005" stroke-linecap="round" stroke-linejoin="round"><path d="M 105.8735046386719 23.81767463684082 L -5.622214794158936 23.81767463684082 L 0.7963507771492004 -4.75893497467041 L 101.8781814575195 5.172789096832275 L 105.8735046386719 23.81767463684082 Z" stroke="none"/><path d="M 1.187324523925781 -4.218107223510742 L -4.997451782226563 23.31766891479492 L 105.2550048828125 23.31766891479492 L 101.4657974243164 5.634687423706055 L 1.187324523925781 -4.218107223510742 M 0.4053573608398438 -5.299762725830078 L 102.2905426025391 4.710899353027344 L 106.4919891357422 24.31766891479492 L -6.246978759765625 24.31766891479492 L 0.4053573608398438 -5.299762725830078 Z" stroke="none" fill="#ffefef"/></g><path d="M-4.07-12.337,99.106-6.49l2.611,12.331L-8.314,5.863Z" transform="translate(18.404 23.464)" fill="#780003"/><circle cx="11.5" cy="11.5" r="11.5" transform="translate(53.623 20.227)" fill="#ffcb14"/><path d="M-9.884,9.845l124.433,8.417s.408-.384-.858,3.874a46.989,46.989,0,0,1-2.662,7.033L-5.7,28.882s-2.031-2.394-3.482-9.067S-9.884,9.845-9.884,9.845Z" transform="translate(11 99)" fill="#7e7a7a" opacity="0.43"/></g></svg>