<svg xmlns="http://www.w3.org/2000/svg" xmlns:xlink="http://www.w3.org/1999/xlink" width="128" height="128" viewBox="0 0 128 128"><defs><filter id="a" x="-3.869" y="-3.005" width="135.738" height="134.011" filterUnits="userSpaceOnUse"><feOffset input="SourceAlpha"/><feGaussianBlur stdDeviation="1.5" result="b"/><feFlood flood-opacity="0.161"/><feComposite operator="in" in2="b"/><feComposite in="SourceGraphic"/></filter><clipPath id="d"><rect width="128" height="128"/></clipPath></defs><g id="c" clip-path="url(#d)"><g transform="matrix(1, 0, 0, 1, 0, 0)" filter="url(#a)"><path d="M111.657,130.766,77.5,112.716l-34.159,18.05a5,5,0,0,1-7.262-5.276L42.882,86.3,15.652,59.873a5,5,0,0,1,2.774-8.537l36.43-5.215L73.009,9.143a5,5,0,0,1,8.977,0l18.153,36.978,36.431,5.215a5,5,0,0,1,2.774,8.537L112.112,86.3l6.807,39.186a4.986,4.986,0,0,1-7.262,5.276Z" transform="translate(-13.5 -4.85)" fill="#ed8a19"/></g></g></svg>